%
M48
M72
T01C0.0120
T02C0.0320
T03C0.0400
T04C0.0433
T05C0.0827
%
T01
X10600Y2668
X11850Y2418
X13350Y2918
X15100Y3168
X15600Y3168
X14100Y3668
X16100Y3918
X18100Y3668
X22100Y4668
X11600Y5418
X11100Y5918
X8600Y4918
X10350Y3418
X3100Y3418
X15100Y918
X14350Y7168
X11350Y7168
X17350Y7418
T02
X600Y7668
X3600Y7668
X14600Y7918
X15600Y7918
X24350Y7668
X27350Y7668
X27350Y6668
X24350Y6668
X15600Y5918
X14600Y5918
X8850Y4418
X7850Y4418
X6850Y4418
X5850Y4418
X4850Y4418
X3600Y3168
X600Y3168
X600Y2168
X3600Y2168
X4850Y1418
X5850Y1418
X6850Y1418
X7850Y1418
X8850Y1418
X3600Y1168
X600Y1168
X31350Y1918
X34350Y1918
X34350Y2918
X31350Y2918
T03
X15350Y1418
X16350Y1418
X17350Y1418
X18350Y1418
X19350Y1418
X20350Y1418
X21350Y1418
X22350Y1418
X22350Y2418
X21350Y2418
X20350Y2418
X19350Y2418
X18350Y2418
X17350Y2418
X16350Y2418
X15350Y2418
X13350Y6668
X12350Y6668
X11350Y6668
X10350Y6668
X9350Y6668
X8350Y6668
X7350Y6668
X6350Y6668
X6350Y7668
X7350Y7668
X8350Y7668
X9350Y7668
X10350Y7668
X11350Y7668
X12350Y7668
X13350Y7668
T04
X631Y5418
X3978Y5418
X5159Y5418
X9844Y4052
X9844Y3068
X9844Y2083
X16594Y4983
X16594Y5968
X16594Y6952
X23344Y4052
X23344Y3068
X23344Y2083
X30094Y4983
X30094Y5968
X30094Y6952
X36844Y4052
X36844Y3068
X36844Y2083
T05
X12600Y1296
X19350Y4196
X12600Y4839
X19350Y7739
X26100Y4839
X32850Y4196
X39600Y4839
X32850Y7739
X26100Y1296
X39600Y1296
M30
