G75*
%MOIN*%
%OFA0B0*%
%FSLAX24Y24*%
%IPPOS*%
%LPD*%
%AMOC8*
5,1,8,0,0,1.08239X$1,22.5*
%
%ADD10C,0.0000*%
%ADD11C,0.0050*%
%ADD12C,0.0060*%
%ADD13C,0.0040*%
%ADD14C,0.0080*%
%ADD15C,0.0020*%
%ADD16C,0.0030*%
D10*
X000100Y000668D02*
X000100Y008345D01*
X041832Y008345D01*
X041832Y000668D01*
X000100Y000668D01*
D11*
X002154Y000798D02*
X002421Y000798D01*
X002287Y000798D02*
X002287Y001198D01*
X002154Y001065D01*
X002568Y001132D02*
X002635Y001198D01*
X002769Y001198D01*
X002835Y001132D01*
X002568Y000865D01*
X002635Y000798D01*
X002769Y000798D01*
X002835Y000865D01*
X002835Y001132D01*
X002983Y001198D02*
X002983Y000798D01*
X002983Y000932D02*
X003183Y000798D01*
X002568Y000865D02*
X002568Y001132D01*
X002983Y000932D02*
X003183Y001065D01*
X003183Y001798D02*
X002983Y001932D01*
X003183Y002065D01*
X002835Y002132D02*
X002568Y001865D01*
X002635Y001798D01*
X002769Y001798D01*
X002835Y001865D01*
X002835Y002132D01*
X002769Y002198D01*
X002635Y002198D01*
X002568Y002132D01*
X002568Y001865D01*
X002421Y001798D02*
X002154Y001798D01*
X002287Y001798D02*
X002287Y002198D01*
X002154Y002065D01*
X002983Y002198D02*
X002983Y001798D01*
X002983Y002798D02*
X002983Y003198D01*
X002835Y003132D02*
X002568Y002865D01*
X002635Y002798D01*
X002769Y002798D01*
X002835Y002865D01*
X002835Y003132D01*
X002769Y003198D01*
X002635Y003198D01*
X002568Y003132D01*
X002568Y002865D01*
X002421Y002798D02*
X002154Y002798D01*
X002287Y002798D02*
X002287Y003198D01*
X002154Y003065D01*
X002983Y002932D02*
X003183Y003065D01*
X002983Y002932D02*
X003183Y002798D01*
X004372Y003646D02*
X000238Y003646D01*
X000238Y004827D01*
X001025Y004827D01*
X001025Y006008D01*
X000238Y006008D01*
X000238Y007189D01*
X004372Y007189D01*
X004372Y005496D01*
X005238Y005496D01*
X005238Y005339D01*
X004411Y005339D01*
X004372Y005496D02*
X004372Y003646D01*
X008819Y003586D02*
X008819Y003453D01*
X008886Y003386D01*
X009153Y003386D01*
X008886Y003653D01*
X009153Y003653D01*
X009220Y003586D01*
X009220Y003453D01*
X009153Y003386D01*
X009220Y003238D02*
X009220Y002972D01*
X008953Y002972D02*
X008819Y003105D01*
X009220Y003105D01*
X008819Y003586D02*
X008886Y003653D01*
X008819Y003800D02*
X009220Y003800D01*
X009086Y003800D02*
X008953Y004000D01*
X009086Y003800D02*
X009220Y004000D01*
X001541Y005418D02*
X001543Y005483D01*
X001549Y005547D01*
X001559Y005611D01*
X001572Y005674D01*
X001590Y005736D01*
X001611Y005797D01*
X001636Y005857D01*
X001665Y005915D01*
X001697Y005971D01*
X001732Y006025D01*
X001771Y006076D01*
X001812Y006126D01*
X001857Y006173D01*
X001904Y006216D01*
X001954Y006257D01*
X002007Y006295D01*
X002061Y006330D01*
X002118Y006361D01*
X002176Y006388D01*
X002236Y006413D01*
X002297Y006433D01*
X002360Y006449D01*
X002423Y006462D01*
X002487Y006471D01*
X002552Y006476D01*
X002616Y006477D01*
X002681Y006474D01*
X002745Y006467D01*
X002809Y006456D01*
X002871Y006442D01*
X002933Y006423D01*
X002994Y006401D01*
X003053Y006375D01*
X003111Y006346D01*
X003166Y006313D01*
X003220Y006277D01*
X003271Y006237D01*
X003320Y006195D01*
X003366Y006150D01*
X003409Y006101D01*
X003449Y006051D01*
X003486Y005998D01*
X003520Y005943D01*
X003550Y005886D01*
X003577Y005827D01*
X003600Y005767D01*
X003619Y005705D01*
X003635Y005642D01*
X003647Y005579D01*
X003655Y005515D01*
X003659Y005450D01*
X003659Y005386D01*
X003655Y005321D01*
X003647Y005257D01*
X003635Y005194D01*
X003619Y005131D01*
X003600Y005069D01*
X003577Y005009D01*
X003550Y004950D01*
X003520Y004893D01*
X003486Y004838D01*
X003449Y004785D01*
X003409Y004735D01*
X003366Y004686D01*
X003320Y004641D01*
X003271Y004599D01*
X003220Y004559D01*
X003166Y004523D01*
X003111Y004490D01*
X003053Y004461D01*
X002994Y004435D01*
X002933Y004413D01*
X002871Y004394D01*
X002809Y004380D01*
X002745Y004369D01*
X002681Y004362D01*
X002616Y004359D01*
X002552Y004360D01*
X002487Y004365D01*
X002423Y004374D01*
X002360Y004387D01*
X002297Y004403D01*
X002236Y004423D01*
X002176Y004448D01*
X002118Y004475D01*
X002061Y004506D01*
X002007Y004541D01*
X001954Y004579D01*
X001904Y004620D01*
X001857Y004663D01*
X001812Y004710D01*
X001771Y004760D01*
X001732Y004811D01*
X001697Y004865D01*
X001665Y004921D01*
X001636Y004979D01*
X001611Y005039D01*
X001590Y005100D01*
X001572Y005162D01*
X001559Y005225D01*
X001549Y005289D01*
X001543Y005353D01*
X001541Y005418D01*
X001355Y005418D02*
X001357Y005488D01*
X001363Y005559D01*
X001373Y005628D01*
X001387Y005697D01*
X001405Y005766D01*
X001426Y005833D01*
X001451Y005899D01*
X001480Y005963D01*
X001513Y006025D01*
X001549Y006086D01*
X001589Y006144D01*
X001631Y006200D01*
X001677Y006254D01*
X001726Y006305D01*
X001777Y006353D01*
X001832Y006398D01*
X001888Y006440D01*
X001947Y006478D01*
X002008Y006513D01*
X002071Y006545D01*
X002136Y006573D01*
X002202Y006598D01*
X002269Y006618D01*
X002338Y006635D01*
X002407Y006648D01*
X002477Y006657D01*
X002547Y006662D01*
X002618Y006663D01*
X002688Y006660D01*
X002758Y006653D01*
X002828Y006642D01*
X002897Y006627D01*
X002965Y006608D01*
X003031Y006586D01*
X003097Y006560D01*
X003161Y006530D01*
X003223Y006496D01*
X003283Y006459D01*
X003340Y006419D01*
X003396Y006375D01*
X003449Y006329D01*
X003499Y006279D01*
X003546Y006227D01*
X003590Y006172D01*
X003631Y006115D01*
X003669Y006056D01*
X003704Y005994D01*
X003734Y005931D01*
X003762Y005866D01*
X003785Y005799D01*
X003805Y005732D01*
X003821Y005663D01*
X003833Y005594D01*
X003841Y005524D01*
X003845Y005453D01*
X003845Y005383D01*
X003841Y005312D01*
X003833Y005242D01*
X003821Y005173D01*
X003805Y005104D01*
X003785Y005037D01*
X003762Y004970D01*
X003734Y004905D01*
X003704Y004842D01*
X003669Y004780D01*
X003631Y004721D01*
X003590Y004664D01*
X003546Y004609D01*
X003499Y004557D01*
X003449Y004507D01*
X003396Y004461D01*
X003340Y004417D01*
X003283Y004377D01*
X003222Y004340D01*
X003161Y004306D01*
X003097Y004276D01*
X003031Y004250D01*
X002965Y004228D01*
X002897Y004209D01*
X002828Y004194D01*
X002758Y004183D01*
X002688Y004176D01*
X002618Y004173D01*
X002547Y004174D01*
X002477Y004179D01*
X002407Y004188D01*
X002338Y004201D01*
X002269Y004218D01*
X002202Y004238D01*
X002136Y004263D01*
X002071Y004291D01*
X002008Y004323D01*
X001947Y004358D01*
X001888Y004396D01*
X001832Y004438D01*
X001777Y004483D01*
X001726Y004531D01*
X001677Y004582D01*
X001631Y004636D01*
X001589Y004692D01*
X001549Y004750D01*
X001513Y004811D01*
X001480Y004873D01*
X001451Y004937D01*
X001426Y005003D01*
X001405Y005070D01*
X001387Y005139D01*
X001373Y005208D01*
X001363Y005277D01*
X001357Y005348D01*
X001355Y005418D01*
X000238Y004827D02*
X000238Y006008D01*
X002568Y007298D02*
X002835Y007298D01*
X002702Y007298D02*
X002702Y007698D01*
X002568Y007565D01*
X002983Y007432D02*
X003183Y007565D01*
X002983Y007432D02*
X003183Y007298D01*
X002983Y007298D02*
X002983Y007698D01*
X025904Y007565D02*
X026037Y007698D01*
X026037Y007298D01*
X025904Y007298D02*
X026171Y007298D01*
X026318Y007365D02*
X026585Y007632D01*
X026585Y007365D01*
X026519Y007298D01*
X026385Y007298D01*
X026318Y007365D01*
X026318Y007632D01*
X026385Y007698D01*
X026519Y007698D01*
X026585Y007632D01*
X026733Y007698D02*
X026733Y007298D01*
X026733Y007432D02*
X026933Y007298D01*
X026733Y007432D02*
X026933Y007565D01*
X026733Y006698D02*
X026733Y006298D01*
X026733Y006432D02*
X026933Y006298D01*
X026733Y006432D02*
X026933Y006565D01*
X026585Y006632D02*
X026519Y006698D01*
X026385Y006698D01*
X026318Y006632D01*
X026318Y006365D01*
X026585Y006632D01*
X026585Y006365D01*
X026519Y006298D01*
X026385Y006298D01*
X026318Y006365D01*
X026171Y006298D02*
X025904Y006298D01*
X026037Y006298D02*
X026037Y006698D01*
X025904Y006565D01*
X032904Y002815D02*
X033037Y002948D01*
X033037Y002548D01*
X032904Y002548D02*
X033171Y002548D01*
X033318Y002615D02*
X033385Y002548D01*
X033519Y002548D01*
X033585Y002615D01*
X033585Y002882D01*
X033318Y002615D01*
X033318Y002882D01*
X033385Y002948D01*
X033519Y002948D01*
X033585Y002882D01*
X033733Y002948D02*
X033733Y002548D01*
X033733Y002682D02*
X033933Y002548D01*
X033733Y002682D02*
X033933Y002815D01*
X033733Y001948D02*
X033733Y001548D01*
X033733Y001682D02*
X033933Y001548D01*
X033585Y001615D02*
X033519Y001548D01*
X033385Y001548D01*
X033318Y001615D01*
X033585Y001882D01*
X033585Y001615D01*
X033733Y001682D02*
X033933Y001815D01*
X033585Y001882D02*
X033519Y001948D01*
X033385Y001948D01*
X033318Y001882D01*
X033318Y001615D01*
X033171Y001548D02*
X032904Y001548D01*
X033037Y001548D02*
X033037Y001948D01*
X032904Y001815D01*
D12*
X033850Y001468D02*
X034000Y001468D01*
X034017Y001470D01*
X034034Y001474D01*
X034050Y001481D01*
X034064Y001491D01*
X034077Y001504D01*
X034087Y001518D01*
X034094Y001534D01*
X034098Y001551D01*
X034100Y001568D01*
X031850Y001468D02*
X031700Y001468D01*
X031683Y001470D01*
X031666Y001474D01*
X031650Y001481D01*
X031636Y001491D01*
X031623Y001504D01*
X031613Y001518D01*
X031606Y001534D01*
X031602Y001551D01*
X031600Y001568D01*
X031600Y002268D02*
X031602Y002285D01*
X031606Y002302D01*
X031613Y002318D01*
X031623Y002332D01*
X031636Y002345D01*
X031650Y002355D01*
X031666Y002362D01*
X031683Y002366D01*
X031700Y002368D01*
X031850Y002368D01*
X031850Y002468D02*
X031700Y002468D01*
X031683Y002470D01*
X031666Y002474D01*
X031650Y002481D01*
X031636Y002491D01*
X031623Y002504D01*
X031613Y002518D01*
X031606Y002534D01*
X031602Y002551D01*
X031600Y002568D01*
X033850Y002468D02*
X034000Y002468D01*
X034017Y002470D01*
X034034Y002474D01*
X034050Y002481D01*
X034064Y002491D01*
X034077Y002504D01*
X034087Y002518D01*
X034094Y002534D01*
X034098Y002551D01*
X034100Y002568D01*
X034000Y002368D02*
X033850Y002368D01*
X034000Y002368D02*
X034017Y002366D01*
X034034Y002362D01*
X034050Y002355D01*
X034064Y002345D01*
X034077Y002332D01*
X034087Y002318D01*
X034094Y002302D01*
X034098Y002285D01*
X034100Y002268D01*
X034100Y003268D02*
X034098Y003285D01*
X034094Y003302D01*
X034087Y003318D01*
X034077Y003332D01*
X034064Y003345D01*
X034050Y003355D01*
X034034Y003362D01*
X034017Y003366D01*
X034000Y003368D01*
X033850Y003368D01*
X031850Y003368D02*
X031700Y003368D01*
X031683Y003366D01*
X031666Y003362D01*
X031650Y003355D01*
X031636Y003345D01*
X031623Y003332D01*
X031613Y003318D01*
X031606Y003302D01*
X031602Y003285D01*
X031600Y003268D01*
X027000Y006218D02*
X026850Y006218D01*
X027000Y006218D02*
X027017Y006220D01*
X027034Y006224D01*
X027050Y006231D01*
X027064Y006241D01*
X027077Y006254D01*
X027087Y006268D01*
X027094Y006284D01*
X027098Y006301D01*
X027100Y006318D01*
X024850Y006218D02*
X024700Y006218D01*
X024683Y006220D01*
X024666Y006224D01*
X024650Y006231D01*
X024636Y006241D01*
X024623Y006254D01*
X024613Y006268D01*
X024606Y006284D01*
X024602Y006301D01*
X024600Y006318D01*
X024600Y007018D02*
X024602Y007035D01*
X024606Y007052D01*
X024613Y007068D01*
X024623Y007082D01*
X024636Y007095D01*
X024650Y007105D01*
X024666Y007112D01*
X024683Y007116D01*
X024700Y007118D01*
X024850Y007118D01*
X024850Y007218D02*
X024700Y007218D01*
X024683Y007220D01*
X024666Y007224D01*
X024650Y007231D01*
X024636Y007241D01*
X024623Y007254D01*
X024613Y007268D01*
X024606Y007284D01*
X024602Y007301D01*
X024600Y007318D01*
X026850Y007218D02*
X027000Y007218D01*
X027017Y007220D01*
X027034Y007224D01*
X027050Y007231D01*
X027064Y007241D01*
X027077Y007254D01*
X027087Y007268D01*
X027094Y007284D01*
X027098Y007301D01*
X027100Y007318D01*
X027000Y007118D02*
X026850Y007118D01*
X027000Y007118D02*
X027017Y007116D01*
X027034Y007112D01*
X027050Y007105D01*
X027064Y007095D01*
X027077Y007082D01*
X027087Y007068D01*
X027094Y007052D01*
X027098Y007035D01*
X027100Y007018D01*
X027100Y008018D02*
X027098Y008035D01*
X027094Y008052D01*
X027087Y008068D01*
X027077Y008082D01*
X027064Y008095D01*
X027050Y008105D01*
X027034Y008112D01*
X027017Y008116D01*
X027000Y008118D01*
X026850Y008118D01*
X024850Y008118D02*
X024700Y008118D01*
X024683Y008116D01*
X024666Y008112D01*
X024650Y008105D01*
X024636Y008095D01*
X024623Y008082D01*
X024613Y008068D01*
X024606Y008052D01*
X024602Y008035D01*
X024600Y008018D01*
X016037Y007918D02*
X016035Y007944D01*
X016030Y007970D01*
X016022Y007995D01*
X016010Y008018D01*
X015996Y008040D01*
X015978Y008059D01*
X015959Y008077D01*
X015937Y008091D01*
X015914Y008103D01*
X015889Y008111D01*
X015863Y008116D01*
X015837Y008118D01*
X015367Y008124D02*
X015341Y008122D01*
X015315Y008117D01*
X015290Y008109D01*
X015267Y008097D01*
X015245Y008083D01*
X015226Y008065D01*
X015208Y008046D01*
X015194Y008024D01*
X015182Y008001D01*
X015174Y007976D01*
X015169Y007950D01*
X015167Y007924D01*
X015037Y007918D02*
X015035Y007944D01*
X015030Y007970D01*
X015022Y007995D01*
X015010Y008018D01*
X014996Y008040D01*
X014978Y008059D01*
X014959Y008077D01*
X014937Y008091D01*
X014914Y008103D01*
X014889Y008111D01*
X014863Y008116D01*
X014837Y008118D01*
X014367Y008124D02*
X014341Y008122D01*
X014315Y008117D01*
X014290Y008109D01*
X014267Y008097D01*
X014245Y008083D01*
X014226Y008065D01*
X014208Y008046D01*
X014194Y008024D01*
X014182Y008001D01*
X014174Y007976D01*
X014169Y007950D01*
X014167Y007924D01*
X014157Y005922D02*
X014159Y005896D01*
X014164Y005870D01*
X014172Y005845D01*
X014184Y005822D01*
X014198Y005800D01*
X014216Y005781D01*
X014235Y005763D01*
X014257Y005749D01*
X014280Y005737D01*
X014305Y005729D01*
X014331Y005724D01*
X014357Y005722D01*
X014830Y005707D02*
X014856Y005709D01*
X014882Y005714D01*
X014907Y005722D01*
X014930Y005734D01*
X014952Y005748D01*
X014971Y005766D01*
X014989Y005785D01*
X015003Y005807D01*
X015015Y005830D01*
X015023Y005855D01*
X015028Y005881D01*
X015030Y005907D01*
X015157Y005922D02*
X015159Y005896D01*
X015164Y005870D01*
X015172Y005845D01*
X015184Y005822D01*
X015198Y005800D01*
X015216Y005781D01*
X015235Y005763D01*
X015257Y005749D01*
X015280Y005737D01*
X015305Y005729D01*
X015331Y005724D01*
X015357Y005722D01*
X015830Y005707D02*
X015856Y005709D01*
X015882Y005714D01*
X015907Y005722D01*
X015930Y005734D01*
X015952Y005748D01*
X015971Y005766D01*
X015989Y005785D01*
X016003Y005807D01*
X016015Y005830D01*
X016023Y005855D01*
X016028Y005881D01*
X016030Y005907D01*
X009300Y004068D02*
X009300Y003918D01*
X009300Y004068D02*
X009298Y004085D01*
X009294Y004102D01*
X009287Y004118D01*
X009277Y004132D01*
X009264Y004145D01*
X009250Y004155D01*
X009234Y004162D01*
X009217Y004166D01*
X009200Y004168D01*
X008500Y004168D02*
X008483Y004166D01*
X008466Y004162D01*
X008450Y004155D01*
X008436Y004145D01*
X008423Y004132D01*
X008413Y004118D01*
X008406Y004102D01*
X008402Y004085D01*
X008400Y004068D01*
X008400Y003918D01*
X008350Y004068D02*
X008350Y003318D01*
X008311Y003316D01*
X008272Y003310D01*
X008234Y003301D01*
X008197Y003288D01*
X008161Y003271D01*
X008128Y003251D01*
X008096Y003227D01*
X008067Y003201D01*
X008041Y003172D01*
X008017Y003140D01*
X007997Y003107D01*
X007980Y003071D01*
X007967Y003034D01*
X007958Y002996D01*
X007952Y002957D01*
X007950Y002918D01*
X007952Y002879D01*
X007958Y002840D01*
X007967Y002802D01*
X007980Y002765D01*
X007997Y002729D01*
X008017Y002696D01*
X008041Y002664D01*
X008067Y002635D01*
X008096Y002609D01*
X008128Y002585D01*
X008161Y002565D01*
X008197Y002548D01*
X008234Y002535D01*
X008272Y002526D01*
X008311Y002520D01*
X008350Y002518D01*
X008350Y001768D01*
X004350Y001768D01*
X004350Y004068D01*
X008350Y004068D01*
X003250Y003618D02*
X003100Y003618D01*
X003250Y003618D02*
X003267Y003616D01*
X003284Y003612D01*
X003300Y003605D01*
X003314Y003595D01*
X003327Y003582D01*
X003337Y003568D01*
X003344Y003552D01*
X003348Y003535D01*
X003350Y003518D01*
X001100Y003618D02*
X000950Y003618D01*
X000933Y003616D01*
X000916Y003612D01*
X000900Y003605D01*
X000886Y003595D01*
X000873Y003582D01*
X000863Y003568D01*
X000856Y003552D01*
X000852Y003535D01*
X000850Y003518D01*
X000850Y002818D02*
X000852Y002801D01*
X000856Y002784D01*
X000863Y002768D01*
X000873Y002754D01*
X000886Y002741D01*
X000900Y002731D01*
X000916Y002724D01*
X000933Y002720D01*
X000950Y002718D01*
X001100Y002718D01*
X001100Y002618D02*
X000950Y002618D01*
X000933Y002616D01*
X000916Y002612D01*
X000900Y002605D01*
X000886Y002595D01*
X000873Y002582D01*
X000863Y002568D01*
X000856Y002552D01*
X000852Y002535D01*
X000850Y002518D01*
X003100Y002618D02*
X003250Y002618D01*
X003250Y002718D02*
X003100Y002718D01*
X003250Y002718D02*
X003267Y002720D01*
X003284Y002724D01*
X003300Y002731D01*
X003314Y002741D01*
X003327Y002754D01*
X003337Y002768D01*
X003344Y002784D01*
X003348Y002801D01*
X003350Y002818D01*
X003250Y002618D02*
X003267Y002616D01*
X003284Y002612D01*
X003300Y002605D01*
X003314Y002595D01*
X003327Y002582D01*
X003337Y002568D01*
X003344Y002552D01*
X003348Y002535D01*
X003350Y002518D01*
X003350Y001818D02*
X003348Y001801D01*
X003344Y001784D01*
X003337Y001768D01*
X003327Y001754D01*
X003314Y001741D01*
X003300Y001731D01*
X003284Y001724D01*
X003267Y001720D01*
X003250Y001718D01*
X003100Y001718D01*
X003100Y001618D02*
X003250Y001618D01*
X003267Y001616D01*
X003284Y001612D01*
X003300Y001605D01*
X003314Y001595D01*
X003327Y001582D01*
X003337Y001568D01*
X003344Y001552D01*
X003348Y001535D01*
X003350Y001518D01*
X001100Y001618D02*
X000950Y001618D01*
X000950Y001718D02*
X001100Y001718D01*
X000950Y001718D02*
X000933Y001720D01*
X000916Y001724D01*
X000900Y001731D01*
X000886Y001741D01*
X000873Y001754D01*
X000863Y001768D01*
X000856Y001784D01*
X000852Y001801D01*
X000850Y001818D01*
X000950Y001618D02*
X000933Y001616D01*
X000916Y001612D01*
X000900Y001605D01*
X000886Y001595D01*
X000873Y001582D01*
X000863Y001568D01*
X000856Y001552D01*
X000852Y001535D01*
X000850Y001518D01*
X000850Y000818D02*
X000852Y000801D01*
X000856Y000784D01*
X000863Y000768D01*
X000873Y000754D01*
X000886Y000741D01*
X000900Y000731D01*
X000916Y000724D01*
X000933Y000720D01*
X000950Y000718D01*
X001100Y000718D01*
X003100Y000718D02*
X003250Y000718D01*
X003267Y000720D01*
X003284Y000724D01*
X003300Y000731D01*
X003314Y000741D01*
X003327Y000754D01*
X003337Y000768D01*
X003344Y000784D01*
X003348Y000801D01*
X003350Y000818D01*
X008400Y001768D02*
X008400Y001918D01*
X008400Y001768D02*
X008402Y001751D01*
X008406Y001734D01*
X008413Y001718D01*
X008423Y001704D01*
X008436Y001691D01*
X008450Y001681D01*
X008466Y001674D01*
X008483Y001670D01*
X008500Y001668D01*
X009200Y001668D02*
X009217Y001670D01*
X009234Y001674D01*
X009250Y001681D01*
X009264Y001691D01*
X009277Y001704D01*
X009287Y001718D01*
X009294Y001734D01*
X009298Y001751D01*
X009300Y001768D01*
X009300Y001918D01*
X003250Y007218D02*
X003100Y007218D01*
X003250Y007218D02*
X003267Y007220D01*
X003284Y007224D01*
X003300Y007231D01*
X003314Y007241D01*
X003327Y007254D01*
X003337Y007268D01*
X003344Y007284D01*
X003348Y007301D01*
X003350Y007318D01*
X001100Y007218D02*
X000950Y007218D01*
X000933Y007220D01*
X000916Y007224D01*
X000900Y007231D01*
X000886Y007241D01*
X000873Y007254D01*
X000863Y007268D01*
X000856Y007284D01*
X000852Y007301D01*
X000850Y007318D01*
X000850Y008018D02*
X000852Y008035D01*
X000856Y008052D01*
X000863Y008068D01*
X000873Y008082D01*
X000886Y008095D01*
X000900Y008105D01*
X000916Y008112D01*
X000933Y008116D01*
X000950Y008118D01*
X001100Y008118D01*
X003100Y008118D02*
X003250Y008118D01*
X003267Y008116D01*
X003284Y008112D01*
X003300Y008105D01*
X003314Y008095D01*
X003327Y008082D01*
X003337Y008068D01*
X003344Y008052D01*
X003348Y008035D01*
X003350Y008018D01*
D13*
X002018Y008047D02*
X001811Y007841D01*
X001863Y007789D01*
X001967Y007789D01*
X002018Y007841D01*
X002018Y008047D01*
X001967Y008099D01*
X001863Y008099D01*
X001811Y008047D01*
X001811Y007841D01*
X001696Y007789D02*
X001489Y007789D01*
X001593Y007789D02*
X001593Y008099D01*
X001489Y007996D01*
X001374Y008047D02*
X001374Y007944D01*
X001322Y007892D01*
X001167Y007892D01*
X001167Y007789D02*
X001167Y008099D01*
X001322Y008099D01*
X001374Y008047D01*
X001270Y007892D02*
X001374Y007789D01*
X014101Y006707D02*
X014221Y006587D01*
X014101Y006707D02*
X014461Y006707D01*
X014461Y006587D02*
X014461Y006827D01*
X014622Y006761D02*
X014683Y006821D01*
X014923Y006580D01*
X014983Y006641D01*
X014983Y006761D01*
X014923Y006821D01*
X014683Y006821D01*
X014622Y006761D02*
X014622Y006641D01*
X014683Y006580D01*
X014923Y006580D01*
X015101Y006647D02*
X015161Y006587D01*
X015101Y006647D02*
X015101Y006767D01*
X015161Y006827D01*
X015221Y006827D01*
X015461Y006587D01*
X015461Y006827D01*
X015622Y006761D02*
X015683Y006821D01*
X015923Y006580D01*
X015983Y006641D01*
X015983Y006761D01*
X015923Y006821D01*
X015683Y006821D01*
X015622Y006761D02*
X015622Y006641D01*
X015683Y006580D01*
X015923Y006580D01*
X015983Y006452D02*
X015983Y006212D01*
X015983Y006332D02*
X015622Y006332D01*
X015743Y006212D01*
X015461Y006279D02*
X015461Y006399D01*
X015401Y006459D01*
X015161Y006459D02*
X015101Y006399D01*
X015101Y006279D01*
X015161Y006219D01*
X015401Y006219D01*
X015461Y006279D01*
X014983Y006332D02*
X014622Y006332D01*
X014743Y006212D01*
X014983Y006212D02*
X014983Y006452D01*
X014461Y006399D02*
X014401Y006459D01*
X014461Y006399D02*
X014461Y006279D01*
X014401Y006219D01*
X014161Y006219D01*
X014101Y006279D01*
X014101Y006399D01*
X014161Y006459D01*
X014683Y006949D02*
X014622Y007009D01*
X014622Y007129D01*
X014683Y007189D01*
X014923Y006949D01*
X014983Y007009D01*
X014983Y007129D01*
X014923Y007189D01*
X014683Y007189D01*
X014743Y007317D02*
X014743Y007497D01*
X014803Y007557D01*
X014983Y007557D01*
X014983Y007317D02*
X014743Y007317D01*
X015622Y007129D02*
X015683Y007189D01*
X015923Y006949D01*
X015983Y007009D01*
X015983Y007129D01*
X015923Y007189D01*
X015683Y007189D01*
X015622Y007129D02*
X015622Y007009D01*
X015683Y006949D01*
X015923Y006949D01*
X014923Y006949D02*
X014683Y006949D01*
X015743Y007317D02*
X015743Y007497D01*
X015803Y007557D01*
X015983Y007557D01*
X015983Y007317D02*
X015743Y007317D01*
X024917Y007099D02*
X024917Y006789D01*
X024917Y006892D02*
X025072Y006892D01*
X025124Y006944D01*
X025124Y007047D01*
X025072Y007099D01*
X024917Y007099D01*
X025239Y006944D02*
X025394Y006944D01*
X025446Y006892D01*
X025446Y006841D01*
X025394Y006789D01*
X025291Y006789D01*
X025239Y006841D01*
X025239Y006944D01*
X025343Y007047D01*
X025446Y007099D01*
X025124Y006789D02*
X025020Y006892D01*
X024917Y007789D02*
X024917Y008099D01*
X025072Y008099D01*
X025124Y008047D01*
X025124Y007944D01*
X025072Y007892D01*
X024917Y007892D01*
X025020Y007892D02*
X025124Y007789D01*
X025239Y007841D02*
X025291Y007789D01*
X025394Y007789D01*
X025446Y007841D01*
X025446Y007892D01*
X025394Y007944D01*
X025343Y007944D01*
X025394Y007944D02*
X025446Y007996D01*
X025446Y008047D01*
X025394Y008099D01*
X025291Y008099D01*
X025239Y008047D01*
X031917Y003349D02*
X032072Y003349D01*
X032124Y003297D01*
X032124Y003194D01*
X032072Y003142D01*
X031917Y003142D01*
X031917Y003039D02*
X031917Y003349D01*
X032239Y003194D02*
X032446Y003194D01*
X032394Y003349D02*
X032239Y003194D01*
X032124Y003039D02*
X032020Y003142D01*
X032394Y003039D02*
X032394Y003349D01*
X032446Y002349D02*
X032446Y002297D01*
X032239Y002091D01*
X032239Y002039D01*
X032124Y002039D02*
X032020Y002142D01*
X032072Y002142D02*
X031917Y002142D01*
X031917Y002039D02*
X031917Y002349D01*
X032072Y002349D01*
X032124Y002297D01*
X032124Y002194D01*
X032072Y002142D01*
X032239Y002349D02*
X032446Y002349D01*
X008729Y002307D02*
X008522Y002514D01*
X008470Y002514D01*
X008419Y002462D01*
X008419Y002359D01*
X008470Y002307D01*
X008470Y002191D02*
X008574Y002191D01*
X008625Y002140D01*
X008625Y001985D01*
X008625Y002088D02*
X008729Y002191D01*
X008729Y002307D02*
X008729Y002514D01*
X008470Y002191D02*
X008419Y002140D01*
X008419Y001985D01*
X008729Y001985D01*
X001696Y002341D02*
X001644Y002289D01*
X001541Y002289D01*
X001489Y002341D01*
X001489Y002392D01*
X001541Y002444D01*
X001644Y002444D01*
X001696Y002392D01*
X001696Y002341D01*
X001644Y002444D02*
X001696Y002496D01*
X001696Y002547D01*
X001644Y002599D01*
X001541Y002599D01*
X001489Y002547D01*
X001489Y002496D01*
X001541Y002444D01*
X001374Y002444D02*
X001322Y002392D01*
X001167Y002392D01*
X001167Y002289D02*
X001167Y002599D01*
X001322Y002599D01*
X001374Y002547D01*
X001374Y002444D01*
X001270Y002392D02*
X001374Y002289D01*
X001322Y001599D02*
X001167Y001599D01*
X001167Y001289D01*
X001167Y001392D02*
X001322Y001392D01*
X001374Y001444D01*
X001374Y001547D01*
X001322Y001599D01*
X001489Y001599D02*
X001489Y001444D01*
X001593Y001496D01*
X001644Y001496D01*
X001696Y001444D01*
X001696Y001341D01*
X001644Y001289D01*
X001541Y001289D01*
X001489Y001341D01*
X001374Y001289D02*
X001270Y001392D01*
X001489Y001599D02*
X001696Y001599D01*
X001696Y003289D02*
X001489Y003289D01*
X001593Y003289D02*
X001593Y003599D01*
X001489Y003496D01*
X001374Y003547D02*
X001374Y003444D01*
X001322Y003392D01*
X001167Y003392D01*
X001167Y003289D02*
X001167Y003599D01*
X001322Y003599D01*
X001374Y003547D01*
X001270Y003392D02*
X001374Y003289D01*
D14*
X010277Y004682D02*
X010277Y001453D01*
X010494Y001453D01*
X010494Y001237D01*
X011754Y001237D01*
X013643Y001237D02*
X014509Y001237D01*
X014509Y001453D01*
X014726Y001453D01*
X014726Y004682D01*
X014509Y004682D01*
X014509Y004898D01*
X013643Y004898D01*
X011754Y004898D02*
X010494Y004898D01*
X010494Y004682D01*
X010277Y004682D01*
X017027Y004353D02*
X017244Y004353D01*
X017244Y004137D01*
X018504Y004137D01*
X017027Y004353D02*
X017027Y007582D01*
X017244Y007582D01*
X017244Y007798D01*
X018504Y007798D01*
X020393Y007798D02*
X021259Y007798D01*
X021259Y007582D01*
X021476Y007582D01*
X021476Y004353D01*
X021259Y004353D01*
X021259Y004137D01*
X020393Y004137D01*
X023777Y004682D02*
X023994Y004682D01*
X023994Y004898D01*
X025254Y004898D01*
X023777Y004682D02*
X023777Y001453D01*
X023994Y001453D01*
X023994Y001237D01*
X025254Y001237D01*
X027143Y001237D02*
X028009Y001237D01*
X028009Y001453D01*
X028226Y001453D01*
X028226Y004682D01*
X028009Y004682D01*
X028009Y004898D01*
X027143Y004898D01*
X030527Y004353D02*
X030744Y004353D01*
X030744Y004137D01*
X032004Y004137D01*
X030527Y004353D02*
X030527Y007582D01*
X030744Y007582D01*
X030744Y007798D01*
X032004Y007798D01*
X033893Y007798D02*
X034759Y007798D01*
X034759Y007582D01*
X034976Y007582D01*
X034976Y004353D01*
X034759Y004353D01*
X034759Y004137D01*
X033893Y004137D01*
X037277Y004682D02*
X037494Y004682D01*
X037494Y004898D01*
X038754Y004898D01*
X037277Y004682D02*
X037277Y001453D01*
X037494Y001453D01*
X037494Y001237D01*
X038754Y001237D01*
X040643Y001237D02*
X041509Y001237D01*
X041509Y001453D01*
X041726Y001453D01*
X041726Y004682D01*
X041509Y004682D01*
X041509Y004898D01*
X040643Y004898D01*
D15*
X032450Y005968D02*
X032452Y006008D01*
X032458Y006047D01*
X032468Y006086D01*
X032481Y006123D01*
X032499Y006159D01*
X032520Y006193D01*
X032544Y006225D01*
X032571Y006254D01*
X032601Y006281D01*
X032633Y006304D01*
X032668Y006324D01*
X032704Y006340D01*
X032742Y006353D01*
X032781Y006362D01*
X032820Y006367D01*
X032860Y006368D01*
X032900Y006365D01*
X032939Y006358D01*
X032977Y006347D01*
X033015Y006333D01*
X033050Y006314D01*
X033083Y006293D01*
X033115Y006268D01*
X033143Y006240D01*
X033169Y006210D01*
X033191Y006177D01*
X033210Y006142D01*
X033226Y006105D01*
X033238Y006067D01*
X033246Y006028D01*
X033250Y005988D01*
X033250Y005948D01*
X033246Y005908D01*
X033238Y005869D01*
X033226Y005831D01*
X033210Y005794D01*
X033191Y005759D01*
X033169Y005726D01*
X033143Y005696D01*
X033115Y005668D01*
X033083Y005643D01*
X033050Y005622D01*
X033015Y005603D01*
X032977Y005589D01*
X032939Y005578D01*
X032900Y005571D01*
X032860Y005568D01*
X032820Y005569D01*
X032781Y005574D01*
X032742Y005583D01*
X032704Y005596D01*
X032668Y005612D01*
X032633Y005632D01*
X032601Y005655D01*
X032571Y005682D01*
X032544Y005711D01*
X032520Y005743D01*
X032499Y005777D01*
X032481Y005813D01*
X032468Y005850D01*
X032458Y005889D01*
X032452Y005928D01*
X032450Y005968D01*
X032300Y005968D02*
X032302Y006015D01*
X032308Y006061D01*
X032318Y006107D01*
X032331Y006151D01*
X032349Y006195D01*
X032370Y006236D01*
X032394Y006276D01*
X032422Y006314D01*
X032453Y006349D01*
X032487Y006381D01*
X032523Y006410D01*
X032562Y006436D01*
X032602Y006459D01*
X032645Y006478D01*
X032689Y006494D01*
X032734Y006506D01*
X032780Y006514D01*
X032827Y006518D01*
X032873Y006518D01*
X032920Y006514D01*
X032966Y006506D01*
X033011Y006494D01*
X033055Y006478D01*
X033098Y006459D01*
X033138Y006436D01*
X033177Y006410D01*
X033213Y006381D01*
X033247Y006349D01*
X033278Y006314D01*
X033306Y006276D01*
X033330Y006236D01*
X033351Y006195D01*
X033369Y006151D01*
X033382Y006107D01*
X033392Y006061D01*
X033398Y006015D01*
X033400Y005968D01*
X033398Y005921D01*
X033392Y005875D01*
X033382Y005829D01*
X033369Y005785D01*
X033351Y005741D01*
X033330Y005700D01*
X033306Y005660D01*
X033278Y005622D01*
X033247Y005587D01*
X033213Y005555D01*
X033177Y005526D01*
X033138Y005500D01*
X033098Y005477D01*
X033055Y005458D01*
X033011Y005442D01*
X032966Y005430D01*
X032920Y005422D01*
X032873Y005418D01*
X032827Y005418D01*
X032780Y005422D01*
X032734Y005430D01*
X032689Y005442D01*
X032645Y005458D01*
X032602Y005477D01*
X032562Y005500D01*
X032523Y005526D01*
X032487Y005555D01*
X032453Y005587D01*
X032422Y005622D01*
X032394Y005660D01*
X032370Y005700D01*
X032349Y005741D01*
X032331Y005785D01*
X032318Y005829D01*
X032308Y005875D01*
X032302Y005921D01*
X032300Y005968D01*
X018950Y005968D02*
X018952Y006008D01*
X018958Y006047D01*
X018968Y006086D01*
X018981Y006123D01*
X018999Y006159D01*
X019020Y006193D01*
X019044Y006225D01*
X019071Y006254D01*
X019101Y006281D01*
X019133Y006304D01*
X019168Y006324D01*
X019204Y006340D01*
X019242Y006353D01*
X019281Y006362D01*
X019320Y006367D01*
X019360Y006368D01*
X019400Y006365D01*
X019439Y006358D01*
X019477Y006347D01*
X019515Y006333D01*
X019550Y006314D01*
X019583Y006293D01*
X019615Y006268D01*
X019643Y006240D01*
X019669Y006210D01*
X019691Y006177D01*
X019710Y006142D01*
X019726Y006105D01*
X019738Y006067D01*
X019746Y006028D01*
X019750Y005988D01*
X019750Y005948D01*
X019746Y005908D01*
X019738Y005869D01*
X019726Y005831D01*
X019710Y005794D01*
X019691Y005759D01*
X019669Y005726D01*
X019643Y005696D01*
X019615Y005668D01*
X019583Y005643D01*
X019550Y005622D01*
X019515Y005603D01*
X019477Y005589D01*
X019439Y005578D01*
X019400Y005571D01*
X019360Y005568D01*
X019320Y005569D01*
X019281Y005574D01*
X019242Y005583D01*
X019204Y005596D01*
X019168Y005612D01*
X019133Y005632D01*
X019101Y005655D01*
X019071Y005682D01*
X019044Y005711D01*
X019020Y005743D01*
X018999Y005777D01*
X018981Y005813D01*
X018968Y005850D01*
X018958Y005889D01*
X018952Y005928D01*
X018950Y005968D01*
X018800Y005968D02*
X018802Y006015D01*
X018808Y006061D01*
X018818Y006107D01*
X018831Y006151D01*
X018849Y006195D01*
X018870Y006236D01*
X018894Y006276D01*
X018922Y006314D01*
X018953Y006349D01*
X018987Y006381D01*
X019023Y006410D01*
X019062Y006436D01*
X019102Y006459D01*
X019145Y006478D01*
X019189Y006494D01*
X019234Y006506D01*
X019280Y006514D01*
X019327Y006518D01*
X019373Y006518D01*
X019420Y006514D01*
X019466Y006506D01*
X019511Y006494D01*
X019555Y006478D01*
X019598Y006459D01*
X019638Y006436D01*
X019677Y006410D01*
X019713Y006381D01*
X019747Y006349D01*
X019778Y006314D01*
X019806Y006276D01*
X019830Y006236D01*
X019851Y006195D01*
X019869Y006151D01*
X019882Y006107D01*
X019892Y006061D01*
X019898Y006015D01*
X019900Y005968D01*
X019898Y005921D01*
X019892Y005875D01*
X019882Y005829D01*
X019869Y005785D01*
X019851Y005741D01*
X019830Y005700D01*
X019806Y005660D01*
X019778Y005622D01*
X019747Y005587D01*
X019713Y005555D01*
X019677Y005526D01*
X019638Y005500D01*
X019598Y005477D01*
X019555Y005458D01*
X019511Y005442D01*
X019466Y005430D01*
X019420Y005422D01*
X019373Y005418D01*
X019327Y005418D01*
X019280Y005422D01*
X019234Y005430D01*
X019189Y005442D01*
X019145Y005458D01*
X019102Y005477D01*
X019062Y005500D01*
X019023Y005526D01*
X018987Y005555D01*
X018953Y005587D01*
X018922Y005622D01*
X018894Y005660D01*
X018870Y005700D01*
X018849Y005741D01*
X018831Y005785D01*
X018818Y005829D01*
X018808Y005875D01*
X018802Y005921D01*
X018800Y005968D01*
X012200Y003068D02*
X012202Y003108D01*
X012208Y003147D01*
X012218Y003186D01*
X012231Y003223D01*
X012249Y003259D01*
X012270Y003293D01*
X012294Y003325D01*
X012321Y003354D01*
X012351Y003381D01*
X012383Y003404D01*
X012418Y003424D01*
X012454Y003440D01*
X012492Y003453D01*
X012531Y003462D01*
X012570Y003467D01*
X012610Y003468D01*
X012650Y003465D01*
X012689Y003458D01*
X012727Y003447D01*
X012765Y003433D01*
X012800Y003414D01*
X012833Y003393D01*
X012865Y003368D01*
X012893Y003340D01*
X012919Y003310D01*
X012941Y003277D01*
X012960Y003242D01*
X012976Y003205D01*
X012988Y003167D01*
X012996Y003128D01*
X013000Y003088D01*
X013000Y003048D01*
X012996Y003008D01*
X012988Y002969D01*
X012976Y002931D01*
X012960Y002894D01*
X012941Y002859D01*
X012919Y002826D01*
X012893Y002796D01*
X012865Y002768D01*
X012833Y002743D01*
X012800Y002722D01*
X012765Y002703D01*
X012727Y002689D01*
X012689Y002678D01*
X012650Y002671D01*
X012610Y002668D01*
X012570Y002669D01*
X012531Y002674D01*
X012492Y002683D01*
X012454Y002696D01*
X012418Y002712D01*
X012383Y002732D01*
X012351Y002755D01*
X012321Y002782D01*
X012294Y002811D01*
X012270Y002843D01*
X012249Y002877D01*
X012231Y002913D01*
X012218Y002950D01*
X012208Y002989D01*
X012202Y003028D01*
X012200Y003068D01*
X012050Y003068D02*
X012052Y003115D01*
X012058Y003161D01*
X012068Y003207D01*
X012081Y003251D01*
X012099Y003295D01*
X012120Y003336D01*
X012144Y003376D01*
X012172Y003414D01*
X012203Y003449D01*
X012237Y003481D01*
X012273Y003510D01*
X012312Y003536D01*
X012352Y003559D01*
X012395Y003578D01*
X012439Y003594D01*
X012484Y003606D01*
X012530Y003614D01*
X012577Y003618D01*
X012623Y003618D01*
X012670Y003614D01*
X012716Y003606D01*
X012761Y003594D01*
X012805Y003578D01*
X012848Y003559D01*
X012888Y003536D01*
X012927Y003510D01*
X012963Y003481D01*
X012997Y003449D01*
X013028Y003414D01*
X013056Y003376D01*
X013080Y003336D01*
X013101Y003295D01*
X013119Y003251D01*
X013132Y003207D01*
X013142Y003161D01*
X013148Y003115D01*
X013150Y003068D01*
X013148Y003021D01*
X013142Y002975D01*
X013132Y002929D01*
X013119Y002885D01*
X013101Y002841D01*
X013080Y002800D01*
X013056Y002760D01*
X013028Y002722D01*
X012997Y002687D01*
X012963Y002655D01*
X012927Y002626D01*
X012888Y002600D01*
X012848Y002577D01*
X012805Y002558D01*
X012761Y002542D01*
X012716Y002530D01*
X012670Y002522D01*
X012623Y002518D01*
X012577Y002518D01*
X012530Y002522D01*
X012484Y002530D01*
X012439Y002542D01*
X012395Y002558D01*
X012352Y002577D01*
X012312Y002600D01*
X012273Y002626D01*
X012237Y002655D01*
X012203Y002687D01*
X012172Y002722D01*
X012144Y002760D01*
X012120Y002800D01*
X012099Y002841D01*
X012081Y002885D01*
X012068Y002929D01*
X012058Y002975D01*
X012052Y003021D01*
X012050Y003068D01*
X025700Y003068D02*
X025702Y003108D01*
X025708Y003147D01*
X025718Y003186D01*
X025731Y003223D01*
X025749Y003259D01*
X025770Y003293D01*
X025794Y003325D01*
X025821Y003354D01*
X025851Y003381D01*
X025883Y003404D01*
X025918Y003424D01*
X025954Y003440D01*
X025992Y003453D01*
X026031Y003462D01*
X026070Y003467D01*
X026110Y003468D01*
X026150Y003465D01*
X026189Y003458D01*
X026227Y003447D01*
X026265Y003433D01*
X026300Y003414D01*
X026333Y003393D01*
X026365Y003368D01*
X026393Y003340D01*
X026419Y003310D01*
X026441Y003277D01*
X026460Y003242D01*
X026476Y003205D01*
X026488Y003167D01*
X026496Y003128D01*
X026500Y003088D01*
X026500Y003048D01*
X026496Y003008D01*
X026488Y002969D01*
X026476Y002931D01*
X026460Y002894D01*
X026441Y002859D01*
X026419Y002826D01*
X026393Y002796D01*
X026365Y002768D01*
X026333Y002743D01*
X026300Y002722D01*
X026265Y002703D01*
X026227Y002689D01*
X026189Y002678D01*
X026150Y002671D01*
X026110Y002668D01*
X026070Y002669D01*
X026031Y002674D01*
X025992Y002683D01*
X025954Y002696D01*
X025918Y002712D01*
X025883Y002732D01*
X025851Y002755D01*
X025821Y002782D01*
X025794Y002811D01*
X025770Y002843D01*
X025749Y002877D01*
X025731Y002913D01*
X025718Y002950D01*
X025708Y002989D01*
X025702Y003028D01*
X025700Y003068D01*
X025550Y003068D02*
X025552Y003115D01*
X025558Y003161D01*
X025568Y003207D01*
X025581Y003251D01*
X025599Y003295D01*
X025620Y003336D01*
X025644Y003376D01*
X025672Y003414D01*
X025703Y003449D01*
X025737Y003481D01*
X025773Y003510D01*
X025812Y003536D01*
X025852Y003559D01*
X025895Y003578D01*
X025939Y003594D01*
X025984Y003606D01*
X026030Y003614D01*
X026077Y003618D01*
X026123Y003618D01*
X026170Y003614D01*
X026216Y003606D01*
X026261Y003594D01*
X026305Y003578D01*
X026348Y003559D01*
X026388Y003536D01*
X026427Y003510D01*
X026463Y003481D01*
X026497Y003449D01*
X026528Y003414D01*
X026556Y003376D01*
X026580Y003336D01*
X026601Y003295D01*
X026619Y003251D01*
X026632Y003207D01*
X026642Y003161D01*
X026648Y003115D01*
X026650Y003068D01*
X026648Y003021D01*
X026642Y002975D01*
X026632Y002929D01*
X026619Y002885D01*
X026601Y002841D01*
X026580Y002800D01*
X026556Y002760D01*
X026528Y002722D01*
X026497Y002687D01*
X026463Y002655D01*
X026427Y002626D01*
X026388Y002600D01*
X026348Y002577D01*
X026305Y002558D01*
X026261Y002542D01*
X026216Y002530D01*
X026170Y002522D01*
X026123Y002518D01*
X026077Y002518D01*
X026030Y002522D01*
X025984Y002530D01*
X025939Y002542D01*
X025895Y002558D01*
X025852Y002577D01*
X025812Y002600D01*
X025773Y002626D01*
X025737Y002655D01*
X025703Y002687D01*
X025672Y002722D01*
X025644Y002760D01*
X025620Y002800D01*
X025599Y002841D01*
X025581Y002885D01*
X025568Y002929D01*
X025558Y002975D01*
X025552Y003021D01*
X025550Y003068D01*
X039200Y003068D02*
X039202Y003108D01*
X039208Y003147D01*
X039218Y003186D01*
X039231Y003223D01*
X039249Y003259D01*
X039270Y003293D01*
X039294Y003325D01*
X039321Y003354D01*
X039351Y003381D01*
X039383Y003404D01*
X039418Y003424D01*
X039454Y003440D01*
X039492Y003453D01*
X039531Y003462D01*
X039570Y003467D01*
X039610Y003468D01*
X039650Y003465D01*
X039689Y003458D01*
X039727Y003447D01*
X039765Y003433D01*
X039800Y003414D01*
X039833Y003393D01*
X039865Y003368D01*
X039893Y003340D01*
X039919Y003310D01*
X039941Y003277D01*
X039960Y003242D01*
X039976Y003205D01*
X039988Y003167D01*
X039996Y003128D01*
X040000Y003088D01*
X040000Y003048D01*
X039996Y003008D01*
X039988Y002969D01*
X039976Y002931D01*
X039960Y002894D01*
X039941Y002859D01*
X039919Y002826D01*
X039893Y002796D01*
X039865Y002768D01*
X039833Y002743D01*
X039800Y002722D01*
X039765Y002703D01*
X039727Y002689D01*
X039689Y002678D01*
X039650Y002671D01*
X039610Y002668D01*
X039570Y002669D01*
X039531Y002674D01*
X039492Y002683D01*
X039454Y002696D01*
X039418Y002712D01*
X039383Y002732D01*
X039351Y002755D01*
X039321Y002782D01*
X039294Y002811D01*
X039270Y002843D01*
X039249Y002877D01*
X039231Y002913D01*
X039218Y002950D01*
X039208Y002989D01*
X039202Y003028D01*
X039200Y003068D01*
X039050Y003068D02*
X039052Y003115D01*
X039058Y003161D01*
X039068Y003207D01*
X039081Y003251D01*
X039099Y003295D01*
X039120Y003336D01*
X039144Y003376D01*
X039172Y003414D01*
X039203Y003449D01*
X039237Y003481D01*
X039273Y003510D01*
X039312Y003536D01*
X039352Y003559D01*
X039395Y003578D01*
X039439Y003594D01*
X039484Y003606D01*
X039530Y003614D01*
X039577Y003618D01*
X039623Y003618D01*
X039670Y003614D01*
X039716Y003606D01*
X039761Y003594D01*
X039805Y003578D01*
X039848Y003559D01*
X039888Y003536D01*
X039927Y003510D01*
X039963Y003481D01*
X039997Y003449D01*
X040028Y003414D01*
X040056Y003376D01*
X040080Y003336D01*
X040101Y003295D01*
X040119Y003251D01*
X040132Y003207D01*
X040142Y003161D01*
X040148Y003115D01*
X040150Y003068D01*
X040148Y003021D01*
X040142Y002975D01*
X040132Y002929D01*
X040119Y002885D01*
X040101Y002841D01*
X040080Y002800D01*
X040056Y002760D01*
X040028Y002722D01*
X039997Y002687D01*
X039963Y002655D01*
X039927Y002626D01*
X039888Y002600D01*
X039848Y002577D01*
X039805Y002558D01*
X039761Y002542D01*
X039716Y002530D01*
X039670Y002522D01*
X039623Y002518D01*
X039577Y002518D01*
X039530Y002522D01*
X039484Y002530D01*
X039439Y002542D01*
X039395Y002558D01*
X039352Y002577D01*
X039312Y002600D01*
X039273Y002626D01*
X039237Y002655D01*
X039203Y002687D01*
X039172Y002722D01*
X039144Y002760D01*
X039120Y002800D01*
X039099Y002841D01*
X039081Y002885D01*
X039068Y002929D01*
X039058Y002975D01*
X039052Y003021D01*
X039050Y003068D01*
D16*
X040615Y003422D02*
X040875Y003422D01*
X041005Y003553D01*
X040875Y003683D01*
X040615Y003683D01*
X040615Y003809D02*
X040615Y004004D01*
X040680Y004069D01*
X040810Y004069D01*
X040875Y004004D01*
X040875Y003809D01*
X041005Y003809D02*
X040615Y003809D01*
X040875Y003939D02*
X041005Y004069D01*
X040940Y004196D02*
X041005Y004261D01*
X041005Y004391D01*
X040940Y004456D01*
X040875Y004456D01*
X040810Y004391D01*
X040810Y004196D01*
X040940Y004196D01*
X040810Y004196D02*
X040680Y004326D01*
X040615Y004456D01*
X034255Y006453D02*
X034125Y006322D01*
X033865Y006322D01*
X034125Y006583D02*
X034255Y006453D01*
X034125Y006583D02*
X033865Y006583D01*
X033865Y006709D02*
X033865Y006904D01*
X033930Y006969D01*
X034060Y006969D01*
X034125Y006904D01*
X034125Y006709D01*
X034255Y006709D02*
X033865Y006709D01*
X034125Y006839D02*
X034255Y006969D01*
X034190Y007096D02*
X034255Y007161D01*
X034255Y007291D01*
X034190Y007356D01*
X034060Y007356D01*
X033995Y007291D01*
X033995Y007226D01*
X034060Y007096D01*
X033865Y007096D01*
X033865Y007356D01*
X020755Y007291D02*
X020755Y007161D01*
X020690Y007096D01*
X020755Y006969D02*
X020625Y006839D01*
X020625Y006904D02*
X020625Y006709D01*
X020625Y006583D02*
X020365Y006583D01*
X020365Y006709D02*
X020365Y006904D01*
X020430Y006969D01*
X020560Y006969D01*
X020625Y006904D01*
X020755Y006709D02*
X020365Y006709D01*
X020625Y006583D02*
X020755Y006453D01*
X020625Y006322D01*
X020365Y006322D01*
X020430Y007096D02*
X020365Y007161D01*
X020365Y007291D01*
X020430Y007356D01*
X020495Y007356D01*
X020560Y007291D01*
X020625Y007356D01*
X020690Y007356D01*
X020755Y007291D01*
X020560Y007291D02*
X020560Y007226D01*
X014005Y004456D02*
X014005Y004196D01*
X013745Y004456D01*
X013680Y004456D01*
X013615Y004391D01*
X013615Y004261D01*
X013680Y004196D01*
X013680Y004069D02*
X013810Y004069D01*
X013875Y004004D01*
X013875Y003809D01*
X013875Y003683D02*
X013615Y003683D01*
X013615Y003809D02*
X013615Y004004D01*
X013680Y004069D01*
X013875Y003939D02*
X014005Y004069D01*
X014005Y003809D02*
X013615Y003809D01*
X013875Y003683D02*
X014005Y003553D01*
X013875Y003422D01*
X013615Y003422D01*
X027115Y003422D02*
X027375Y003422D01*
X027505Y003553D01*
X027375Y003683D01*
X027115Y003683D01*
X027115Y003809D02*
X027115Y004004D01*
X027180Y004069D01*
X027310Y004069D01*
X027375Y004004D01*
X027375Y003809D01*
X027505Y003809D02*
X027115Y003809D01*
X027375Y003939D02*
X027505Y004069D01*
X027310Y004196D02*
X027310Y004456D01*
X027505Y004391D02*
X027115Y004391D01*
X027310Y004196D01*
M02*
