G75*
%MOIN*%
%OFA0B0*%
%FSLAX24Y24*%
%IPPOS*%
%LPD*%
%AMOC8*
5,1,8,0,0,1.08239X$1,22.5*
%
%ADD10C,0.0000*%
%ADD11C,0.0650*%
%ADD12OC8,0.0600*%
%ADD13OC8,0.0480*%
%ADD14C,0.0500*%
%ADD15R,0.0660X0.0660*%
%ADD16OC8,0.0660*%
%ADD17R,0.1227X0.1227*%
%ADD18C,0.0160*%
%ADD19C,0.0240*%
%ADD20C,0.0080*%
D10*
X000100Y000668D02*
X000100Y008345D01*
X041832Y008345D01*
X041832Y000668D01*
X000100Y000668D01*
D11*
X000631Y005418D03*
X003978Y005418D03*
X005159Y005418D03*
D12*
X006350Y006668D03*
X007350Y006668D03*
X008350Y006668D03*
X009350Y006668D03*
X010350Y006668D03*
X011350Y006668D03*
X012350Y006668D03*
X013350Y006668D03*
X013350Y007668D03*
X012350Y007668D03*
X011350Y007668D03*
X010350Y007668D03*
X009350Y007668D03*
X008350Y007668D03*
X007350Y007668D03*
X006350Y007668D03*
X015350Y002418D03*
X016350Y002418D03*
X017350Y002418D03*
X018350Y002418D03*
X019350Y002418D03*
X020350Y002418D03*
X021350Y002418D03*
X022350Y002418D03*
X022350Y001418D03*
X021350Y001418D03*
X020350Y001418D03*
X019350Y001418D03*
X018350Y001418D03*
X017350Y001418D03*
X016350Y001418D03*
X015350Y001418D03*
D13*
X008850Y001418D03*
X003600Y001168D03*
X000600Y001168D03*
X000600Y002168D03*
X003600Y002168D03*
X003600Y003168D03*
X000600Y003168D03*
X008850Y004418D03*
X014600Y005918D03*
X015600Y005918D03*
X024350Y006668D03*
X027350Y006668D03*
X027350Y007668D03*
X024350Y007668D03*
X015600Y007918D03*
X014600Y007918D03*
X003600Y007668D03*
X000600Y007668D03*
X031350Y002918D03*
X034350Y002918D03*
X034350Y001918D03*
X031350Y001918D03*
D14*
X007850Y001668D02*
X007850Y001168D01*
X006850Y001168D02*
X006850Y001668D01*
X005850Y001668D02*
X005850Y001168D01*
X004850Y001168D02*
X004850Y001668D01*
X004850Y004168D02*
X004850Y004668D01*
X005850Y004668D02*
X005850Y004168D01*
X006850Y004168D02*
X006850Y004668D01*
X007850Y004668D02*
X007850Y004168D01*
D15*
X009844Y004052D03*
X016594Y006952D03*
X023344Y004052D03*
X030094Y006952D03*
X036844Y004052D03*
D16*
X036844Y003068D03*
X036844Y002083D03*
X030094Y004983D03*
X030094Y005968D03*
X023344Y003068D03*
X023344Y002083D03*
X016594Y004983D03*
X016594Y005968D03*
X009844Y003068D03*
X009844Y002083D03*
D17*
X012600Y001296D03*
X019350Y004196D03*
X012600Y004839D03*
X019350Y007739D03*
X026100Y004839D03*
X032850Y004196D03*
X039600Y004839D03*
X032850Y007739D03*
X026100Y001296D03*
X039600Y001296D03*
D18*
X032850Y004196D02*
X032850Y007739D01*
X026100Y004839D02*
X026100Y001296D01*
X022350Y001418D02*
X022350Y002418D01*
X021350Y002418D02*
X021350Y002168D01*
X019350Y004168D01*
X019350Y004196D01*
X019350Y007739D01*
X019350Y007918D01*
X015600Y007918D01*
X014600Y007918D01*
X013350Y007668D02*
X013350Y006668D01*
X013350Y005918D01*
X014600Y005918D01*
X014600Y001418D01*
X015100Y000918D01*
X012600Y001296D02*
X012600Y004839D01*
X012600Y006418D01*
X012350Y006668D01*
X012350Y007668D01*
X014350Y007168D02*
X015600Y005918D01*
X015600Y003168D01*
X020350Y002418D02*
X020350Y001418D01*
X021350Y001418D02*
X021350Y002168D01*
X011100Y000918D02*
X011100Y005918D01*
X011600Y006418D02*
X011600Y005418D01*
X011600Y006418D02*
X011350Y006668D01*
X001350Y004918D02*
X001350Y004168D01*
X002850Y002668D01*
X005850Y002668D01*
X005850Y002418D01*
X004850Y001418D01*
X007850Y001418D02*
X008350Y000918D01*
X011100Y000918D01*
X005850Y002668D02*
X005850Y004418D01*
X001350Y004918D02*
X000850Y005418D01*
X000631Y005418D01*
D19*
X008600Y004918D03*
X011600Y005418D03*
X011100Y005918D03*
X011350Y007168D03*
X014350Y007168D03*
X017350Y007418D03*
X022100Y004668D03*
X018100Y003668D03*
X016100Y003918D03*
X014100Y003668D03*
X015100Y003168D03*
X015600Y003168D03*
X013350Y002918D03*
X011850Y002418D03*
X010600Y002668D03*
X010350Y003418D03*
X003100Y003418D03*
X015100Y000918D03*
D20*
X016350Y000918D02*
X016350Y001418D01*
X015850Y001918D02*
X015350Y001418D01*
X016350Y000918D02*
X021600Y000918D01*
X021850Y001168D01*
X021850Y008168D01*
X027350Y008168D01*
X028100Y007418D01*
X028100Y007168D01*
X029850Y007168D01*
X030094Y006952D01*
X029600Y005418D02*
X027350Y007668D01*
X024350Y006668D02*
X024100Y006668D01*
X022100Y004668D01*
X018350Y003418D02*
X018100Y003668D01*
X018350Y003418D02*
X018350Y002418D01*
X017350Y002418D02*
X017350Y007418D01*
X017100Y007418D02*
X017100Y007668D01*
X017850Y007668D01*
X017850Y001918D01*
X018350Y001418D01*
X017350Y001418D02*
X016850Y001918D01*
X016850Y003168D01*
X016100Y003918D01*
X014100Y003668D02*
X013350Y002918D01*
X015100Y003168D02*
X015100Y002668D01*
X015350Y002418D01*
X015850Y001918D02*
X015850Y005668D01*
X016100Y005918D01*
X016100Y006668D01*
X016350Y006918D01*
X016594Y006952D01*
X017100Y007418D02*
X014600Y007418D01*
X014100Y007918D01*
X014100Y008168D01*
X010100Y008168D01*
X009850Y007918D01*
X009850Y007168D01*
X009350Y006668D01*
X010350Y006668D02*
X010600Y006418D01*
X010600Y002668D01*
X009844Y003068D02*
X009600Y002918D01*
X009350Y002668D01*
X009350Y001918D01*
X008850Y001418D01*
X006850Y001418D02*
X006350Y001918D01*
X006350Y004918D01*
X003600Y007668D01*
X006350Y007668D02*
X006850Y007168D01*
X006850Y006168D01*
X008350Y004668D01*
X008350Y004418D01*
X008850Y003918D01*
X009600Y003918D01*
X009844Y004052D01*
X010350Y004418D02*
X010350Y003418D01*
X010350Y004418D02*
X008850Y005918D01*
X008850Y007168D01*
X009350Y007668D01*
X010350Y007668D02*
X010350Y006668D01*
X008600Y006418D02*
X008600Y004918D01*
X005159Y005418D02*
X005100Y005418D01*
X003100Y003418D01*
X001100Y002668D02*
X000600Y003168D01*
X001100Y002668D02*
X001100Y001668D01*
X000600Y001168D01*
X003600Y001168D02*
X003600Y002168D01*
X011850Y002418D02*
X011850Y007168D01*
X011350Y007168D01*
X008600Y006418D02*
X008350Y006668D01*
X019350Y002418D02*
X019350Y001418D01*
X029600Y003668D02*
X031350Y001918D01*
X034350Y001918D02*
X036350Y001918D01*
X036350Y002668D01*
X036600Y002918D01*
X036844Y003068D01*
X029600Y003668D02*
X029600Y005418D01*
M02*
