G75*
%MOIN*%
%OFA0B0*%
%FSLAX25Y25*%
%IPPOS*%
%LPD*%
%AMOC8*
5,1,8,0,0,1.08239X$1,22.5*
%
%ADD10C,0.06496*%
%ADD11OC8,0.06000*%
%ADD12OC8,0.04800*%
%ADD13C,0.05000*%
%ADD14R,0.06600X0.06600*%
%ADD15OC8,0.06600*%
%ADD16R,0.12268X0.12268*%
%ADD17C,0.01600*%
%ADD18C,0.02400*%
%ADD19C,0.02500*%
%ADD20C,0.01000*%
D10*
X0012115Y0059300D03*
X0045580Y0059300D03*
X0057391Y0059300D03*
D11*
X0069300Y0071800D03*
X0079300Y0071800D03*
X0089300Y0071800D03*
X0099300Y0071800D03*
X0109300Y0071800D03*
X0119300Y0071800D03*
X0129300Y0071800D03*
X0139300Y0071800D03*
X0139300Y0081800D03*
X0129300Y0081800D03*
X0119300Y0081800D03*
X0109300Y0081800D03*
X0099300Y0081800D03*
X0089300Y0081800D03*
X0079300Y0081800D03*
X0069300Y0081800D03*
X0159300Y0029300D03*
X0169300Y0029300D03*
X0179300Y0029300D03*
X0189300Y0029300D03*
X0199300Y0029300D03*
X0209300Y0029300D03*
X0219300Y0029300D03*
X0229300Y0029300D03*
X0229300Y0019300D03*
X0219300Y0019300D03*
X0209300Y0019300D03*
X0199300Y0019300D03*
X0189300Y0019300D03*
X0179300Y0019300D03*
X0169300Y0019300D03*
X0159300Y0019300D03*
D12*
X0054300Y0019300D03*
X0041800Y0016800D03*
X0011800Y0016800D03*
X0011800Y0026800D03*
X0041800Y0026800D03*
X0041800Y0036800D03*
X0011800Y0036800D03*
X0054300Y0049300D03*
X0151800Y0064300D03*
X0161800Y0064300D03*
X0161800Y0084300D03*
X0151800Y0084300D03*
X0249300Y0081800D03*
X0279300Y0081800D03*
X0279300Y0071800D03*
X0249300Y0071800D03*
X0319300Y0034300D03*
X0349300Y0034300D03*
X0349300Y0024300D03*
X0319300Y0024300D03*
X0041800Y0081800D03*
X0011800Y0081800D03*
D13*
X0064300Y0051800D02*
X0064300Y0046800D01*
X0074300Y0046800D02*
X0074300Y0051800D01*
X0084300Y0051800D02*
X0084300Y0046800D01*
X0094300Y0046800D02*
X0094300Y0051800D01*
X0094300Y0021800D02*
X0094300Y0016800D01*
X0084300Y0016800D02*
X0084300Y0021800D01*
X0074300Y0021800D02*
X0074300Y0016800D01*
X0064300Y0016800D02*
X0064300Y0021800D01*
D14*
X0104241Y0045643D03*
X0171741Y0074643D03*
X0239241Y0045643D03*
X0306741Y0074643D03*
X0374241Y0045643D03*
D15*
X0374241Y0035800D03*
X0374241Y0025957D03*
X0306741Y0054957D03*
X0306741Y0064800D03*
X0239241Y0035800D03*
X0239241Y0025957D03*
X0171741Y0054957D03*
X0171741Y0064800D03*
X0104241Y0035800D03*
X0104241Y0025957D03*
D16*
X0131800Y0018083D03*
X0199300Y0047083D03*
X0131800Y0053517D03*
X0199300Y0082517D03*
X0266800Y0053517D03*
X0334300Y0047083D03*
X0401800Y0053517D03*
X0334300Y0082517D03*
X0266800Y0018083D03*
X0401800Y0018083D03*
D17*
X0015600Y0015226D02*
X0013974Y0013600D01*
X0039626Y0013600D01*
X0038000Y0015226D01*
X0038000Y0018374D01*
X0040226Y0020600D01*
X0043374Y0020600D01*
X0045600Y0018374D01*
X0045600Y0015226D01*
X0043974Y0013600D01*
X0061419Y0013600D01*
X0061020Y0013999D01*
X0060622Y0014546D01*
X0060315Y0015149D01*
X0060106Y0015793D01*
X0060000Y0016462D01*
X0060000Y0019300D01*
X0064300Y0019300D01*
X0064300Y0019300D01*
X0064300Y0026100D01*
X0064638Y0026100D01*
X0065307Y0025994D01*
X0065951Y0025785D01*
X0066554Y0025478D01*
X0067101Y0025080D01*
X0067580Y0024601D01*
X0067978Y0024054D01*
X0068285Y0023451D01*
X0068494Y0022807D01*
X0068600Y0022138D01*
X0068600Y0019300D01*
X0064300Y0019300D01*
X0064300Y0019300D01*
X0064300Y0019300D01*
X0064300Y0026100D01*
X0063962Y0026100D01*
X0063293Y0025994D01*
X0062649Y0025785D01*
X0062046Y0025478D01*
X0061499Y0025080D01*
X0061020Y0024601D01*
X0060622Y0024054D01*
X0060315Y0023451D01*
X0060106Y0022807D01*
X0060000Y0022138D01*
X0060000Y0019300D01*
X0064300Y0019300D01*
X0068600Y0019300D01*
X0068600Y0016462D01*
X0068494Y0015793D01*
X0068285Y0015149D01*
X0067978Y0014546D01*
X0067580Y0013999D01*
X0067181Y0013600D01*
X0071985Y0013600D01*
X0070994Y0014591D01*
X0070400Y0016024D01*
X0070400Y0022576D01*
X0070994Y0024009D01*
X0072021Y0025037D01*
X0071577Y0025221D01*
X0070846Y0025952D01*
X0070450Y0026908D01*
X0070450Y0027942D01*
X0070846Y0028898D01*
X0071577Y0029629D01*
X0072231Y0029900D01*
X0059950Y0029900D01*
X0059950Y0022263D01*
X0058837Y0021150D01*
X0058100Y0020413D01*
X0058100Y0017726D01*
X0055874Y0015500D01*
X0052726Y0015500D01*
X0050500Y0017726D01*
X0050500Y0020874D01*
X0052726Y0023100D01*
X0055413Y0023100D01*
X0056150Y0023837D01*
X0056150Y0032587D01*
X0057263Y0033700D01*
X0097263Y0033700D01*
X0099541Y0035978D01*
X0099541Y0037747D01*
X0102294Y0040500D01*
X0106188Y0040500D01*
X0108941Y0037747D01*
X0108941Y0033853D01*
X0108163Y0033075D01*
X0108336Y0033075D01*
X0109527Y0033514D01*
X0109788Y0033775D01*
X0110236Y0033775D01*
X0110657Y0033930D01*
X0110992Y0033775D01*
X0120292Y0033775D01*
X0124348Y0037283D01*
X0124458Y0037636D01*
X0124449Y0037654D01*
X0124692Y0038384D01*
X0124752Y0038575D01*
X0123858Y0038575D01*
X0122902Y0038971D01*
X0122171Y0039702D01*
X0121775Y0040658D01*
X0121775Y0041692D01*
X0122171Y0042648D01*
X0122406Y0042882D01*
X0122400Y0042888D01*
X0109138Y0056150D01*
X0093837Y0056150D01*
X0093290Y0055603D01*
X0093524Y0055700D01*
X0095076Y0055700D01*
X0096509Y0055106D01*
X0097606Y0054009D01*
X0098200Y0052576D01*
X0098200Y0046024D01*
X0097606Y0044591D01*
X0096509Y0043494D01*
X0095076Y0042900D01*
X0093524Y0042900D01*
X0092091Y0043494D01*
X0091973Y0043612D01*
X0091634Y0043423D01*
X0091331Y0043079D01*
X0090973Y0043056D01*
X0079205Y0036518D01*
X0078837Y0036150D01*
X0078542Y0036150D01*
X0078285Y0036007D01*
X0077784Y0036150D01*
X0047888Y0036150D01*
X0042888Y0041150D01*
X0021337Y0041150D01*
X0016200Y0036013D01*
X0015600Y0035413D01*
X0015600Y0035226D01*
X0013374Y0033000D01*
X0010226Y0033000D01*
X0008600Y0034626D01*
X0008600Y0028974D01*
X0010226Y0030600D01*
X0012913Y0030600D01*
X0013575Y0031262D01*
X0013575Y0031692D01*
X0013971Y0032648D01*
X0014702Y0033379D01*
X0015658Y0033775D01*
X0016692Y0033775D01*
X0017648Y0033379D01*
X0018379Y0032648D01*
X0018775Y0031692D01*
X0018775Y0030658D01*
X0018379Y0029702D01*
X0017648Y0028971D01*
X0016692Y0028575D01*
X0016262Y0028575D01*
X0015600Y0027913D01*
X0015600Y0025226D01*
X0013374Y0023000D01*
X0010226Y0023000D01*
X0008600Y0024626D01*
X0008600Y0018974D01*
X0010226Y0020600D01*
X0013374Y0020600D01*
X0015600Y0018374D01*
X0015600Y0015226D01*
X0015371Y0014997D02*
X0038229Y0014997D01*
X0038000Y0016596D02*
X0015600Y0016596D01*
X0015600Y0018194D02*
X0038000Y0018194D01*
X0039419Y0019793D02*
X0014181Y0019793D01*
X0009419Y0019793D02*
X0008600Y0019793D01*
X0008600Y0021391D02*
X0051017Y0021391D01*
X0050500Y0019793D02*
X0044181Y0019793D01*
X0045600Y0018194D02*
X0050500Y0018194D01*
X0051630Y0016596D02*
X0045600Y0016596D01*
X0045371Y0014997D02*
X0060393Y0014997D01*
X0060000Y0016596D02*
X0056970Y0016596D01*
X0058100Y0018194D02*
X0060000Y0018194D01*
X0060000Y0019793D02*
X0058100Y0019793D01*
X0059078Y0021391D02*
X0060000Y0021391D01*
X0064300Y0021391D02*
X0064300Y0021391D01*
X0064300Y0019793D02*
X0064300Y0019793D01*
X0068600Y0019793D02*
X0070400Y0019793D01*
X0070400Y0021391D02*
X0068600Y0021391D01*
X0068435Y0022990D02*
X0070571Y0022990D01*
X0071573Y0024588D02*
X0067589Y0024588D01*
X0064300Y0024588D02*
X0064300Y0024588D01*
X0064300Y0022990D02*
X0064300Y0022990D01*
X0061011Y0024588D02*
X0059950Y0024588D01*
X0059950Y0022990D02*
X0060165Y0022990D01*
X0056150Y0024588D02*
X0044962Y0024588D01*
X0045600Y0025226D02*
X0043374Y0023000D01*
X0040226Y0023000D01*
X0038000Y0025226D01*
X0038000Y0028374D01*
X0040226Y0030600D01*
X0043374Y0030600D01*
X0045600Y0028374D01*
X0045600Y0025226D01*
X0045600Y0026187D02*
X0056150Y0026187D01*
X0059950Y0026187D02*
X0070749Y0026187D01*
X0075002Y0025700D02*
X0075254Y0025952D01*
X0075650Y0026908D01*
X0075650Y0027338D01*
X0076337Y0028025D01*
X0099662Y0028025D01*
X0099541Y0027904D01*
X0099541Y0024011D01*
X0102294Y0021257D01*
X0106188Y0021257D01*
X0108941Y0024011D01*
X0108941Y0025004D01*
X0109325Y0025388D01*
X0111962Y0028025D01*
X0116109Y0028025D01*
X0116075Y0027942D01*
X0116075Y0026908D01*
X0116471Y0025952D01*
X0117202Y0025221D01*
X0118158Y0024825D01*
X0119192Y0024825D01*
X0120148Y0025221D01*
X0120879Y0025952D01*
X0120961Y0026150D01*
X0150388Y0026150D01*
X0153650Y0022888D01*
X0154763Y0021775D01*
X0155552Y0021775D01*
X0154900Y0021123D01*
X0154900Y0017477D01*
X0157477Y0014900D01*
X0161123Y0014900D01*
X0163700Y0017477D01*
X0163700Y0019088D01*
X0164275Y0018513D01*
X0164900Y0017888D01*
X0164900Y0017477D01*
X0167477Y0014900D01*
X0171123Y0014900D01*
X0173700Y0017477D01*
X0173700Y0021123D01*
X0171798Y0023025D01*
X0172263Y0023025D01*
X0174900Y0020388D01*
X0174900Y0017477D01*
X0177477Y0014900D01*
X0181123Y0014900D01*
X0183700Y0017477D01*
X0183700Y0021123D01*
X0181798Y0023025D01*
X0182888Y0023025D01*
X0184900Y0021013D01*
X0184900Y0017477D01*
X0187477Y0014900D01*
X0191123Y0014900D01*
X0193700Y0017477D01*
X0193700Y0021123D01*
X0191123Y0023700D01*
X0187587Y0023700D01*
X0185575Y0025712D01*
X0184462Y0026825D01*
X0183048Y0026825D01*
X0183700Y0027477D01*
X0183700Y0030388D01*
X0187587Y0034275D01*
X0201588Y0034275D01*
X0201013Y0033700D01*
X0197477Y0033700D01*
X0194900Y0031123D01*
X0194900Y0027477D01*
X0197477Y0024900D01*
X0201123Y0024900D01*
X0203700Y0027477D01*
X0203700Y0031013D01*
X0204462Y0031775D01*
X0205552Y0031775D01*
X0204900Y0031123D01*
X0204900Y0027477D01*
X0205088Y0027289D01*
X0204702Y0027129D01*
X0203971Y0026398D01*
X0203575Y0025442D01*
X0203575Y0024408D01*
X0203971Y0023452D01*
X0204702Y0022721D01*
X0205658Y0022325D01*
X0206102Y0022325D01*
X0204900Y0021123D01*
X0204900Y0017477D01*
X0207477Y0014900D01*
X0211123Y0014900D01*
X0213700Y0017477D01*
X0213700Y0021123D01*
X0211798Y0023025D01*
X0215712Y0023025D01*
X0216825Y0024138D01*
X0216825Y0024987D01*
X0217312Y0024500D01*
X0219100Y0024500D01*
X0219100Y0029100D01*
X0219500Y0029100D01*
X0219500Y0029500D01*
X0219100Y0029500D01*
X0219100Y0034100D01*
X0217412Y0034100D01*
X0219387Y0036075D01*
X0219817Y0036075D01*
X0220225Y0036244D01*
X0220225Y0035264D01*
X0221514Y0033975D01*
X0224900Y0030589D01*
X0224900Y0027477D01*
X0227477Y0024900D01*
X0231123Y0024900D01*
X0233700Y0027477D01*
X0233700Y0031123D01*
X0231123Y0033700D01*
X0228011Y0033700D01*
X0224625Y0037086D01*
X0224625Y0059995D01*
X0224629Y0060900D01*
X0224625Y0060905D01*
X0224625Y0060911D01*
X0223983Y0061553D01*
X0223763Y0061775D01*
X0239462Y0061775D01*
X0246706Y0069020D01*
X0247726Y0068000D01*
X0250874Y0068000D01*
X0253100Y0070226D01*
X0253100Y0073374D01*
X0250874Y0075600D01*
X0247726Y0075600D01*
X0245500Y0073374D01*
X0245500Y0073187D01*
X0244900Y0072587D01*
X0237888Y0065575D01*
X0203116Y0065575D01*
X0203150Y0065658D01*
X0203150Y0066692D01*
X0202754Y0067648D01*
X0202023Y0068379D01*
X0201067Y0068775D01*
X0200637Y0068775D01*
X0199400Y0070012D01*
X0199400Y0070442D01*
X0199004Y0071398D01*
X0198273Y0072129D01*
X0197317Y0072525D01*
X0196283Y0072525D01*
X0195327Y0072129D01*
X0194596Y0071398D01*
X0194200Y0070442D01*
X0194200Y0069408D01*
X0194596Y0068452D01*
X0195327Y0067721D01*
X0196283Y0067325D01*
X0196713Y0067325D01*
X0197950Y0066088D01*
X0197950Y0065658D01*
X0197984Y0065575D01*
X0197263Y0065575D01*
X0196150Y0064462D01*
X0177263Y0045575D01*
X0125087Y0045575D01*
X0110712Y0059950D01*
X0092263Y0059950D01*
X0091784Y0059471D01*
X0091504Y0060148D01*
X0090773Y0060879D01*
X0090119Y0061150D01*
X0140388Y0061150D01*
X0148513Y0053025D01*
X0151273Y0053025D01*
X0151577Y0052721D01*
X0152533Y0052325D01*
X0153567Y0052325D01*
X0154523Y0052721D01*
X0154827Y0053025D01*
X0167041Y0053025D01*
X0167041Y0053011D01*
X0169794Y0050257D01*
X0173688Y0050257D01*
X0176441Y0053011D01*
X0176441Y0056904D01*
X0175545Y0057800D01*
X0180252Y0057800D01*
X0180299Y0057753D01*
X0181273Y0057350D01*
X0182327Y0057350D01*
X0183301Y0057753D01*
X0184047Y0058499D01*
X0184450Y0059473D01*
X0184450Y0060527D01*
X0184047Y0061501D01*
X0183301Y0062247D01*
X0182327Y0062650D01*
X0181273Y0062650D01*
X0180299Y0062247D01*
X0180252Y0062200D01*
X0175788Y0062200D01*
X0176441Y0062853D01*
X0176441Y0066747D01*
X0173688Y0069500D01*
X0169794Y0069500D01*
X0167041Y0066747D01*
X0167041Y0062853D01*
X0167630Y0062264D01*
X0167292Y0062200D01*
X0166589Y0062200D01*
X0166423Y0062034D01*
X0166192Y0061990D01*
X0165797Y0061409D01*
X0165300Y0060911D01*
X0165300Y0060677D01*
X0165010Y0060250D01*
X0160211Y0060250D01*
X0155600Y0064861D01*
X0155600Y0065874D01*
X0153374Y0068100D01*
X0150226Y0068100D01*
X0148000Y0065874D01*
X0148000Y0062726D01*
X0150226Y0060500D01*
X0153374Y0060500D01*
X0153556Y0060682D01*
X0157414Y0056825D01*
X0154827Y0056825D01*
X0154523Y0057129D01*
X0153567Y0057525D01*
X0153200Y0057525D01*
X0153200Y0057952D01*
X0152797Y0058926D01*
X0152051Y0059672D01*
X0151077Y0060075D01*
X0150587Y0060075D01*
X0143837Y0066825D01*
X0117587Y0066825D01*
X0116275Y0068137D01*
X0116275Y0068567D01*
X0116250Y0068627D01*
X0117477Y0067400D01*
X0121123Y0067400D01*
X0123700Y0069977D01*
X0123700Y0071109D01*
X0123783Y0071075D01*
X0124500Y0071075D01*
X0124500Y0069812D01*
X0127312Y0067000D01*
X0129100Y0067000D01*
X0129100Y0071600D01*
X0129500Y0071600D01*
X0129500Y0072000D01*
X0129100Y0072000D01*
X0129100Y0076600D01*
X0127312Y0076600D01*
X0126182Y0075470D01*
X0125773Y0075879D01*
X0124817Y0076275D01*
X0124387Y0076275D01*
X0123700Y0076962D01*
X0122587Y0078075D01*
X0121798Y0078075D01*
X0123700Y0079977D01*
X0123700Y0083623D01*
X0122423Y0084900D01*
X0125612Y0084900D01*
X0124500Y0083788D01*
X0124500Y0082000D01*
X0129100Y0082000D01*
X0129100Y0081600D01*
X0129500Y0081600D01*
X0129500Y0082000D01*
X0134100Y0082000D01*
X0134100Y0083788D01*
X0132988Y0084900D01*
X0136177Y0084900D01*
X0134900Y0083623D01*
X0134900Y0079977D01*
X0135530Y0079347D01*
X0134702Y0079004D01*
X0133971Y0078273D01*
X0133575Y0077317D01*
X0133575Y0076283D01*
X0133971Y0075327D01*
X0134702Y0074596D01*
X0135530Y0074253D01*
X0134900Y0073623D01*
X0134900Y0069977D01*
X0137477Y0067400D01*
X0141123Y0067400D01*
X0143700Y0069977D01*
X0143700Y0073623D01*
X0142723Y0074600D01*
X0147139Y0074600D01*
X0158000Y0063739D01*
X0158000Y0062726D01*
X0160226Y0060500D01*
X0163374Y0060500D01*
X0165600Y0062726D01*
X0165600Y0065874D01*
X0163374Y0068100D01*
X0160226Y0068100D01*
X0160044Y0067918D01*
X0148961Y0079000D01*
X0142723Y0079000D01*
X0143700Y0079977D01*
X0143700Y0081700D01*
X0144192Y0081700D01*
X0145148Y0082096D01*
X0145879Y0082827D01*
X0146275Y0083783D01*
X0146275Y0084817D01*
X0145879Y0085773D01*
X0145148Y0086504D01*
X0144502Y0086772D01*
X0148332Y0086772D01*
X0147600Y0086040D01*
X0147600Y0084300D01*
X0151800Y0084300D01*
X0156000Y0084300D01*
X0156000Y0086040D01*
X0155268Y0086772D01*
X0158332Y0086772D01*
X0157600Y0086040D01*
X0157600Y0084300D01*
X0161800Y0084300D01*
X0166000Y0084300D01*
X0166000Y0086040D01*
X0165268Y0086772D01*
X0191766Y0086772D01*
X0191766Y0075803D01*
X0192586Y0074983D01*
X0206014Y0074983D01*
X0206834Y0075803D01*
X0206834Y0086772D01*
X0326766Y0086772D01*
X0326766Y0075803D01*
X0327586Y0074983D01*
X0341014Y0074983D01*
X0341834Y0075803D01*
X0341834Y0086772D01*
X0382490Y0086772D01*
X0382226Y0086673D01*
X0382191Y0086596D01*
X0381476Y0086205D01*
X0381391Y0086217D01*
X0381103Y0086002D01*
X0380787Y0085829D01*
X0380763Y0085747D01*
X0380111Y0085259D01*
X0380026Y0085259D01*
X0379771Y0085005D01*
X0379483Y0084789D01*
X0379471Y0084705D01*
X0378895Y0084129D01*
X0378811Y0084117D01*
X0378595Y0083829D01*
X0378341Y0083574D01*
X0378341Y0083489D01*
X0377853Y0082837D01*
X0377771Y0082813D01*
X0377598Y0082497D01*
X0377383Y0082209D01*
X0377395Y0082124D01*
X0377004Y0081409D01*
X0376927Y0081374D01*
X0376801Y0081037D01*
X0376629Y0080721D01*
X0376653Y0080639D01*
X0376368Y0079876D01*
X0376296Y0079830D01*
X0376220Y0079478D01*
X0376094Y0079141D01*
X0376129Y0079063D01*
X0375956Y0078268D01*
X0375892Y0078212D01*
X0375866Y0077853D01*
X0375790Y0077501D01*
X0375836Y0077429D01*
X0375781Y0076659D01*
X0375750Y0076628D01*
X0375750Y0076231D01*
X0375722Y0075834D01*
X0375750Y0075802D01*
X0375750Y0072798D01*
X0375722Y0072766D01*
X0375750Y0072369D01*
X0375750Y0071972D01*
X0375781Y0071941D01*
X0375836Y0071171D01*
X0375790Y0071099D01*
X0375866Y0070747D01*
X0375892Y0070388D01*
X0375956Y0070332D01*
X0376129Y0069537D01*
X0376094Y0069459D01*
X0376220Y0069122D01*
X0376296Y0068770D01*
X0376368Y0068724D01*
X0376653Y0067961D01*
X0376629Y0067879D01*
X0376801Y0067563D01*
X0376927Y0067226D01*
X0377004Y0067191D01*
X0377395Y0066476D01*
X0377383Y0066391D01*
X0377598Y0066103D01*
X0377771Y0065787D01*
X0377853Y0065763D01*
X0378341Y0065111D01*
X0378341Y0065026D01*
X0378595Y0064771D01*
X0378811Y0064483D01*
X0378895Y0064471D01*
X0379471Y0063895D01*
X0379483Y0063811D01*
X0379771Y0063595D01*
X0380026Y0063341D01*
X0380111Y0063341D01*
X0380763Y0062853D01*
X0380787Y0062771D01*
X0381103Y0062598D01*
X0381391Y0062383D01*
X0381476Y0062395D01*
X0382191Y0062004D01*
X0382226Y0061927D01*
X0382563Y0061801D01*
X0382879Y0061629D01*
X0382961Y0061653D01*
X0383724Y0061368D01*
X0383770Y0061296D01*
X0384122Y0061220D01*
X0384459Y0061094D01*
X0384537Y0061129D01*
X0385332Y0060956D01*
X0385388Y0060892D01*
X0385747Y0060866D01*
X0386099Y0060790D01*
X0386171Y0060836D01*
X0386941Y0060781D01*
X0386972Y0060750D01*
X0387369Y0060750D01*
X0387766Y0060722D01*
X0387798Y0060750D01*
X0390802Y0060750D01*
X0390834Y0060722D01*
X0391231Y0060750D01*
X0391628Y0060750D01*
X0391659Y0060781D01*
X0392429Y0060836D01*
X0392501Y0060790D01*
X0392853Y0060866D01*
X0393212Y0060892D01*
X0393268Y0060956D01*
X0394063Y0061129D01*
X0394141Y0061094D01*
X0394478Y0061220D01*
X0394830Y0061296D01*
X0394876Y0061368D01*
X0395639Y0061653D01*
X0395721Y0061629D01*
X0396037Y0061801D01*
X0396374Y0061927D01*
X0396409Y0062004D01*
X0397124Y0062395D01*
X0397209Y0062383D01*
X0397497Y0062598D01*
X0397813Y0062771D01*
X0397837Y0062853D01*
X0398489Y0063341D01*
X0398574Y0063341D01*
X0398829Y0063595D01*
X0399117Y0063811D01*
X0399129Y0063895D01*
X0399705Y0064471D01*
X0399789Y0064483D01*
X0400005Y0064771D01*
X0400259Y0065026D01*
X0400259Y0065111D01*
X0400747Y0065763D01*
X0400829Y0065787D01*
X0401002Y0066103D01*
X0401217Y0066391D01*
X0401205Y0066476D01*
X0401596Y0067191D01*
X0401673Y0067226D01*
X0401799Y0067563D01*
X0401971Y0067879D01*
X0401947Y0067961D01*
X0402232Y0068724D01*
X0402304Y0068770D01*
X0402380Y0069122D01*
X0402506Y0069459D01*
X0402471Y0069537D01*
X0402644Y0070332D01*
X0402708Y0070388D01*
X0402734Y0070747D01*
X0402810Y0071099D01*
X0402764Y0071171D01*
X0402819Y0071941D01*
X0402850Y0071972D01*
X0402850Y0072369D01*
X0402878Y0072766D01*
X0402850Y0072798D01*
X0402850Y0075228D01*
X0402878Y0075261D01*
X0402850Y0075657D01*
X0402850Y0076055D01*
X0402819Y0076085D01*
X0402758Y0076937D01*
X0402805Y0077009D01*
X0402728Y0077361D01*
X0402702Y0077720D01*
X0402638Y0077775D01*
X0402447Y0078651D01*
X0402483Y0078729D01*
X0402357Y0079066D01*
X0402281Y0079418D01*
X0402209Y0079464D01*
X0401896Y0080304D01*
X0401920Y0080386D01*
X0401747Y0080701D01*
X0401621Y0081039D01*
X0401544Y0081074D01*
X0401114Y0081861D01*
X0401126Y0081945D01*
X0400911Y0082233D01*
X0400738Y0082549D01*
X0400656Y0082573D01*
X0400119Y0083291D01*
X0400119Y0083376D01*
X0399865Y0083631D01*
X0399649Y0083919D01*
X0399565Y0083931D01*
X0398931Y0084565D01*
X0398919Y0084649D01*
X0398631Y0084865D01*
X0398376Y0085119D01*
X0398291Y0085119D01*
X0397573Y0085656D01*
X0397549Y0085738D01*
X0397233Y0085911D01*
X0396945Y0086126D01*
X0396861Y0086114D01*
X0396074Y0086544D01*
X0396039Y0086621D01*
X0395701Y0086747D01*
X0395657Y0086772D01*
X0422323Y0086772D01*
X0422323Y0013600D01*
X0409734Y0013600D01*
X0409734Y0017283D01*
X0402600Y0017283D01*
X0402600Y0018883D01*
X0409734Y0018883D01*
X0409734Y0024454D01*
X0409611Y0024912D01*
X0409374Y0025323D01*
X0409039Y0025658D01*
X0408629Y0025895D01*
X0408171Y0026017D01*
X0402600Y0026017D01*
X0402600Y0018884D01*
X0401000Y0018884D01*
X0401000Y0026017D01*
X0395429Y0026017D01*
X0394971Y0025895D01*
X0394561Y0025658D01*
X0394226Y0025323D01*
X0393989Y0024912D01*
X0393866Y0024454D01*
X0393866Y0018883D01*
X0401000Y0018883D01*
X0401000Y0017283D01*
X0393866Y0017283D01*
X0393866Y0013600D01*
X0274734Y0013600D01*
X0274734Y0017283D01*
X0267600Y0017283D01*
X0267600Y0018883D01*
X0274734Y0018883D01*
X0274734Y0024454D01*
X0274611Y0024912D01*
X0274374Y0025323D01*
X0274039Y0025658D01*
X0273629Y0025895D01*
X0273171Y0026017D01*
X0267600Y0026017D01*
X0267600Y0018884D01*
X0266000Y0018884D01*
X0266000Y0026017D01*
X0260429Y0026017D01*
X0259971Y0025895D01*
X0259561Y0025658D01*
X0259226Y0025323D01*
X0258989Y0024912D01*
X0258866Y0024454D01*
X0258866Y0018883D01*
X0266000Y0018883D01*
X0266000Y0017283D01*
X0258866Y0017283D01*
X0258866Y0013600D01*
X0139734Y0013600D01*
X0139734Y0017283D01*
X0132600Y0017283D01*
X0132600Y0018883D01*
X0139734Y0018883D01*
X0139734Y0024454D01*
X0139611Y0024912D01*
X0139374Y0025323D01*
X0139039Y0025658D01*
X0138629Y0025895D01*
X0138171Y0026017D01*
X0132600Y0026017D01*
X0132600Y0018884D01*
X0131000Y0018884D01*
X0131000Y0026017D01*
X0125429Y0026017D01*
X0124971Y0025895D01*
X0124561Y0025658D01*
X0124226Y0025323D01*
X0123989Y0024912D01*
X0123866Y0024454D01*
X0123866Y0018883D01*
X0131000Y0018883D01*
X0131000Y0017283D01*
X0123866Y0017283D01*
X0123866Y0013600D01*
X0096615Y0013600D01*
X0097606Y0014591D01*
X0098200Y0016024D01*
X0098200Y0022576D01*
X0097606Y0024009D01*
X0096509Y0025106D01*
X0095076Y0025700D01*
X0093524Y0025700D01*
X0092091Y0025106D01*
X0090994Y0024009D01*
X0090400Y0022576D01*
X0090400Y0016024D01*
X0090994Y0014591D01*
X0091985Y0013600D01*
X0086615Y0013600D01*
X0087606Y0014591D01*
X0088200Y0016024D01*
X0088200Y0022576D01*
X0087606Y0024009D01*
X0086509Y0025106D01*
X0085076Y0025700D01*
X0083524Y0025700D01*
X0082091Y0025106D01*
X0080994Y0024009D01*
X0080400Y0022576D01*
X0080400Y0016024D01*
X0080994Y0014591D01*
X0081985Y0013600D01*
X0076615Y0013600D01*
X0077606Y0014591D01*
X0078200Y0016024D01*
X0078200Y0022576D01*
X0077606Y0024009D01*
X0076509Y0025106D01*
X0075076Y0025700D01*
X0075002Y0025700D01*
X0075351Y0026187D02*
X0099541Y0026187D01*
X0099541Y0027785D02*
X0076097Y0027785D01*
X0071332Y0029384D02*
X0059950Y0029384D01*
X0059950Y0027785D02*
X0070450Y0027785D01*
X0056150Y0027785D02*
X0045600Y0027785D01*
X0044590Y0029384D02*
X0056150Y0029384D01*
X0056150Y0030982D02*
X0018775Y0030982D01*
X0013295Y0030982D02*
X0008600Y0030982D01*
X0008600Y0029384D02*
X0009010Y0029384D01*
X0015600Y0027785D02*
X0038000Y0027785D01*
X0039010Y0029384D02*
X0018061Y0029384D01*
X0015600Y0026187D02*
X0038000Y0026187D01*
X0038638Y0024588D02*
X0014962Y0024588D01*
X0008638Y0024588D02*
X0008600Y0024588D01*
X0008600Y0022990D02*
X0052616Y0022990D01*
X0068600Y0018194D02*
X0070400Y0018194D01*
X0070400Y0016596D02*
X0068600Y0016596D01*
X0068207Y0014997D02*
X0070825Y0014997D01*
X0077774Y0014997D02*
X0080825Y0014997D01*
X0080400Y0016596D02*
X0078200Y0016596D01*
X0078200Y0018194D02*
X0080400Y0018194D01*
X0080400Y0019793D02*
X0078200Y0019793D01*
X0078200Y0021391D02*
X0080400Y0021391D01*
X0080571Y0022990D02*
X0078029Y0022990D01*
X0077027Y0024588D02*
X0081573Y0024588D01*
X0087027Y0024588D02*
X0091573Y0024588D01*
X0090571Y0022990D02*
X0088029Y0022990D01*
X0088200Y0021391D02*
X0090400Y0021391D01*
X0090400Y0019793D02*
X0088200Y0019793D01*
X0088200Y0018194D02*
X0090400Y0018194D01*
X0090400Y0016596D02*
X0088200Y0016596D01*
X0087774Y0014997D02*
X0090825Y0014997D01*
X0097774Y0014997D02*
X0123866Y0014997D01*
X0123866Y0016596D02*
X0098200Y0016596D01*
X0098200Y0018194D02*
X0131000Y0018194D01*
X0132600Y0018194D02*
X0154900Y0018194D01*
X0154900Y0019793D02*
X0139734Y0019793D01*
X0139734Y0021391D02*
X0155169Y0021391D01*
X0153548Y0022990D02*
X0139734Y0022990D01*
X0139698Y0024588D02*
X0151950Y0024588D01*
X0132600Y0024588D02*
X0131000Y0024588D01*
X0131000Y0022990D02*
X0132600Y0022990D01*
X0132600Y0021391D02*
X0131000Y0021391D01*
X0131000Y0019793D02*
X0132600Y0019793D01*
X0123866Y0019793D02*
X0098200Y0019793D01*
X0098200Y0021391D02*
X0102161Y0021391D01*
X0106321Y0021391D02*
X0123866Y0021391D01*
X0123866Y0022990D02*
X0107920Y0022990D01*
X0108941Y0024588D02*
X0123902Y0024588D01*
X0116374Y0026187D02*
X0110124Y0026187D01*
X0111722Y0027785D02*
X0116075Y0027785D01*
X0099541Y0024588D02*
X0097027Y0024588D01*
X0098029Y0022990D02*
X0100562Y0022990D01*
X0139734Y0016596D02*
X0155782Y0016596D01*
X0157380Y0014997D02*
X0139734Y0014997D01*
X0161220Y0014997D02*
X0167380Y0014997D01*
X0165782Y0016596D02*
X0162818Y0016596D01*
X0163700Y0018194D02*
X0164594Y0018194D01*
X0172818Y0016596D02*
X0175782Y0016596D01*
X0177380Y0014997D02*
X0171220Y0014997D01*
X0181220Y0014997D02*
X0187380Y0014997D01*
X0185782Y0016596D02*
X0182818Y0016596D01*
X0183700Y0018194D02*
X0184900Y0018194D01*
X0184900Y0019793D02*
X0183700Y0019793D01*
X0183431Y0021391D02*
X0184522Y0021391D01*
X0182923Y0022990D02*
X0181833Y0022990D01*
X0186699Y0024588D02*
X0203575Y0024588D01*
X0204433Y0022990D02*
X0201833Y0022990D01*
X0201123Y0023700D02*
X0197477Y0023700D01*
X0194900Y0021123D01*
X0194900Y0017477D01*
X0197477Y0014900D01*
X0201123Y0014900D01*
X0203700Y0017477D01*
X0203700Y0021123D01*
X0201123Y0023700D01*
X0196767Y0022990D02*
X0191833Y0022990D01*
X0191123Y0024900D02*
X0187477Y0024900D01*
X0184900Y0027477D01*
X0184900Y0031123D01*
X0187477Y0033700D01*
X0191123Y0033700D01*
X0193700Y0031123D01*
X0193700Y0027477D01*
X0191123Y0024900D01*
X0192409Y0026187D02*
X0196191Y0026187D01*
X0202409Y0026187D02*
X0203883Y0026187D01*
X0203700Y0027785D02*
X0204900Y0027785D01*
X0204900Y0029384D02*
X0203700Y0029384D01*
X0203700Y0030982D02*
X0204900Y0030982D01*
X0196358Y0032581D02*
X0192242Y0032581D01*
X0187491Y0034179D02*
X0201492Y0034179D01*
X0194900Y0030982D02*
X0193700Y0030982D01*
X0193700Y0029384D02*
X0194900Y0029384D01*
X0194900Y0027785D02*
X0193700Y0027785D01*
X0186191Y0026187D02*
X0185100Y0026187D01*
X0184900Y0027785D02*
X0183700Y0027785D01*
X0183700Y0029384D02*
X0184900Y0029384D01*
X0184900Y0030982D02*
X0184294Y0030982D01*
X0185893Y0032581D02*
X0186358Y0032581D01*
X0182117Y0034179D02*
X0178983Y0034179D01*
X0179462Y0033700D02*
X0172525Y0040637D01*
X0172525Y0041067D01*
X0172232Y0041775D01*
X0178837Y0041775D01*
X0198837Y0061775D01*
X0200098Y0061775D01*
X0199896Y0061573D01*
X0199500Y0060617D01*
X0199500Y0059583D01*
X0199896Y0058627D01*
X0200627Y0057896D01*
X0201583Y0057500D01*
X0202617Y0057500D01*
X0203565Y0057893D01*
X0220225Y0057811D01*
X0220225Y0041106D01*
X0219817Y0041275D01*
X0218783Y0041275D01*
X0217827Y0040879D01*
X0217112Y0040164D01*
X0216398Y0040879D01*
X0215442Y0041275D01*
X0214408Y0041275D01*
X0213452Y0040879D01*
X0212721Y0040148D01*
X0212325Y0039192D01*
X0212325Y0038762D01*
X0210976Y0037413D01*
X0210879Y0037648D01*
X0210148Y0038379D01*
X0209192Y0038775D01*
X0208158Y0038775D01*
X0207202Y0038379D01*
X0206898Y0038075D01*
X0186013Y0038075D01*
X0181380Y0033442D01*
X0181123Y0033700D01*
X0179462Y0033700D01*
X0177384Y0035778D02*
X0183716Y0035778D01*
X0185314Y0037376D02*
X0175786Y0037376D01*
X0174187Y0038975D02*
X0212325Y0038975D01*
X0207111Y0040255D02*
X0207234Y0040713D01*
X0207234Y0046283D01*
X0200100Y0046283D01*
X0200100Y0039150D01*
X0205671Y0039150D01*
X0206129Y0039272D01*
X0206539Y0039509D01*
X0206874Y0039844D01*
X0207111Y0040255D01*
X0207196Y0040573D02*
X0213146Y0040573D01*
X0216704Y0040573D02*
X0217521Y0040573D01*
X0220225Y0042172D02*
X0207234Y0042172D01*
X0207234Y0043770D02*
X0220225Y0043770D01*
X0224625Y0043770D02*
X0234141Y0043770D01*
X0234141Y0045360D02*
X0234141Y0042106D01*
X0234264Y0041648D01*
X0234501Y0041237D01*
X0234836Y0040902D01*
X0235246Y0040665D01*
X0235704Y0040543D01*
X0238958Y0040543D01*
X0238958Y0045360D01*
X0234141Y0045360D01*
X0234141Y0045925D02*
X0238958Y0045925D01*
X0238958Y0045360D01*
X0239524Y0045360D01*
X0239524Y0045925D01*
X0244341Y0045925D01*
X0244341Y0049179D01*
X0244218Y0049637D01*
X0243981Y0050048D01*
X0243646Y0050383D01*
X0243236Y0050620D01*
X0242778Y0050743D01*
X0239524Y0050743D01*
X0239524Y0045925D01*
X0238958Y0045925D01*
X0238958Y0050743D01*
X0235704Y0050743D01*
X0235246Y0050620D01*
X0234836Y0050383D01*
X0234501Y0050048D01*
X0234264Y0049637D01*
X0234141Y0049179D01*
X0234141Y0045925D01*
X0234141Y0046967D02*
X0224625Y0046967D01*
X0224625Y0045369D02*
X0238958Y0045369D01*
X0239524Y0045369D02*
X0326366Y0045369D01*
X0326366Y0046283D02*
X0326366Y0040713D01*
X0326489Y0040255D01*
X0326726Y0039844D01*
X0327061Y0039509D01*
X0327471Y0039272D01*
X0327929Y0039150D01*
X0333500Y0039150D01*
X0333500Y0046283D01*
X0335100Y0046283D01*
X0335100Y0039150D01*
X0340671Y0039150D01*
X0341129Y0039272D01*
X0341539Y0039509D01*
X0341874Y0039844D01*
X0342111Y0040255D01*
X0342234Y0040713D01*
X0342234Y0046283D01*
X0335100Y0046283D01*
X0335100Y0047883D01*
X0342234Y0047883D01*
X0342234Y0053454D01*
X0342111Y0053912D01*
X0341874Y0054323D01*
X0341539Y0054658D01*
X0341129Y0054895D01*
X0340671Y0055017D01*
X0335100Y0055017D01*
X0335100Y0047884D01*
X0333500Y0047884D01*
X0333500Y0055017D01*
X0327929Y0055017D01*
X0327471Y0054895D01*
X0327061Y0054658D01*
X0326726Y0054323D01*
X0326489Y0053912D01*
X0326366Y0053454D01*
X0326366Y0047883D01*
X0333500Y0047883D01*
X0333500Y0046283D01*
X0326366Y0046283D01*
X0326366Y0043770D02*
X0244341Y0043770D01*
X0239524Y0043770D02*
X0238958Y0043770D01*
X0238958Y0042172D02*
X0239524Y0042172D01*
X0239524Y0040573D02*
X0238958Y0040573D01*
X0239524Y0040543D02*
X0242778Y0040543D01*
X0243236Y0040665D01*
X0243646Y0040902D01*
X0243981Y0041237D01*
X0244218Y0041648D01*
X0244341Y0042106D01*
X0244341Y0045360D01*
X0239524Y0045360D01*
X0239524Y0040543D01*
X0241188Y0040500D02*
X0237294Y0040500D01*
X0234541Y0037747D01*
X0234541Y0033853D01*
X0237294Y0031100D01*
X0241188Y0031100D01*
X0243941Y0033853D01*
X0243941Y0037747D01*
X0241188Y0040500D01*
X0242892Y0040573D02*
X0326403Y0040573D01*
X0326366Y0042172D02*
X0244341Y0042172D01*
X0235589Y0040573D02*
X0224625Y0040573D01*
X0224625Y0042172D02*
X0234141Y0042172D01*
X0235769Y0038975D02*
X0224625Y0038975D01*
X0224625Y0037376D02*
X0234541Y0037376D01*
X0234541Y0035778D02*
X0225934Y0035778D01*
X0222425Y0036175D02*
X0222425Y0060000D01*
X0202100Y0060100D01*
X0199500Y0059755D02*
X0196817Y0059755D01*
X0195219Y0058157D02*
X0200366Y0058157D01*
X0193620Y0056558D02*
X0220225Y0056558D01*
X0224625Y0056558D02*
X0259266Y0056558D01*
X0259266Y0058157D02*
X0224625Y0058157D01*
X0224625Y0059755D02*
X0259266Y0059755D01*
X0259266Y0060230D02*
X0260086Y0061050D01*
X0273514Y0061050D01*
X0274334Y0060230D01*
X0274334Y0046803D01*
X0273514Y0045983D01*
X0260086Y0045983D01*
X0259266Y0046803D01*
X0259266Y0060230D01*
X0274334Y0059755D02*
X0394266Y0059755D01*
X0394266Y0060230D02*
X0395086Y0061050D01*
X0408514Y0061050D01*
X0409334Y0060230D01*
X0409334Y0046803D01*
X0408514Y0045983D01*
X0395086Y0045983D01*
X0394266Y0046803D01*
X0394266Y0060230D01*
X0394867Y0061354D02*
X0422323Y0061354D01*
X0422323Y0062952D02*
X0397970Y0062952D01*
X0399840Y0064551D02*
X0422323Y0064551D01*
X0422323Y0066149D02*
X0401036Y0066149D01*
X0401900Y0067748D02*
X0422323Y0067748D01*
X0422323Y0069346D02*
X0402464Y0069346D01*
X0402777Y0070945D02*
X0422323Y0070945D01*
X0422323Y0072543D02*
X0402862Y0072543D01*
X0402850Y0074142D02*
X0422323Y0074142D01*
X0422323Y0075740D02*
X0402850Y0075740D01*
X0402733Y0077339D02*
X0422323Y0077339D01*
X0422323Y0078937D02*
X0402405Y0078937D01*
X0401838Y0080536D02*
X0422323Y0080536D01*
X0422323Y0082134D02*
X0400985Y0082134D01*
X0399788Y0083733D02*
X0422323Y0083733D01*
X0422323Y0085332D02*
X0398007Y0085332D01*
X0380208Y0085332D02*
X0341834Y0085332D01*
X0341834Y0083733D02*
X0378500Y0083733D01*
X0377393Y0082134D02*
X0341834Y0082134D01*
X0341834Y0080536D02*
X0376614Y0080536D01*
X0376102Y0078937D02*
X0341834Y0078937D01*
X0341834Y0077339D02*
X0375829Y0077339D01*
X0375750Y0075740D02*
X0341772Y0075740D01*
X0326828Y0075740D02*
X0311841Y0075740D01*
X0311841Y0074925D02*
X0307024Y0074925D01*
X0307024Y0074360D01*
X0311841Y0074360D01*
X0311841Y0071106D01*
X0311718Y0070648D01*
X0311481Y0070237D01*
X0311146Y0069902D01*
X0310736Y0069665D01*
X0310278Y0069543D01*
X0307024Y0069543D01*
X0307024Y0074360D01*
X0306458Y0074360D01*
X0301641Y0074360D01*
X0301641Y0071106D01*
X0301764Y0070648D01*
X0302001Y0070237D01*
X0302336Y0069902D01*
X0302746Y0069665D01*
X0303204Y0069543D01*
X0306458Y0069543D01*
X0306458Y0074360D01*
X0306458Y0074925D01*
X0301641Y0074925D01*
X0301641Y0078179D01*
X0301764Y0078637D01*
X0302001Y0079048D01*
X0302336Y0079383D01*
X0302746Y0079620D01*
X0303204Y0079743D01*
X0306458Y0079743D01*
X0306458Y0074925D01*
X0307024Y0074925D01*
X0307024Y0079743D01*
X0310278Y0079743D01*
X0310736Y0079620D01*
X0311146Y0079383D01*
X0311481Y0079048D01*
X0311718Y0078637D01*
X0311841Y0078179D01*
X0311841Y0074925D01*
X0311841Y0074142D02*
X0375750Y0074142D01*
X0375738Y0072543D02*
X0311841Y0072543D01*
X0307024Y0072543D02*
X0306458Y0072543D01*
X0301641Y0072543D02*
X0283100Y0072543D01*
X0283100Y0073374D02*
X0280874Y0075600D01*
X0277726Y0075600D01*
X0275500Y0073374D01*
X0275500Y0070226D01*
X0277726Y0068000D01*
X0280874Y0068000D01*
X0283100Y0070226D01*
X0283100Y0073374D01*
X0282332Y0074142D02*
X0301641Y0074142D01*
X0301641Y0075740D02*
X0206772Y0075740D01*
X0206834Y0077339D02*
X0301641Y0077339D01*
X0306458Y0077339D02*
X0307024Y0077339D01*
X0311841Y0077339D02*
X0326766Y0077339D01*
X0326766Y0078937D02*
X0311545Y0078937D01*
X0307024Y0078937D02*
X0306458Y0078937D01*
X0301937Y0078937D02*
X0281811Y0078937D01*
X0280874Y0078000D02*
X0283100Y0080226D01*
X0283100Y0083374D01*
X0280874Y0085600D01*
X0277726Y0085600D01*
X0275500Y0083374D01*
X0275500Y0080226D01*
X0277726Y0078000D01*
X0280874Y0078000D01*
X0276789Y0078937D02*
X0251811Y0078937D01*
X0250874Y0078000D02*
X0253100Y0080226D01*
X0253100Y0083374D01*
X0250874Y0085600D01*
X0247726Y0085600D01*
X0245500Y0083374D01*
X0245500Y0080226D01*
X0247726Y0078000D01*
X0250874Y0078000D01*
X0246789Y0078937D02*
X0206834Y0078937D01*
X0206834Y0080536D02*
X0245500Y0080536D01*
X0245500Y0082134D02*
X0206834Y0082134D01*
X0206834Y0083733D02*
X0245859Y0083733D01*
X0247458Y0085332D02*
X0206834Y0085332D01*
X0191766Y0085332D02*
X0166000Y0085332D01*
X0166000Y0084300D02*
X0161800Y0084300D01*
X0161800Y0084300D01*
X0161800Y0080100D01*
X0163540Y0080100D01*
X0166000Y0082560D01*
X0166000Y0084300D01*
X0166000Y0083733D02*
X0191766Y0083733D01*
X0191766Y0082134D02*
X0165574Y0082134D01*
X0161800Y0082134D02*
X0161800Y0082134D01*
X0161800Y0083733D02*
X0161800Y0083733D01*
X0161800Y0084300D02*
X0161800Y0084300D01*
X0161800Y0084300D01*
X0161800Y0080100D01*
X0160060Y0080100D01*
X0157600Y0082560D01*
X0157600Y0084300D01*
X0161800Y0084300D01*
X0157600Y0083733D02*
X0156000Y0083733D01*
X0156000Y0084300D02*
X0151800Y0084300D01*
X0151800Y0084300D01*
X0151800Y0080100D01*
X0153540Y0080100D01*
X0156000Y0082560D01*
X0156000Y0084300D01*
X0156000Y0085332D02*
X0157600Y0085332D01*
X0151800Y0084300D02*
X0151800Y0084300D01*
X0151800Y0084300D01*
X0151800Y0080100D01*
X0150060Y0080100D01*
X0147600Y0082560D01*
X0147600Y0084300D01*
X0151800Y0084300D01*
X0151800Y0083733D02*
X0151800Y0083733D01*
X0151800Y0082134D02*
X0151800Y0082134D01*
X0155574Y0082134D02*
X0158026Y0082134D01*
X0159624Y0080536D02*
X0153976Y0080536D01*
X0151800Y0080536D02*
X0151800Y0080536D01*
X0149624Y0080536D02*
X0143700Y0080536D01*
X0149024Y0078937D02*
X0166937Y0078937D01*
X0167001Y0079048D02*
X0166764Y0078637D01*
X0166641Y0078179D01*
X0166641Y0074925D01*
X0171458Y0074925D01*
X0171458Y0074360D01*
X0166641Y0074360D01*
X0166641Y0071106D01*
X0166764Y0070648D01*
X0167001Y0070237D01*
X0167336Y0069902D01*
X0167746Y0069665D01*
X0168204Y0069543D01*
X0171458Y0069543D01*
X0171458Y0074360D01*
X0172024Y0074360D01*
X0172024Y0074925D01*
X0176841Y0074925D01*
X0176841Y0078179D01*
X0176718Y0078637D01*
X0176481Y0079048D01*
X0176146Y0079383D01*
X0175736Y0079620D01*
X0175278Y0079743D01*
X0172024Y0079743D01*
X0172024Y0074925D01*
X0171458Y0074925D01*
X0171458Y0079743D01*
X0168204Y0079743D01*
X0167746Y0079620D01*
X0167336Y0079383D01*
X0167001Y0079048D01*
X0163976Y0080536D02*
X0191766Y0080536D01*
X0191766Y0078937D02*
X0176545Y0078937D01*
X0172024Y0078937D02*
X0171458Y0078937D01*
X0171458Y0077339D02*
X0172024Y0077339D01*
X0176841Y0077339D02*
X0191766Y0077339D01*
X0191828Y0075740D02*
X0176841Y0075740D01*
X0176841Y0074360D02*
X0172024Y0074360D01*
X0172024Y0069543D01*
X0175278Y0069543D01*
X0175736Y0069665D01*
X0176146Y0069902D01*
X0176481Y0070237D01*
X0176718Y0070648D01*
X0176841Y0071106D01*
X0176841Y0074360D01*
X0176841Y0074142D02*
X0246268Y0074142D01*
X0244856Y0072543D02*
X0176841Y0072543D01*
X0172024Y0072543D02*
X0171458Y0072543D01*
X0166641Y0072543D02*
X0155418Y0072543D01*
X0149195Y0072543D02*
X0143700Y0072543D01*
X0143700Y0070945D02*
X0150794Y0070945D01*
X0152392Y0069346D02*
X0143069Y0069346D01*
X0141470Y0067748D02*
X0149874Y0067748D01*
X0148275Y0066149D02*
X0144513Y0066149D01*
X0137130Y0067748D02*
X0132036Y0067748D01*
X0131288Y0067000D02*
X0134100Y0069812D01*
X0134100Y0071600D01*
X0129500Y0071600D01*
X0129500Y0067000D01*
X0131288Y0067000D01*
X0129500Y0067748D02*
X0129100Y0067748D01*
X0126564Y0067748D02*
X0121470Y0067748D01*
X0117130Y0067748D02*
X0116664Y0067748D01*
X0123069Y0069346D02*
X0124965Y0069346D01*
X0124500Y0070945D02*
X0123700Y0070945D01*
X0129100Y0070945D02*
X0129500Y0070945D01*
X0129500Y0069346D02*
X0129100Y0069346D01*
X0133635Y0069346D02*
X0135531Y0069346D01*
X0134900Y0070945D02*
X0134100Y0070945D01*
X0134100Y0072000D02*
X0129500Y0072000D01*
X0129500Y0076600D01*
X0131288Y0076600D01*
X0134100Y0073788D01*
X0134100Y0072000D01*
X0134100Y0072543D02*
X0134900Y0072543D01*
X0129500Y0072543D02*
X0129100Y0072543D01*
X0129100Y0074142D02*
X0129500Y0074142D01*
X0129500Y0075740D02*
X0129100Y0075740D01*
X0126452Y0075740D02*
X0125911Y0075740D01*
X0127312Y0077000D02*
X0129100Y0077000D01*
X0129100Y0081600D01*
X0124500Y0081600D01*
X0124500Y0079812D01*
X0127312Y0077000D01*
X0126973Y0077339D02*
X0123323Y0077339D01*
X0123700Y0076962D02*
X0123700Y0076962D01*
X0129100Y0077339D02*
X0129500Y0077339D01*
X0129500Y0077000D02*
X0131288Y0077000D01*
X0134100Y0079812D01*
X0134100Y0081600D01*
X0129500Y0081600D01*
X0129500Y0077000D01*
X0131627Y0077339D02*
X0133584Y0077339D01*
X0136175Y0076800D02*
X0148050Y0076800D01*
X0160550Y0064300D01*
X0161800Y0064300D01*
X0165600Y0064551D02*
X0167041Y0064551D01*
X0167041Y0066149D02*
X0165325Y0066149D01*
X0163726Y0067748D02*
X0168042Y0067748D01*
X0169641Y0069346D02*
X0158615Y0069346D01*
X0157016Y0070945D02*
X0166684Y0070945D01*
X0171458Y0070945D02*
X0172024Y0070945D01*
X0173841Y0069346D02*
X0194225Y0069346D01*
X0194408Y0070945D02*
X0176798Y0070945D01*
X0175440Y0067748D02*
X0195300Y0067748D01*
X0197889Y0066149D02*
X0176441Y0066149D01*
X0176441Y0064551D02*
X0196239Y0064551D01*
X0194640Y0062952D02*
X0176441Y0062952D01*
X0184108Y0061354D02*
X0193042Y0061354D01*
X0198416Y0061354D02*
X0199805Y0061354D01*
X0191443Y0059755D02*
X0184450Y0059755D01*
X0181800Y0060000D02*
X0167500Y0060000D01*
X0166175Y0058050D01*
X0159300Y0058050D01*
X0153050Y0064300D01*
X0151800Y0064300D01*
X0148000Y0064551D02*
X0146111Y0064551D01*
X0147710Y0062952D02*
X0148000Y0062952D01*
X0149308Y0061354D02*
X0149372Y0061354D01*
X0157509Y0062952D02*
X0158000Y0062952D01*
X0159107Y0061354D02*
X0159372Y0061354D01*
X0164228Y0061354D02*
X0165743Y0061354D01*
X0165600Y0062952D02*
X0167041Y0062952D01*
X0157188Y0064551D02*
X0155910Y0064551D01*
X0155589Y0066149D02*
X0155325Y0066149D01*
X0153991Y0067748D02*
X0153726Y0067748D01*
X0153819Y0074142D02*
X0166641Y0074142D01*
X0166641Y0075740D02*
X0152221Y0075740D01*
X0147597Y0074142D02*
X0143181Y0074142D01*
X0135419Y0074142D02*
X0133746Y0074142D01*
X0133800Y0075740D02*
X0132148Y0075740D01*
X0133226Y0078937D02*
X0134636Y0078937D01*
X0134900Y0080536D02*
X0134100Y0080536D01*
X0129500Y0080536D02*
X0129100Y0080536D01*
X0129100Y0078937D02*
X0129500Y0078937D01*
X0125374Y0078937D02*
X0122660Y0078937D01*
X0123700Y0080536D02*
X0124500Y0080536D01*
X0124500Y0082134D02*
X0123700Y0082134D01*
X0123590Y0083733D02*
X0124500Y0083733D01*
X0134100Y0083733D02*
X0135010Y0083733D01*
X0134900Y0082134D02*
X0134100Y0082134D01*
X0145186Y0082134D02*
X0148026Y0082134D01*
X0147600Y0083733D02*
X0146254Y0083733D01*
X0146062Y0085332D02*
X0147600Y0085332D01*
X0161800Y0080536D02*
X0161800Y0080536D01*
X0166641Y0077339D02*
X0150622Y0077339D01*
X0171458Y0075740D02*
X0172024Y0075740D01*
X0172024Y0074142D02*
X0171458Y0074142D01*
X0199192Y0070945D02*
X0243258Y0070945D01*
X0241659Y0069346D02*
X0200066Y0069346D01*
X0202654Y0067748D02*
X0240061Y0067748D01*
X0238462Y0066149D02*
X0203150Y0066149D01*
X0224182Y0061354D02*
X0303540Y0061354D01*
X0304794Y0060100D02*
X0302041Y0062853D01*
X0302041Y0066747D01*
X0304794Y0069500D01*
X0308688Y0069500D01*
X0311441Y0066747D01*
X0311441Y0062853D01*
X0308688Y0060100D01*
X0304794Y0060100D01*
X0304794Y0059657D02*
X0302041Y0056904D01*
X0302041Y0053011D01*
X0304794Y0050257D01*
X0308688Y0050257D01*
X0311441Y0053011D01*
X0311441Y0056904D01*
X0308688Y0059657D01*
X0304794Y0059657D01*
X0303294Y0058157D02*
X0274334Y0058157D01*
X0274334Y0056558D02*
X0302041Y0056558D01*
X0302041Y0054960D02*
X0274334Y0054960D01*
X0274334Y0053361D02*
X0302041Y0053361D01*
X0303289Y0051763D02*
X0274334Y0051763D01*
X0274334Y0050164D02*
X0326366Y0050164D01*
X0326366Y0048566D02*
X0274334Y0048566D01*
X0274334Y0046967D02*
X0333500Y0046967D01*
X0333500Y0045369D02*
X0335100Y0045369D01*
X0335100Y0046967D02*
X0369141Y0046967D01*
X0369141Y0045925D02*
X0373958Y0045925D01*
X0373958Y0045360D01*
X0369141Y0045360D01*
X0369141Y0042106D01*
X0369264Y0041648D01*
X0369501Y0041237D01*
X0369836Y0040902D01*
X0370246Y0040665D01*
X0370704Y0040543D01*
X0373958Y0040543D01*
X0373958Y0045360D01*
X0374524Y0045360D01*
X0374524Y0045925D01*
X0379341Y0045925D01*
X0379341Y0049179D01*
X0379218Y0049637D01*
X0378981Y0050048D01*
X0378646Y0050383D01*
X0378236Y0050620D01*
X0377778Y0050743D01*
X0374524Y0050743D01*
X0374524Y0045925D01*
X0373958Y0045925D01*
X0373958Y0050743D01*
X0370704Y0050743D01*
X0370246Y0050620D01*
X0369836Y0050383D01*
X0369501Y0050048D01*
X0369264Y0049637D01*
X0369141Y0049179D01*
X0369141Y0045925D01*
X0373958Y0045369D02*
X0342234Y0045369D01*
X0342234Y0043770D02*
X0369141Y0043770D01*
X0373958Y0043770D02*
X0374524Y0043770D01*
X0374524Y0045360D02*
X0374524Y0040543D01*
X0377778Y0040543D01*
X0378236Y0040665D01*
X0378646Y0040902D01*
X0378981Y0041237D01*
X0379218Y0041648D01*
X0379341Y0042106D01*
X0379341Y0045360D01*
X0374524Y0045360D01*
X0374524Y0045369D02*
X0422323Y0045369D01*
X0422323Y0046967D02*
X0409334Y0046967D01*
X0409334Y0048566D02*
X0422323Y0048566D01*
X0422323Y0050164D02*
X0409334Y0050164D01*
X0409334Y0051763D02*
X0422323Y0051763D01*
X0422323Y0053361D02*
X0409334Y0053361D01*
X0409334Y0054960D02*
X0422323Y0054960D01*
X0422323Y0056558D02*
X0409334Y0056558D01*
X0409334Y0058157D02*
X0422323Y0058157D01*
X0422323Y0059755D02*
X0409334Y0059755D01*
X0394266Y0058157D02*
X0310188Y0058157D01*
X0311441Y0056558D02*
X0394266Y0056558D01*
X0394266Y0054960D02*
X0340885Y0054960D01*
X0342234Y0053361D02*
X0394266Y0053361D01*
X0394266Y0051763D02*
X0342234Y0051763D01*
X0342234Y0050164D02*
X0369617Y0050164D01*
X0369141Y0048566D02*
X0342234Y0048566D01*
X0335100Y0048566D02*
X0333500Y0048566D01*
X0333500Y0050164D02*
X0335100Y0050164D01*
X0335100Y0051763D02*
X0333500Y0051763D01*
X0333500Y0053361D02*
X0335100Y0053361D01*
X0335100Y0054960D02*
X0333500Y0054960D01*
X0327715Y0054960D02*
X0311441Y0054960D01*
X0311441Y0053361D02*
X0326366Y0053361D01*
X0326366Y0051763D02*
X0310193Y0051763D01*
X0333500Y0043770D02*
X0335100Y0043770D01*
X0335100Y0042172D02*
X0333500Y0042172D01*
X0333500Y0040573D02*
X0335100Y0040573D01*
X0342196Y0040573D02*
X0370589Y0040573D01*
X0372294Y0040500D02*
X0369541Y0037747D01*
X0369541Y0033853D01*
X0372294Y0031100D01*
X0376188Y0031100D01*
X0378941Y0033853D01*
X0378941Y0037747D01*
X0376188Y0040500D01*
X0372294Y0040500D01*
X0373958Y0040573D02*
X0374524Y0040573D01*
X0374524Y0042172D02*
X0373958Y0042172D01*
X0377892Y0040573D02*
X0422323Y0040573D01*
X0422323Y0042172D02*
X0379341Y0042172D01*
X0379341Y0043770D02*
X0422323Y0043770D01*
X0422323Y0038975D02*
X0377713Y0038975D01*
X0370769Y0038975D02*
X0242713Y0038975D01*
X0243941Y0037376D02*
X0317002Y0037376D01*
X0317726Y0038100D02*
X0315500Y0035874D01*
X0315500Y0032726D01*
X0317726Y0030500D01*
X0320874Y0030500D01*
X0323100Y0032726D01*
X0323100Y0035874D01*
X0320874Y0038100D01*
X0317726Y0038100D01*
X0321598Y0037376D02*
X0347002Y0037376D01*
X0347726Y0038100D02*
X0345500Y0035874D01*
X0345500Y0032726D01*
X0347726Y0030500D01*
X0350874Y0030500D01*
X0353100Y0032726D01*
X0353100Y0035874D01*
X0350874Y0038100D01*
X0347726Y0038100D01*
X0351598Y0037376D02*
X0369541Y0037376D01*
X0369541Y0035778D02*
X0353100Y0035778D01*
X0345500Y0035778D02*
X0323100Y0035778D01*
X0315500Y0035778D02*
X0243941Y0035778D01*
X0243941Y0034179D02*
X0315500Y0034179D01*
X0315645Y0032581D02*
X0242668Y0032581D01*
X0235813Y0032581D02*
X0232242Y0032581D01*
X0234541Y0034179D02*
X0227532Y0034179D01*
X0222908Y0032581D02*
X0222808Y0032581D01*
X0224100Y0031288D02*
X0221288Y0034100D01*
X0219500Y0034100D01*
X0219500Y0029500D01*
X0224100Y0029500D01*
X0224100Y0031288D01*
X0224100Y0030982D02*
X0224507Y0030982D01*
X0219500Y0030982D02*
X0219100Y0030982D01*
X0219100Y0032581D02*
X0219500Y0032581D01*
X0221310Y0034179D02*
X0217491Y0034179D01*
X0219090Y0035778D02*
X0220225Y0035778D01*
X0222425Y0036175D02*
X0229300Y0029300D01*
X0233700Y0029384D02*
X0236020Y0029384D01*
X0237294Y0030657D02*
X0234541Y0027904D01*
X0234541Y0024011D01*
X0237294Y0021257D01*
X0241188Y0021257D01*
X0243941Y0024011D01*
X0243941Y0027904D01*
X0241188Y0030657D01*
X0237294Y0030657D01*
X0233700Y0030982D02*
X0317244Y0030982D01*
X0321356Y0030982D02*
X0347244Y0030982D01*
X0351356Y0030982D02*
X0422323Y0030982D01*
X0422323Y0029384D02*
X0377462Y0029384D01*
X0376188Y0030657D02*
X0378941Y0027904D01*
X0378941Y0024011D01*
X0376188Y0021257D01*
X0372294Y0021257D01*
X0369541Y0024011D01*
X0369541Y0027904D01*
X0372294Y0030657D01*
X0376188Y0030657D01*
X0377668Y0032581D02*
X0422323Y0032581D01*
X0422323Y0034179D02*
X0378941Y0034179D01*
X0370813Y0032581D02*
X0352955Y0032581D01*
X0353100Y0034179D02*
X0369541Y0034179D01*
X0378941Y0035778D02*
X0422323Y0035778D01*
X0422323Y0037376D02*
X0378941Y0037376D01*
X0369141Y0042172D02*
X0342234Y0042172D01*
X0373958Y0046967D02*
X0374524Y0046967D01*
X0374524Y0048566D02*
X0373958Y0048566D01*
X0373958Y0050164D02*
X0374524Y0050164D01*
X0378865Y0050164D02*
X0394266Y0050164D01*
X0394266Y0048566D02*
X0379341Y0048566D01*
X0379341Y0046967D02*
X0394266Y0046967D01*
X0345500Y0034179D02*
X0323100Y0034179D01*
X0322955Y0032581D02*
X0345645Y0032581D01*
X0347726Y0028100D02*
X0345500Y0025874D01*
X0345500Y0022726D01*
X0347726Y0020500D01*
X0350874Y0020500D01*
X0353100Y0022726D01*
X0353100Y0025874D01*
X0350874Y0028100D01*
X0347726Y0028100D01*
X0347411Y0027785D02*
X0321189Y0027785D01*
X0320874Y0028100D02*
X0317726Y0028100D01*
X0315500Y0025874D01*
X0315500Y0022726D01*
X0317726Y0020500D01*
X0320874Y0020500D01*
X0323100Y0022726D01*
X0323100Y0025874D01*
X0320874Y0028100D01*
X0317411Y0027785D02*
X0243941Y0027785D01*
X0242462Y0029384D02*
X0371020Y0029384D01*
X0369541Y0027785D02*
X0351189Y0027785D01*
X0352787Y0026187D02*
X0369541Y0026187D01*
X0369541Y0024588D02*
X0353100Y0024588D01*
X0353100Y0022990D02*
X0370562Y0022990D01*
X0372161Y0021391D02*
X0351765Y0021391D01*
X0346835Y0021391D02*
X0321765Y0021391D01*
X0316835Y0021391D02*
X0274734Y0021391D01*
X0274734Y0019793D02*
X0393866Y0019793D01*
X0393866Y0021391D02*
X0376321Y0021391D01*
X0377920Y0022990D02*
X0393866Y0022990D01*
X0393902Y0024588D02*
X0378941Y0024588D01*
X0378941Y0026187D02*
X0422323Y0026187D01*
X0422323Y0027785D02*
X0378941Y0027785D01*
X0401000Y0024588D02*
X0402600Y0024588D01*
X0402600Y0022990D02*
X0401000Y0022990D01*
X0401000Y0021391D02*
X0402600Y0021391D01*
X0402600Y0019793D02*
X0401000Y0019793D01*
X0401000Y0018194D02*
X0267600Y0018194D01*
X0266000Y0018194D02*
X0233700Y0018194D01*
X0233700Y0017477D02*
X0231123Y0014900D01*
X0227477Y0014900D01*
X0224900Y0017477D01*
X0224900Y0021123D01*
X0227477Y0023700D01*
X0231123Y0023700D01*
X0233700Y0021123D01*
X0233700Y0017477D01*
X0232818Y0016596D02*
X0258866Y0016596D01*
X0258866Y0014997D02*
X0231220Y0014997D01*
X0227380Y0014997D02*
X0221785Y0014997D01*
X0221288Y0014500D02*
X0224100Y0017312D01*
X0224100Y0019100D01*
X0219500Y0019100D01*
X0219500Y0019500D01*
X0224100Y0019500D01*
X0224100Y0021288D01*
X0221288Y0024100D01*
X0219500Y0024100D01*
X0219500Y0019500D01*
X0219100Y0019500D01*
X0219100Y0024100D01*
X0217312Y0024100D01*
X0214500Y0021288D01*
X0214500Y0019500D01*
X0219100Y0019500D01*
X0219100Y0019100D01*
X0219500Y0019100D01*
X0219500Y0014500D01*
X0221288Y0014500D01*
X0219500Y0014997D02*
X0219100Y0014997D01*
X0219100Y0014500D02*
X0219100Y0019100D01*
X0214500Y0019100D01*
X0214500Y0017312D01*
X0217312Y0014500D01*
X0219100Y0014500D01*
X0216815Y0014997D02*
X0211220Y0014997D01*
X0212818Y0016596D02*
X0215216Y0016596D01*
X0219100Y0016596D02*
X0219500Y0016596D01*
X0223384Y0016596D02*
X0225782Y0016596D01*
X0224900Y0018194D02*
X0224100Y0018194D01*
X0219500Y0018194D02*
X0219100Y0018194D01*
X0214500Y0018194D02*
X0213700Y0018194D01*
X0213700Y0019793D02*
X0214500Y0019793D01*
X0214603Y0021391D02*
X0213431Y0021391D01*
X0219100Y0021391D02*
X0219500Y0021391D01*
X0219500Y0019793D02*
X0219100Y0019793D01*
X0224100Y0019793D02*
X0224900Y0019793D01*
X0225169Y0021391D02*
X0223997Y0021391D01*
X0222399Y0022990D02*
X0226767Y0022990D01*
X0231833Y0022990D02*
X0235562Y0022990D01*
X0234541Y0024588D02*
X0221376Y0024588D01*
X0221288Y0024500D02*
X0224100Y0027312D01*
X0224100Y0029100D01*
X0219500Y0029100D01*
X0219500Y0024500D01*
X0221288Y0024500D01*
X0219500Y0024588D02*
X0219100Y0024588D01*
X0219100Y0022990D02*
X0219500Y0022990D01*
X0217224Y0024588D02*
X0216825Y0024588D01*
X0216201Y0022990D02*
X0211833Y0022990D01*
X0205169Y0021391D02*
X0203431Y0021391D01*
X0203700Y0019793D02*
X0204900Y0019793D01*
X0204900Y0018194D02*
X0203700Y0018194D01*
X0202818Y0016596D02*
X0205782Y0016596D01*
X0207380Y0014997D02*
X0201220Y0014997D01*
X0197380Y0014997D02*
X0191220Y0014997D01*
X0192818Y0016596D02*
X0195782Y0016596D01*
X0194900Y0018194D02*
X0193700Y0018194D01*
X0193700Y0019793D02*
X0194900Y0019793D01*
X0195169Y0021391D02*
X0193431Y0021391D01*
X0174900Y0019793D02*
X0173700Y0019793D01*
X0173897Y0021391D02*
X0173431Y0021391D01*
X0172298Y0022990D02*
X0171833Y0022990D01*
X0173700Y0018194D02*
X0174900Y0018194D01*
X0219100Y0026187D02*
X0219500Y0026187D01*
X0222975Y0026187D02*
X0226191Y0026187D01*
X0232409Y0026187D02*
X0234541Y0026187D01*
X0234541Y0027785D02*
X0233700Y0027785D01*
X0224900Y0027785D02*
X0224100Y0027785D01*
X0224900Y0029384D02*
X0219500Y0029384D01*
X0219500Y0027785D02*
X0219100Y0027785D01*
X0242920Y0022990D02*
X0258866Y0022990D01*
X0258902Y0024588D02*
X0243941Y0024588D01*
X0243941Y0026187D02*
X0315813Y0026187D01*
X0322787Y0026187D02*
X0345813Y0026187D01*
X0345500Y0024588D02*
X0323100Y0024588D01*
X0323100Y0022990D02*
X0345500Y0022990D01*
X0315500Y0022990D02*
X0274734Y0022990D01*
X0274698Y0024588D02*
X0315500Y0024588D01*
X0274734Y0016596D02*
X0393866Y0016596D01*
X0393866Y0014997D02*
X0274734Y0014997D01*
X0267600Y0019793D02*
X0266000Y0019793D01*
X0266000Y0021391D02*
X0267600Y0021391D01*
X0267600Y0022990D02*
X0266000Y0022990D01*
X0266000Y0024588D02*
X0267600Y0024588D01*
X0258866Y0021391D02*
X0241321Y0021391D01*
X0237161Y0021391D02*
X0233431Y0021391D01*
X0233700Y0019793D02*
X0258866Y0019793D01*
X0198500Y0039150D02*
X0192929Y0039150D01*
X0192471Y0039272D01*
X0192061Y0039509D01*
X0191726Y0039844D01*
X0191489Y0040255D01*
X0191366Y0040713D01*
X0191366Y0046283D01*
X0198500Y0046283D01*
X0200100Y0046283D01*
X0200100Y0047883D01*
X0207234Y0047883D01*
X0207234Y0053454D01*
X0207111Y0053912D01*
X0206874Y0054323D01*
X0206539Y0054658D01*
X0206129Y0054895D01*
X0205671Y0055017D01*
X0200100Y0055017D01*
X0200100Y0047884D01*
X0198500Y0047884D01*
X0198500Y0055017D01*
X0192929Y0055017D01*
X0192471Y0054895D01*
X0192061Y0054658D01*
X0191726Y0054323D01*
X0191489Y0053912D01*
X0191366Y0053454D01*
X0191366Y0047883D01*
X0198500Y0047883D01*
X0198500Y0046283D01*
X0198500Y0039150D01*
X0198500Y0040573D02*
X0200100Y0040573D01*
X0200100Y0042172D02*
X0198500Y0042172D01*
X0198500Y0043770D02*
X0200100Y0043770D01*
X0200100Y0045369D02*
X0198500Y0045369D01*
X0198500Y0046967D02*
X0184029Y0046967D01*
X0182431Y0045369D02*
X0191366Y0045369D01*
X0191366Y0043770D02*
X0180832Y0043770D01*
X0179234Y0042172D02*
X0191366Y0042172D01*
X0191403Y0040573D02*
X0172589Y0040573D01*
X0178655Y0046967D02*
X0139334Y0046967D01*
X0139334Y0046803D02*
X0139334Y0060230D01*
X0138514Y0061050D01*
X0125086Y0061050D01*
X0124266Y0060230D01*
X0124266Y0046803D01*
X0125086Y0045983D01*
X0138514Y0045983D01*
X0139334Y0046803D01*
X0139334Y0048566D02*
X0180254Y0048566D01*
X0181852Y0050164D02*
X0139334Y0050164D01*
X0139334Y0051763D02*
X0168289Y0051763D01*
X0175193Y0051763D02*
X0183451Y0051763D01*
X0188825Y0051763D02*
X0191366Y0051763D01*
X0191366Y0053361D02*
X0190423Y0053361D01*
X0192022Y0054960D02*
X0192715Y0054960D01*
X0198500Y0054960D02*
X0200100Y0054960D01*
X0200100Y0053361D02*
X0198500Y0053361D01*
X0198500Y0051763D02*
X0200100Y0051763D01*
X0200100Y0050164D02*
X0198500Y0050164D01*
X0198500Y0048566D02*
X0200100Y0048566D01*
X0200100Y0046967D02*
X0220225Y0046967D01*
X0220225Y0045369D02*
X0207234Y0045369D01*
X0207234Y0048566D02*
X0220225Y0048566D01*
X0220225Y0050164D02*
X0207234Y0050164D01*
X0207234Y0051763D02*
X0220225Y0051763D01*
X0224625Y0051763D02*
X0259266Y0051763D01*
X0259266Y0053361D02*
X0224625Y0053361D01*
X0224625Y0054960D02*
X0259266Y0054960D01*
X0259266Y0050164D02*
X0243865Y0050164D01*
X0244341Y0048566D02*
X0259266Y0048566D01*
X0259266Y0046967D02*
X0244341Y0046967D01*
X0239524Y0046967D02*
X0238958Y0046967D01*
X0238958Y0048566D02*
X0239524Y0048566D01*
X0239524Y0050164D02*
X0238958Y0050164D01*
X0234617Y0050164D02*
X0224625Y0050164D01*
X0224625Y0048566D02*
X0234141Y0048566D01*
X0220225Y0053361D02*
X0207234Y0053361D01*
X0205885Y0054960D02*
X0220225Y0054960D01*
X0191366Y0050164D02*
X0187226Y0050164D01*
X0185628Y0048566D02*
X0191366Y0048566D01*
X0185049Y0053361D02*
X0176441Y0053361D01*
X0176441Y0054960D02*
X0186648Y0054960D01*
X0188246Y0056558D02*
X0176441Y0056558D01*
X0183704Y0058157D02*
X0189845Y0058157D01*
X0156082Y0058157D02*
X0153115Y0058157D01*
X0144980Y0056558D02*
X0139334Y0056558D01*
X0139334Y0058157D02*
X0143381Y0058157D01*
X0141783Y0059755D02*
X0139334Y0059755D01*
X0151849Y0059755D02*
X0154483Y0059755D01*
X0146578Y0054960D02*
X0139334Y0054960D01*
X0139334Y0053361D02*
X0148177Y0053361D01*
X0124266Y0053361D02*
X0117301Y0053361D01*
X0115702Y0054960D02*
X0124266Y0054960D01*
X0124266Y0056558D02*
X0114104Y0056558D01*
X0112505Y0058157D02*
X0124266Y0058157D01*
X0124266Y0059755D02*
X0110907Y0059755D01*
X0110328Y0054960D02*
X0096656Y0054960D01*
X0097875Y0053361D02*
X0111927Y0053361D01*
X0113525Y0051763D02*
X0098200Y0051763D01*
X0099836Y0050383D02*
X0099501Y0050048D01*
X0099264Y0049637D01*
X0099141Y0049179D01*
X0099141Y0045925D01*
X0103958Y0045925D01*
X0103958Y0045360D01*
X0099141Y0045360D01*
X0099141Y0042106D01*
X0099264Y0041648D01*
X0099501Y0041237D01*
X0099836Y0040902D01*
X0100246Y0040665D01*
X0100704Y0040543D01*
X0103958Y0040543D01*
X0103958Y0045360D01*
X0104524Y0045360D01*
X0104524Y0045925D01*
X0109341Y0045925D01*
X0109341Y0049179D01*
X0109218Y0049637D01*
X0108981Y0050048D01*
X0108646Y0050383D01*
X0108236Y0050620D01*
X0107778Y0050743D01*
X0104524Y0050743D01*
X0104524Y0045925D01*
X0103958Y0045925D01*
X0103958Y0050743D01*
X0100704Y0050743D01*
X0100246Y0050620D01*
X0099836Y0050383D01*
X0099617Y0050164D02*
X0098200Y0050164D01*
X0098200Y0048566D02*
X0099141Y0048566D01*
X0103958Y0048566D02*
X0104524Y0048566D01*
X0104524Y0050164D02*
X0103958Y0050164D01*
X0108865Y0050164D02*
X0115124Y0050164D01*
X0116722Y0048566D02*
X0109341Y0048566D01*
X0109341Y0046967D02*
X0118321Y0046967D01*
X0119919Y0045369D02*
X0104524Y0045369D01*
X0104524Y0045360D02*
X0109341Y0045360D01*
X0109341Y0042106D01*
X0109218Y0041648D01*
X0108981Y0041237D01*
X0108646Y0040902D01*
X0108236Y0040665D01*
X0107778Y0040543D01*
X0104524Y0040543D01*
X0104524Y0045360D01*
X0103958Y0045369D02*
X0097928Y0045369D01*
X0098200Y0046967D02*
X0099141Y0046967D01*
X0103958Y0046967D02*
X0104524Y0046967D01*
X0104524Y0043770D02*
X0103958Y0043770D01*
X0099141Y0043770D02*
X0096786Y0043770D01*
X0099141Y0042172D02*
X0089381Y0042172D01*
X0086504Y0040573D02*
X0100589Y0040573D01*
X0103958Y0040573D02*
X0104524Y0040573D01*
X0104524Y0042172D02*
X0103958Y0042172D01*
X0107892Y0040573D02*
X0121810Y0040573D01*
X0121974Y0042172D02*
X0109341Y0042172D01*
X0109341Y0043770D02*
X0121518Y0043770D01*
X0123695Y0046967D02*
X0124266Y0046967D01*
X0124266Y0048566D02*
X0122096Y0048566D01*
X0120498Y0050164D02*
X0124266Y0050164D01*
X0124266Y0051763D02*
X0118899Y0051763D01*
X0092068Y0059755D02*
X0091667Y0059755D01*
X0075525Y0059755D02*
X0062429Y0059755D01*
X0062439Y0059697D02*
X0062314Y0060482D01*
X0062069Y0061238D01*
X0061708Y0061946D01*
X0061241Y0062589D01*
X0060679Y0063150D01*
X0060036Y0063617D01*
X0059328Y0063978D01*
X0058573Y0064224D01*
X0057788Y0064348D01*
X0057673Y0064348D01*
X0057673Y0059583D01*
X0057108Y0059583D01*
X0057108Y0064348D01*
X0056993Y0064348D01*
X0056208Y0064224D01*
X0055453Y0063978D01*
X0054745Y0063617D01*
X0054102Y0063150D01*
X0053540Y0062589D01*
X0053073Y0061946D01*
X0052712Y0061238D01*
X0052467Y0060482D01*
X0052343Y0059697D01*
X0052343Y0059583D01*
X0057108Y0059583D01*
X0057108Y0059017D01*
X0057673Y0059017D01*
X0057673Y0054252D01*
X0057788Y0054252D01*
X0058573Y0054376D01*
X0059328Y0054622D01*
X0060036Y0054983D01*
X0060679Y0055450D01*
X0061241Y0056011D01*
X0061708Y0056654D01*
X0062069Y0057362D01*
X0062314Y0058118D01*
X0062439Y0058903D01*
X0062439Y0059017D01*
X0057673Y0059017D01*
X0057673Y0059583D01*
X0062439Y0059583D01*
X0062439Y0059697D01*
X0057673Y0059755D02*
X0057108Y0059755D01*
X0057108Y0059017D02*
X0052343Y0059017D01*
X0052343Y0058903D01*
X0052467Y0058118D01*
X0052712Y0057362D01*
X0053073Y0056654D01*
X0053540Y0056011D01*
X0054102Y0055450D01*
X0054745Y0054983D01*
X0055453Y0054622D01*
X0056208Y0054376D01*
X0056993Y0054252D01*
X0057108Y0054252D01*
X0057108Y0059017D01*
X0057108Y0058157D02*
X0057673Y0058157D01*
X0057673Y0056558D02*
X0057108Y0056558D01*
X0053143Y0056558D02*
X0049411Y0056558D01*
X0049520Y0056667D02*
X0050228Y0058375D01*
X0050228Y0060225D01*
X0049520Y0061933D01*
X0048212Y0063240D01*
X0046504Y0063948D01*
X0044655Y0063948D01*
X0042947Y0063240D01*
X0041639Y0061933D01*
X0040931Y0060225D01*
X0040931Y0058375D01*
X0041639Y0056667D01*
X0042947Y0055360D01*
X0044655Y0054652D01*
X0046504Y0054652D01*
X0048212Y0055360D01*
X0049520Y0056667D01*
X0050137Y0058157D02*
X0052461Y0058157D01*
X0052352Y0059755D02*
X0050228Y0059755D01*
X0049760Y0061354D02*
X0052772Y0061354D01*
X0053904Y0062952D02*
X0048500Y0062952D01*
X0042659Y0062952D02*
X0015036Y0062952D01*
X0014748Y0063240D02*
X0016055Y0061933D01*
X0016763Y0060225D01*
X0016763Y0058375D01*
X0016055Y0056667D01*
X0014748Y0055360D01*
X0013040Y0054652D01*
X0011190Y0054652D01*
X0009482Y0055360D01*
X0008600Y0056242D01*
X0008600Y0038974D01*
X0010226Y0040600D01*
X0013374Y0040600D01*
X0014393Y0039580D01*
X0019763Y0044950D01*
X0044462Y0044950D01*
X0045575Y0043837D01*
X0049462Y0039950D01*
X0060338Y0039950D01*
X0054788Y0045500D01*
X0052726Y0045500D01*
X0050500Y0047726D01*
X0050500Y0050874D01*
X0052726Y0053100D01*
X0055874Y0053100D01*
X0058100Y0050874D01*
X0058100Y0047726D01*
X0058018Y0047644D01*
X0060939Y0044723D01*
X0060400Y0046024D01*
X0060400Y0052576D01*
X0060994Y0054009D01*
X0062091Y0055106D01*
X0063524Y0055700D01*
X0065076Y0055700D01*
X0066509Y0055106D01*
X0067606Y0054009D01*
X0068200Y0052576D01*
X0068200Y0046024D01*
X0067606Y0044591D01*
X0066509Y0043494D01*
X0065076Y0042900D01*
X0063524Y0042900D01*
X0062223Y0043439D01*
X0063212Y0042450D01*
X0077263Y0042450D01*
X0080528Y0045715D01*
X0080400Y0046024D01*
X0080400Y0052325D01*
X0079408Y0052325D01*
X0078512Y0052696D01*
X0078600Y0052138D01*
X0078600Y0049300D01*
X0074300Y0049300D01*
X0074300Y0049300D01*
X0074300Y0049300D01*
X0074300Y0056100D01*
X0074638Y0056100D01*
X0075196Y0056012D01*
X0074825Y0056908D01*
X0074825Y0057942D01*
X0075221Y0058898D01*
X0075525Y0059202D01*
X0075525Y0065087D01*
X0076638Y0066200D01*
X0077400Y0066962D01*
X0077400Y0067477D01*
X0074900Y0069977D01*
X0074900Y0073623D01*
X0077477Y0076200D01*
X0081123Y0076200D01*
X0082943Y0074380D01*
X0086638Y0078075D01*
X0086802Y0078075D01*
X0084900Y0079977D01*
X0084900Y0083623D01*
X0087477Y0086200D01*
X0091013Y0086200D01*
X0091585Y0086772D01*
X0008600Y0086772D01*
X0008600Y0083974D01*
X0010226Y0085600D01*
X0013374Y0085600D01*
X0015600Y0083374D01*
X0015600Y0080226D01*
X0013374Y0078000D01*
X0010226Y0078000D01*
X0008600Y0079626D01*
X0008600Y0062358D01*
X0009482Y0063240D01*
X0011190Y0063948D01*
X0013040Y0063948D01*
X0014748Y0063240D01*
X0009194Y0062952D02*
X0008600Y0062952D01*
X0016295Y0061354D02*
X0041399Y0061354D01*
X0040931Y0059755D02*
X0016763Y0059755D01*
X0016672Y0058157D02*
X0041022Y0058157D01*
X0041748Y0056558D02*
X0015947Y0056558D01*
X0013783Y0054960D02*
X0043912Y0054960D01*
X0047247Y0054960D02*
X0054789Y0054960D01*
X0057108Y0054960D02*
X0057673Y0054960D01*
X0059992Y0054960D02*
X0061944Y0054960D01*
X0060725Y0053361D02*
X0008600Y0053361D01*
X0008600Y0054960D02*
X0010447Y0054960D01*
X0008600Y0051763D02*
X0051389Y0051763D01*
X0057211Y0051763D02*
X0060400Y0051763D01*
X0060400Y0050164D02*
X0058100Y0050164D01*
X0058100Y0048566D02*
X0060400Y0048566D01*
X0060400Y0046967D02*
X0058695Y0046967D01*
X0060293Y0045369D02*
X0060672Y0045369D01*
X0067928Y0045369D02*
X0070244Y0045369D01*
X0070315Y0045149D02*
X0070106Y0045793D01*
X0070000Y0046462D01*
X0070000Y0049300D01*
X0074300Y0049300D01*
X0074300Y0049300D01*
X0074300Y0056100D01*
X0073962Y0056100D01*
X0073293Y0055994D01*
X0072649Y0055785D01*
X0072046Y0055478D01*
X0071499Y0055080D01*
X0071020Y0054601D01*
X0070622Y0054054D01*
X0070315Y0053451D01*
X0070106Y0052807D01*
X0070000Y0052138D01*
X0070000Y0049300D01*
X0074300Y0049300D01*
X0078600Y0049300D01*
X0078600Y0046462D01*
X0078494Y0045793D01*
X0078285Y0045149D01*
X0077978Y0044546D01*
X0077580Y0043999D01*
X0077101Y0043520D01*
X0076554Y0043122D01*
X0075951Y0042815D01*
X0075307Y0042606D01*
X0074638Y0042500D01*
X0074300Y0042500D01*
X0074300Y0049300D01*
X0074300Y0049300D01*
X0074300Y0042500D01*
X0073962Y0042500D01*
X0073293Y0042606D01*
X0072649Y0042815D01*
X0072046Y0043122D01*
X0071499Y0043520D01*
X0071020Y0043999D01*
X0070622Y0044546D01*
X0070315Y0045149D01*
X0071249Y0043770D02*
X0066786Y0043770D01*
X0074300Y0043770D02*
X0074300Y0043770D01*
X0077351Y0043770D02*
X0078583Y0043770D01*
X0078356Y0045369D02*
X0080182Y0045369D01*
X0080400Y0046967D02*
X0078600Y0046967D01*
X0074300Y0046967D02*
X0074300Y0046967D01*
X0074300Y0045369D02*
X0074300Y0045369D01*
X0070000Y0046967D02*
X0068200Y0046967D01*
X0068200Y0048566D02*
X0070000Y0048566D01*
X0070000Y0050164D02*
X0068200Y0050164D01*
X0074300Y0050164D02*
X0074300Y0050164D01*
X0074300Y0048566D02*
X0074300Y0048566D01*
X0078600Y0048566D02*
X0080400Y0048566D01*
X0080400Y0050164D02*
X0078600Y0050164D01*
X0078600Y0051763D02*
X0080400Y0051763D01*
X0074300Y0051763D02*
X0074300Y0051763D01*
X0070000Y0051763D02*
X0068200Y0051763D01*
X0067875Y0053361D02*
X0070286Y0053361D01*
X0071379Y0054960D02*
X0066656Y0054960D01*
X0061638Y0056558D02*
X0074970Y0056558D01*
X0074914Y0058157D02*
X0062320Y0058157D01*
X0074300Y0054960D02*
X0074300Y0054960D01*
X0074300Y0053361D02*
X0074300Y0053361D01*
X0050500Y0050164D02*
X0008600Y0050164D01*
X0008600Y0048566D02*
X0050500Y0048566D01*
X0051259Y0046967D02*
X0008600Y0046967D01*
X0008600Y0045369D02*
X0054919Y0045369D01*
X0056518Y0043770D02*
X0045642Y0043770D01*
X0047240Y0042172D02*
X0058116Y0042172D01*
X0059715Y0040573D02*
X0048839Y0040573D01*
X0045600Y0038374D02*
X0043374Y0040600D01*
X0040226Y0040600D01*
X0038000Y0038374D01*
X0038000Y0035226D01*
X0040226Y0033000D01*
X0043374Y0033000D01*
X0045600Y0035226D01*
X0045600Y0038374D01*
X0045063Y0038975D02*
X0044999Y0038975D01*
X0038601Y0038975D02*
X0019162Y0038975D01*
X0020760Y0040573D02*
X0040199Y0040573D01*
X0043401Y0040573D02*
X0043465Y0040573D01*
X0045600Y0037376D02*
X0046662Y0037376D01*
X0045600Y0035778D02*
X0099341Y0035778D01*
X0099541Y0037376D02*
X0080749Y0037376D01*
X0083627Y0038975D02*
X0100769Y0038975D01*
X0107713Y0038975D02*
X0122898Y0038975D01*
X0124377Y0037376D02*
X0108941Y0037376D01*
X0108941Y0035778D02*
X0122608Y0035778D01*
X0120760Y0034179D02*
X0108941Y0034179D01*
X0097742Y0034179D02*
X0044553Y0034179D01*
X0039047Y0034179D02*
X0014553Y0034179D01*
X0013943Y0032581D02*
X0008600Y0032581D01*
X0008600Y0034179D02*
X0009047Y0034179D01*
X0015965Y0035778D02*
X0038000Y0035778D01*
X0038000Y0037376D02*
X0017563Y0037376D01*
X0008601Y0038975D02*
X0008600Y0038975D01*
X0008600Y0040573D02*
X0010199Y0040573D01*
X0008600Y0042172D02*
X0016985Y0042172D01*
X0015386Y0040573D02*
X0013401Y0040573D01*
X0008600Y0043770D02*
X0018583Y0043770D01*
X0018407Y0032581D02*
X0056150Y0032581D01*
X0057108Y0061354D02*
X0057673Y0061354D01*
X0057673Y0062952D02*
X0057108Y0062952D01*
X0060877Y0062952D02*
X0075525Y0062952D01*
X0075525Y0061354D02*
X0062010Y0061354D01*
X0075525Y0064551D02*
X0008600Y0064551D01*
X0008600Y0066149D02*
X0076587Y0066149D01*
X0077130Y0067748D02*
X0071470Y0067748D01*
X0071123Y0067400D02*
X0073700Y0069977D01*
X0073700Y0073623D01*
X0071123Y0076200D01*
X0067477Y0076200D01*
X0064900Y0073623D01*
X0064900Y0069977D01*
X0067477Y0067400D01*
X0071123Y0067400D01*
X0067130Y0067748D02*
X0008600Y0067748D01*
X0008600Y0069346D02*
X0065531Y0069346D01*
X0064900Y0070945D02*
X0008600Y0070945D01*
X0008600Y0072543D02*
X0064900Y0072543D01*
X0065419Y0074142D02*
X0008600Y0074142D01*
X0008600Y0075740D02*
X0067018Y0075740D01*
X0071582Y0075740D02*
X0077018Y0075740D01*
X0075419Y0074142D02*
X0073181Y0074142D01*
X0073700Y0072543D02*
X0074900Y0072543D01*
X0074900Y0070945D02*
X0073700Y0070945D01*
X0073069Y0069346D02*
X0075531Y0069346D01*
X0081582Y0075740D02*
X0084303Y0075740D01*
X0085902Y0077339D02*
X0008600Y0077339D01*
X0008600Y0078937D02*
X0009289Y0078937D01*
X0014311Y0078937D02*
X0039289Y0078937D01*
X0040226Y0078000D02*
X0038000Y0080226D01*
X0038000Y0083374D01*
X0040226Y0085600D01*
X0043374Y0085600D01*
X0045600Y0083374D01*
X0045600Y0080226D01*
X0043374Y0078000D01*
X0040226Y0078000D01*
X0044311Y0078937D02*
X0065940Y0078937D01*
X0064900Y0079977D02*
X0067477Y0077400D01*
X0071123Y0077400D01*
X0073700Y0079977D01*
X0073700Y0083623D01*
X0071123Y0086200D01*
X0067477Y0086200D01*
X0064900Y0083623D01*
X0064900Y0079977D01*
X0064900Y0080536D02*
X0045600Y0080536D01*
X0045600Y0082134D02*
X0064900Y0082134D01*
X0065010Y0083733D02*
X0045241Y0083733D01*
X0038359Y0083733D02*
X0015241Y0083733D01*
X0015600Y0082134D02*
X0038000Y0082134D01*
X0038000Y0080536D02*
X0015600Y0080536D01*
X0013642Y0085332D02*
X0039958Y0085332D01*
X0043642Y0085332D02*
X0066609Y0085332D01*
X0071991Y0085332D02*
X0076609Y0085332D01*
X0077477Y0086200D02*
X0074900Y0083623D01*
X0074900Y0079977D01*
X0077477Y0077400D01*
X0081123Y0077400D01*
X0083700Y0079977D01*
X0083700Y0083623D01*
X0081123Y0086200D01*
X0077477Y0086200D01*
X0081991Y0085332D02*
X0086609Y0085332D01*
X0085010Y0083733D02*
X0083590Y0083733D01*
X0083700Y0082134D02*
X0084900Y0082134D01*
X0084900Y0080536D02*
X0083700Y0080536D01*
X0082660Y0078937D02*
X0085940Y0078937D01*
X0075940Y0078937D02*
X0072660Y0078937D01*
X0073700Y0080536D02*
X0074900Y0080536D01*
X0074900Y0082134D02*
X0073700Y0082134D01*
X0073590Y0083733D02*
X0075010Y0083733D01*
X0009958Y0085332D02*
X0008600Y0085332D01*
X0240639Y0062952D02*
X0302041Y0062952D01*
X0302041Y0064551D02*
X0242238Y0064551D01*
X0243836Y0066149D02*
X0302041Y0066149D01*
X0303042Y0067748D02*
X0245435Y0067748D01*
X0252220Y0069346D02*
X0276380Y0069346D01*
X0275500Y0070945D02*
X0253100Y0070945D01*
X0253100Y0072543D02*
X0275500Y0072543D01*
X0276268Y0074142D02*
X0252332Y0074142D01*
X0253100Y0080536D02*
X0275500Y0080536D01*
X0275500Y0082134D02*
X0253100Y0082134D01*
X0252741Y0083733D02*
X0275859Y0083733D01*
X0277458Y0085332D02*
X0251142Y0085332D01*
X0281142Y0085332D02*
X0326766Y0085332D01*
X0326766Y0083733D02*
X0282741Y0083733D01*
X0283100Y0082134D02*
X0326766Y0082134D01*
X0326766Y0080536D02*
X0283100Y0080536D01*
X0306458Y0075740D02*
X0307024Y0075740D01*
X0307024Y0074142D02*
X0306458Y0074142D01*
X0306458Y0070945D02*
X0307024Y0070945D01*
X0308841Y0069346D02*
X0376136Y0069346D01*
X0375823Y0070945D02*
X0311798Y0070945D01*
X0304641Y0069346D02*
X0282220Y0069346D01*
X0283100Y0070945D02*
X0301684Y0070945D01*
X0310440Y0067748D02*
X0376700Y0067748D01*
X0377564Y0066149D02*
X0311441Y0066149D01*
X0311441Y0064551D02*
X0378760Y0064551D01*
X0380630Y0062952D02*
X0311441Y0062952D01*
X0309942Y0061354D02*
X0383733Y0061354D01*
X0409698Y0024588D02*
X0422323Y0024588D01*
X0422323Y0022990D02*
X0409734Y0022990D01*
X0409734Y0021391D02*
X0422323Y0021391D01*
X0422323Y0019793D02*
X0409734Y0019793D01*
X0402600Y0018194D02*
X0422323Y0018194D01*
X0422323Y0016596D02*
X0409734Y0016596D01*
X0409734Y0014997D02*
X0422323Y0014997D01*
D18*
X0219300Y0038675D03*
X0214925Y0038675D03*
X0208675Y0036175D03*
X0169925Y0040550D03*
X0155550Y0035550D03*
X0128675Y0036175D03*
X0124375Y0041175D03*
X0118675Y0027425D03*
X0073050Y0027425D03*
X0016175Y0031175D03*
X0079925Y0054925D03*
X0077425Y0057425D03*
X0089300Y0058675D03*
X0083050Y0063675D03*
X0085550Y0065550D03*
X0113675Y0068050D03*
X0124300Y0073675D03*
X0136175Y0076800D03*
X0143675Y0084300D03*
X0196800Y0069925D03*
X0200550Y0066175D03*
X0202100Y0060100D03*
X0153050Y0054925D03*
X0206175Y0024925D03*
D19*
X0150550Y0057425D03*
X0181800Y0060000D03*
X0115650Y0058350D03*
X0024300Y0046800D03*
X0024300Y0039300D03*
D20*
X0020550Y0043050D02*
X0014300Y0036800D01*
X0011800Y0036800D01*
X0016175Y0031175D02*
X0011800Y0026800D01*
X0054300Y0019300D02*
X0058050Y0023050D01*
X0058050Y0031800D01*
X0098050Y0031800D01*
X0101800Y0035550D01*
X0103675Y0035550D01*
X0104241Y0035800D01*
X0108675Y0031175D02*
X0110575Y0031875D01*
X0121000Y0031875D01*
X0126000Y0036200D01*
X0126500Y0037800D01*
X0128100Y0038600D01*
X0156175Y0038675D01*
X0163675Y0031175D01*
X0163675Y0024925D01*
X0173050Y0024925D01*
X0178675Y0019300D01*
X0179300Y0019300D01*
X0183675Y0024925D02*
X0189300Y0019300D01*
X0169300Y0019300D02*
X0166175Y0019300D01*
X0161800Y0023675D01*
X0155550Y0023675D01*
X0151175Y0028050D01*
X0119300Y0028050D01*
X0118675Y0027425D01*
X0111175Y0029925D02*
X0107425Y0026175D01*
X0104300Y0026175D01*
X0104241Y0025957D01*
X0099300Y0029925D02*
X0100550Y0031175D01*
X0108675Y0031175D01*
X0111175Y0029925D02*
X0158675Y0029925D01*
X0159300Y0029300D01*
X0169925Y0038050D02*
X0174925Y0033050D01*
X0174925Y0027425D01*
X0177425Y0024925D01*
X0183675Y0024925D01*
X0179300Y0029300D02*
X0179300Y0030550D01*
X0181175Y0030550D01*
X0186800Y0036175D01*
X0208675Y0036175D01*
X0209925Y0033675D02*
X0203675Y0033675D01*
X0199300Y0029300D01*
X0206175Y0024925D02*
X0214925Y0024925D01*
X0214925Y0034300D01*
X0219300Y0038675D01*
X0214925Y0038675D02*
X0209925Y0033675D01*
X0179300Y0031175D02*
X0179300Y0030550D01*
X0179300Y0031175D02*
X0169925Y0040550D01*
X0169925Y0038050D02*
X0159300Y0038050D01*
X0156175Y0041175D01*
X0124375Y0041175D01*
X0124300Y0043675D02*
X0178050Y0043675D01*
X0198050Y0063675D01*
X0238675Y0063675D01*
X0246800Y0071800D01*
X0249300Y0071800D01*
X0200550Y0066175D02*
X0196800Y0069925D01*
X0150550Y0057425D02*
X0143050Y0064925D01*
X0116800Y0064925D01*
X0113675Y0068050D01*
X0104300Y0076175D02*
X0099925Y0071800D01*
X0099300Y0071800D01*
X0087425Y0076175D02*
X0083675Y0072425D01*
X0083675Y0067425D01*
X0083050Y0067425D01*
X0079925Y0064300D01*
X0079925Y0054925D01*
X0077425Y0057425D02*
X0077425Y0064300D01*
X0079300Y0066175D01*
X0079300Y0071800D01*
X0087425Y0076175D02*
X0093675Y0076175D01*
X0099300Y0081800D01*
X0094300Y0086800D02*
X0089300Y0081800D01*
X0104300Y0076175D02*
X0121800Y0076175D01*
X0124300Y0073675D01*
X0088050Y0063050D02*
X0085550Y0065550D01*
X0083050Y0063675D02*
X0088050Y0058675D01*
X0089300Y0058675D01*
X0093050Y0058050D02*
X0109925Y0058050D01*
X0124300Y0043675D01*
X0094300Y0049300D02*
X0094300Y0049325D01*
X0090425Y0044925D01*
X0078050Y0038050D01*
X0048675Y0038050D01*
X0043675Y0043050D01*
X0020550Y0043050D01*
X0054300Y0048675D02*
X0054300Y0049300D01*
X0054300Y0048675D02*
X0062425Y0040550D01*
X0078050Y0040550D01*
X0082425Y0044925D01*
X0084300Y0044925D01*
X0084300Y0049300D01*
X0093050Y0058050D01*
X0088050Y0063050D02*
X0141175Y0063050D01*
X0149300Y0054925D01*
X0153050Y0054925D01*
X0171175Y0054925D01*
X0171741Y0054957D01*
X0155550Y0035550D02*
X0129300Y0035550D01*
X0128675Y0036175D01*
X0099300Y0029925D02*
X0075550Y0029925D01*
X0073050Y0027425D01*
X0141175Y0086800D02*
X0143675Y0084300D01*
X0141175Y0086800D02*
X0094300Y0086800D01*
M02*
