G75*
%MOIN*%
%OFA0B0*%
%FSLAX25Y25*%
%IPPOS*%
%LPD*%
%AMOC8*
5,1,8,0,0,1.08239X$1,22.5*
%
%ADD10C,0.00000*%
D10*
X0006800Y0011800D02*
X0006800Y0088572D01*
X0424123Y0088572D01*
X0424123Y0011800D01*
X0006800Y0011800D01*
X0383001Y0074300D02*
X0383003Y0074458D01*
X0383009Y0074616D01*
X0383019Y0074774D01*
X0383033Y0074932D01*
X0383051Y0075089D01*
X0383072Y0075246D01*
X0383098Y0075402D01*
X0383128Y0075558D01*
X0383161Y0075713D01*
X0383199Y0075866D01*
X0383240Y0076019D01*
X0383285Y0076171D01*
X0383334Y0076322D01*
X0383387Y0076471D01*
X0383443Y0076619D01*
X0383503Y0076765D01*
X0383567Y0076910D01*
X0383635Y0077053D01*
X0383706Y0077195D01*
X0383780Y0077335D01*
X0383858Y0077472D01*
X0383940Y0077608D01*
X0384024Y0077742D01*
X0384113Y0077873D01*
X0384204Y0078002D01*
X0384299Y0078129D01*
X0384396Y0078254D01*
X0384497Y0078376D01*
X0384601Y0078495D01*
X0384708Y0078612D01*
X0384818Y0078726D01*
X0384931Y0078837D01*
X0385046Y0078946D01*
X0385164Y0079051D01*
X0385285Y0079153D01*
X0385408Y0079253D01*
X0385534Y0079349D01*
X0385662Y0079442D01*
X0385792Y0079532D01*
X0385925Y0079618D01*
X0386060Y0079702D01*
X0386196Y0079781D01*
X0386335Y0079858D01*
X0386476Y0079930D01*
X0386618Y0080000D01*
X0386762Y0080065D01*
X0386908Y0080127D01*
X0387055Y0080185D01*
X0387204Y0080240D01*
X0387354Y0080291D01*
X0387505Y0080338D01*
X0387657Y0080381D01*
X0387810Y0080420D01*
X0387965Y0080456D01*
X0388120Y0080487D01*
X0388276Y0080515D01*
X0388432Y0080539D01*
X0388589Y0080559D01*
X0388747Y0080575D01*
X0388904Y0080587D01*
X0389063Y0080595D01*
X0389221Y0080599D01*
X0389379Y0080599D01*
X0389537Y0080595D01*
X0389696Y0080587D01*
X0389853Y0080575D01*
X0390011Y0080559D01*
X0390168Y0080539D01*
X0390324Y0080515D01*
X0390480Y0080487D01*
X0390635Y0080456D01*
X0390790Y0080420D01*
X0390943Y0080381D01*
X0391095Y0080338D01*
X0391246Y0080291D01*
X0391396Y0080240D01*
X0391545Y0080185D01*
X0391692Y0080127D01*
X0391838Y0080065D01*
X0391982Y0080000D01*
X0392124Y0079930D01*
X0392265Y0079858D01*
X0392404Y0079781D01*
X0392540Y0079702D01*
X0392675Y0079618D01*
X0392808Y0079532D01*
X0392938Y0079442D01*
X0393066Y0079349D01*
X0393192Y0079253D01*
X0393315Y0079153D01*
X0393436Y0079051D01*
X0393554Y0078946D01*
X0393669Y0078837D01*
X0393782Y0078726D01*
X0393892Y0078612D01*
X0393999Y0078495D01*
X0394103Y0078376D01*
X0394204Y0078254D01*
X0394301Y0078129D01*
X0394396Y0078002D01*
X0394487Y0077873D01*
X0394576Y0077742D01*
X0394660Y0077608D01*
X0394742Y0077472D01*
X0394820Y0077335D01*
X0394894Y0077195D01*
X0394965Y0077053D01*
X0395033Y0076910D01*
X0395097Y0076765D01*
X0395157Y0076619D01*
X0395213Y0076471D01*
X0395266Y0076322D01*
X0395315Y0076171D01*
X0395360Y0076019D01*
X0395401Y0075866D01*
X0395439Y0075713D01*
X0395472Y0075558D01*
X0395502Y0075402D01*
X0395528Y0075246D01*
X0395549Y0075089D01*
X0395567Y0074932D01*
X0395581Y0074774D01*
X0395591Y0074616D01*
X0395597Y0074458D01*
X0395599Y0074300D01*
X0395597Y0074142D01*
X0395591Y0073984D01*
X0395581Y0073826D01*
X0395567Y0073668D01*
X0395549Y0073511D01*
X0395528Y0073354D01*
X0395502Y0073198D01*
X0395472Y0073042D01*
X0395439Y0072887D01*
X0395401Y0072734D01*
X0395360Y0072581D01*
X0395315Y0072429D01*
X0395266Y0072278D01*
X0395213Y0072129D01*
X0395157Y0071981D01*
X0395097Y0071835D01*
X0395033Y0071690D01*
X0394965Y0071547D01*
X0394894Y0071405D01*
X0394820Y0071265D01*
X0394742Y0071128D01*
X0394660Y0070992D01*
X0394576Y0070858D01*
X0394487Y0070727D01*
X0394396Y0070598D01*
X0394301Y0070471D01*
X0394204Y0070346D01*
X0394103Y0070224D01*
X0393999Y0070105D01*
X0393892Y0069988D01*
X0393782Y0069874D01*
X0393669Y0069763D01*
X0393554Y0069654D01*
X0393436Y0069549D01*
X0393315Y0069447D01*
X0393192Y0069347D01*
X0393066Y0069251D01*
X0392938Y0069158D01*
X0392808Y0069068D01*
X0392675Y0068982D01*
X0392540Y0068898D01*
X0392404Y0068819D01*
X0392265Y0068742D01*
X0392124Y0068670D01*
X0391982Y0068600D01*
X0391838Y0068535D01*
X0391692Y0068473D01*
X0391545Y0068415D01*
X0391396Y0068360D01*
X0391246Y0068309D01*
X0391095Y0068262D01*
X0390943Y0068219D01*
X0390790Y0068180D01*
X0390635Y0068144D01*
X0390480Y0068113D01*
X0390324Y0068085D01*
X0390168Y0068061D01*
X0390011Y0068041D01*
X0389853Y0068025D01*
X0389696Y0068013D01*
X0389537Y0068005D01*
X0389379Y0068001D01*
X0389221Y0068001D01*
X0389063Y0068005D01*
X0388904Y0068013D01*
X0388747Y0068025D01*
X0388589Y0068041D01*
X0388432Y0068061D01*
X0388276Y0068085D01*
X0388120Y0068113D01*
X0387965Y0068144D01*
X0387810Y0068180D01*
X0387657Y0068219D01*
X0387505Y0068262D01*
X0387354Y0068309D01*
X0387204Y0068360D01*
X0387055Y0068415D01*
X0386908Y0068473D01*
X0386762Y0068535D01*
X0386618Y0068600D01*
X0386476Y0068670D01*
X0386335Y0068742D01*
X0386196Y0068819D01*
X0386060Y0068898D01*
X0385925Y0068982D01*
X0385792Y0069068D01*
X0385662Y0069158D01*
X0385534Y0069251D01*
X0385408Y0069347D01*
X0385285Y0069447D01*
X0385164Y0069549D01*
X0385046Y0069654D01*
X0384931Y0069763D01*
X0384818Y0069874D01*
X0384708Y0069988D01*
X0384601Y0070105D01*
X0384497Y0070224D01*
X0384396Y0070346D01*
X0384299Y0070471D01*
X0384204Y0070598D01*
X0384113Y0070727D01*
X0384024Y0070858D01*
X0383940Y0070992D01*
X0383858Y0071128D01*
X0383780Y0071265D01*
X0383706Y0071405D01*
X0383635Y0071547D01*
X0383567Y0071690D01*
X0383503Y0071835D01*
X0383443Y0071981D01*
X0383387Y0072129D01*
X0383334Y0072278D01*
X0383285Y0072429D01*
X0383240Y0072581D01*
X0383199Y0072734D01*
X0383161Y0072887D01*
X0383128Y0073042D01*
X0383098Y0073198D01*
X0383072Y0073354D01*
X0383051Y0073511D01*
X0383033Y0073668D01*
X0383019Y0073826D01*
X0383009Y0073984D01*
X0383003Y0074142D01*
X0383001Y0074300D01*
M02*
