%
M48
M72
T01C0.0120
T02C0.0130
T03C0.0320
T04C0.0400
T05C0.0433
T06C0.0827
T07C0.1260
%
T01
X7305Y2743
X11868Y2743
X12868Y3618
X12438Y4118
X15555Y3555
X16993Y4055
X20868Y3618
X21493Y3868
X21930Y3868
X20618Y2493
X15305Y5493
X20055Y6618
X19680Y6993
X20210Y6010
X13618Y7680
X12430Y7368
X11368Y6805
X8555Y6555
X8305Y6368
X8930Y5868
X7743Y5743
X7993Y5493
X1618Y3118
X14368Y8430
T02
X18180Y6000
X15055Y5743
X11565Y5835
X2430Y4680
X2430Y3930
T03
X1180Y1680
X4180Y1680
X5430Y1930
X6430Y1930
X7430Y1930
X8430Y1930
X9430Y1930
X4180Y2680
X1180Y2680
X1180Y3680
X4180Y3680
X5430Y4930
X6430Y4930
X7430Y4930
X8430Y4930
X9430Y4930
X15180Y6430
X16180Y6430
X16180Y8430
X15180Y8430
X24930Y8180
X27930Y8180
X27930Y7180
X24930Y7180
X31930Y3430
X34930Y3430
X34930Y2430
X31930Y2430
X4180Y8180
X1180Y8180
T04
X6930Y8180
X7930Y8180
X8930Y8180
X9930Y8180
X10930Y8180
X11930Y8180
X12930Y8180
X13930Y8180
X13930Y7180
X12930Y7180
X11930Y7180
X10930Y7180
X9930Y7180
X8930Y7180
X7930Y7180
X6930Y7180
X15930Y2930
X16930Y2930
X17930Y2930
X18930Y2930
X19930Y2930
X20930Y2930
X21930Y2930
X22930Y2930
X22930Y1930
X21930Y1930
X20930Y1930
X19930Y1930
X18930Y1930
X17930Y1930
X16930Y1930
X15930Y1930
T05
X10424Y2596
X10424Y3580
X10424Y4564
X5739Y5930
X4558Y5930
X1211Y5930
X17174Y5496
X17174Y6480
X17174Y7464
X23924Y4564
X23924Y3580
X23924Y2596
X30674Y5496
X30674Y6480
X30674Y7464
X37424Y4564
X37424Y3580
X37424Y2596
T06
X40180Y1808
X33430Y4708
X26680Y5352
X19930Y4708
X13180Y5352
X19930Y8252
X33430Y8252
X40180Y5352
X26680Y1808
X13180Y1808
T07
X38930Y7430
M30
