G75*
%MOIN*%
%OFA0B0*%
%FSLAX25Y25*%
%IPPOS*%
%LPD*%
%AMOC8*
5,1,8,0,0,1.08239X$1,22.5*
%
%ADD10C,0.00500*%
%ADD11C,0.00600*%
%ADD12C,0.00400*%
%ADD13C,0.00800*%
%ADD14C,0.00200*%
%ADD15C,0.00300*%
D10*
X0027340Y0013105D02*
X0030009Y0013105D01*
X0028674Y0013105D02*
X0028674Y0017108D01*
X0027340Y0015774D01*
X0031483Y0016441D02*
X0032151Y0017108D01*
X0033485Y0017108D01*
X0034152Y0016441D01*
X0031483Y0013772D01*
X0032151Y0013105D01*
X0033485Y0013105D01*
X0034152Y0013772D01*
X0034152Y0016441D01*
X0035627Y0017108D02*
X0035627Y0013105D01*
X0035627Y0014439D02*
X0037629Y0013105D01*
X0035627Y0014439D02*
X0037629Y0015774D01*
X0031483Y0016441D02*
X0031483Y0013772D01*
X0032151Y0023105D02*
X0031483Y0023772D01*
X0034152Y0026441D01*
X0034152Y0023772D01*
X0033485Y0023105D01*
X0032151Y0023105D01*
X0031483Y0023772D02*
X0031483Y0026441D01*
X0032151Y0027108D01*
X0033485Y0027108D01*
X0034152Y0026441D01*
X0035627Y0027108D02*
X0035627Y0023105D01*
X0035627Y0024439D02*
X0037629Y0023105D01*
X0035627Y0024439D02*
X0037629Y0025774D01*
X0028674Y0027108D02*
X0027340Y0025774D01*
X0028674Y0027108D02*
X0028674Y0023105D01*
X0027340Y0023105D02*
X0030009Y0023105D01*
X0030009Y0033105D02*
X0027340Y0033105D01*
X0028674Y0033105D02*
X0028674Y0037108D01*
X0027340Y0035774D01*
X0031483Y0036441D02*
X0032151Y0037108D01*
X0033485Y0037108D01*
X0034152Y0036441D01*
X0031483Y0033772D01*
X0032151Y0033105D01*
X0033485Y0033105D01*
X0034152Y0033772D01*
X0034152Y0036441D01*
X0035627Y0037108D02*
X0035627Y0033105D01*
X0035627Y0034439D02*
X0037629Y0033105D01*
X0035627Y0034439D02*
X0037629Y0035774D01*
X0031483Y0036441D02*
X0031483Y0033772D01*
X0053992Y0036174D02*
X0055326Y0034840D01*
X0053992Y0036174D02*
X0057995Y0036174D01*
X0057995Y0034840D02*
X0057995Y0037509D01*
X0057328Y0038983D02*
X0054659Y0038983D01*
X0053992Y0039651D01*
X0053992Y0040985D01*
X0054659Y0041652D01*
X0057328Y0038983D01*
X0057995Y0039651D01*
X0057995Y0040985D01*
X0057328Y0041652D01*
X0054659Y0041652D01*
X0053992Y0043127D02*
X0057995Y0043127D01*
X0056661Y0043127D02*
X0055326Y0045129D01*
X0056661Y0043127D02*
X0057995Y0045129D01*
X0049517Y0041583D02*
X0049517Y0060087D01*
X0058178Y0060087D01*
X0058178Y0058513D01*
X0049910Y0058513D01*
X0049517Y0060087D02*
X0049517Y0077017D01*
X0008178Y0077017D01*
X0008178Y0065206D01*
X0016052Y0065206D01*
X0016052Y0053394D01*
X0008178Y0053394D01*
X0008178Y0065206D01*
X0021207Y0059300D02*
X0021210Y0059560D01*
X0021220Y0059820D01*
X0021236Y0060079D01*
X0021258Y0060338D01*
X0021287Y0060597D01*
X0021322Y0060854D01*
X0021363Y0061111D01*
X0021411Y0061367D01*
X0021464Y0061621D01*
X0021524Y0061874D01*
X0021591Y0062125D01*
X0021663Y0062375D01*
X0021742Y0062623D01*
X0021826Y0062869D01*
X0021917Y0063112D01*
X0022013Y0063354D01*
X0022116Y0063593D01*
X0022224Y0063829D01*
X0022338Y0064063D01*
X0022458Y0064294D01*
X0022583Y0064521D01*
X0022714Y0064746D01*
X0022850Y0064967D01*
X0022992Y0065185D01*
X0023139Y0065400D01*
X0023292Y0065610D01*
X0023449Y0065817D01*
X0023612Y0066020D01*
X0023779Y0066219D01*
X0023951Y0066414D01*
X0024128Y0066604D01*
X0024310Y0066790D01*
X0024496Y0066972D01*
X0024686Y0067149D01*
X0024881Y0067321D01*
X0025080Y0067488D01*
X0025283Y0067651D01*
X0025490Y0067808D01*
X0025700Y0067961D01*
X0025915Y0068108D01*
X0026133Y0068250D01*
X0026354Y0068386D01*
X0026579Y0068517D01*
X0026806Y0068642D01*
X0027037Y0068762D01*
X0027271Y0068876D01*
X0027507Y0068984D01*
X0027746Y0069087D01*
X0027988Y0069183D01*
X0028231Y0069274D01*
X0028477Y0069358D01*
X0028725Y0069437D01*
X0028975Y0069509D01*
X0029226Y0069576D01*
X0029479Y0069636D01*
X0029733Y0069689D01*
X0029989Y0069737D01*
X0030246Y0069778D01*
X0030503Y0069813D01*
X0030762Y0069842D01*
X0031021Y0069864D01*
X0031280Y0069880D01*
X0031540Y0069890D01*
X0031800Y0069893D01*
X0032060Y0069890D01*
X0032320Y0069880D01*
X0032579Y0069864D01*
X0032838Y0069842D01*
X0033097Y0069813D01*
X0033354Y0069778D01*
X0033611Y0069737D01*
X0033867Y0069689D01*
X0034121Y0069636D01*
X0034374Y0069576D01*
X0034625Y0069509D01*
X0034875Y0069437D01*
X0035123Y0069358D01*
X0035369Y0069274D01*
X0035612Y0069183D01*
X0035854Y0069087D01*
X0036093Y0068984D01*
X0036329Y0068876D01*
X0036563Y0068762D01*
X0036794Y0068642D01*
X0037021Y0068517D01*
X0037246Y0068386D01*
X0037467Y0068250D01*
X0037685Y0068108D01*
X0037900Y0067961D01*
X0038110Y0067808D01*
X0038317Y0067651D01*
X0038520Y0067488D01*
X0038719Y0067321D01*
X0038914Y0067149D01*
X0039104Y0066972D01*
X0039290Y0066790D01*
X0039472Y0066604D01*
X0039649Y0066414D01*
X0039821Y0066219D01*
X0039988Y0066020D01*
X0040151Y0065817D01*
X0040308Y0065610D01*
X0040461Y0065400D01*
X0040608Y0065185D01*
X0040750Y0064967D01*
X0040886Y0064746D01*
X0041017Y0064521D01*
X0041142Y0064294D01*
X0041262Y0064063D01*
X0041376Y0063829D01*
X0041484Y0063593D01*
X0041587Y0063354D01*
X0041683Y0063112D01*
X0041774Y0062869D01*
X0041858Y0062623D01*
X0041937Y0062375D01*
X0042009Y0062125D01*
X0042076Y0061874D01*
X0042136Y0061621D01*
X0042189Y0061367D01*
X0042237Y0061111D01*
X0042278Y0060854D01*
X0042313Y0060597D01*
X0042342Y0060338D01*
X0042364Y0060079D01*
X0042380Y0059820D01*
X0042390Y0059560D01*
X0042393Y0059300D01*
X0042390Y0059040D01*
X0042380Y0058780D01*
X0042364Y0058521D01*
X0042342Y0058262D01*
X0042313Y0058003D01*
X0042278Y0057746D01*
X0042237Y0057489D01*
X0042189Y0057233D01*
X0042136Y0056979D01*
X0042076Y0056726D01*
X0042009Y0056475D01*
X0041937Y0056225D01*
X0041858Y0055977D01*
X0041774Y0055731D01*
X0041683Y0055488D01*
X0041587Y0055246D01*
X0041484Y0055007D01*
X0041376Y0054771D01*
X0041262Y0054537D01*
X0041142Y0054306D01*
X0041017Y0054079D01*
X0040886Y0053854D01*
X0040750Y0053633D01*
X0040608Y0053415D01*
X0040461Y0053200D01*
X0040308Y0052990D01*
X0040151Y0052783D01*
X0039988Y0052580D01*
X0039821Y0052381D01*
X0039649Y0052186D01*
X0039472Y0051996D01*
X0039290Y0051810D01*
X0039104Y0051628D01*
X0038914Y0051451D01*
X0038719Y0051279D01*
X0038520Y0051112D01*
X0038317Y0050949D01*
X0038110Y0050792D01*
X0037900Y0050639D01*
X0037685Y0050492D01*
X0037467Y0050350D01*
X0037246Y0050214D01*
X0037021Y0050083D01*
X0036794Y0049958D01*
X0036563Y0049838D01*
X0036329Y0049724D01*
X0036093Y0049616D01*
X0035854Y0049513D01*
X0035612Y0049417D01*
X0035369Y0049326D01*
X0035123Y0049242D01*
X0034875Y0049163D01*
X0034625Y0049091D01*
X0034374Y0049024D01*
X0034121Y0048964D01*
X0033867Y0048911D01*
X0033611Y0048863D01*
X0033354Y0048822D01*
X0033097Y0048787D01*
X0032838Y0048758D01*
X0032579Y0048736D01*
X0032320Y0048720D01*
X0032060Y0048710D01*
X0031800Y0048707D01*
X0031540Y0048710D01*
X0031280Y0048720D01*
X0031021Y0048736D01*
X0030762Y0048758D01*
X0030503Y0048787D01*
X0030246Y0048822D01*
X0029989Y0048863D01*
X0029733Y0048911D01*
X0029479Y0048964D01*
X0029226Y0049024D01*
X0028975Y0049091D01*
X0028725Y0049163D01*
X0028477Y0049242D01*
X0028231Y0049326D01*
X0027988Y0049417D01*
X0027746Y0049513D01*
X0027507Y0049616D01*
X0027271Y0049724D01*
X0027037Y0049838D01*
X0026806Y0049958D01*
X0026579Y0050083D01*
X0026354Y0050214D01*
X0026133Y0050350D01*
X0025915Y0050492D01*
X0025700Y0050639D01*
X0025490Y0050792D01*
X0025283Y0050949D01*
X0025080Y0051112D01*
X0024881Y0051279D01*
X0024686Y0051451D01*
X0024496Y0051628D01*
X0024310Y0051810D01*
X0024128Y0051996D01*
X0023951Y0052186D01*
X0023779Y0052381D01*
X0023612Y0052580D01*
X0023449Y0052783D01*
X0023292Y0052990D01*
X0023139Y0053200D01*
X0022992Y0053415D01*
X0022850Y0053633D01*
X0022714Y0053854D01*
X0022583Y0054079D01*
X0022458Y0054306D01*
X0022338Y0054537D01*
X0022224Y0054771D01*
X0022116Y0055007D01*
X0022013Y0055246D01*
X0021917Y0055488D01*
X0021826Y0055731D01*
X0021742Y0055977D01*
X0021663Y0056225D01*
X0021591Y0056475D01*
X0021524Y0056726D01*
X0021464Y0056979D01*
X0021411Y0057233D01*
X0021363Y0057489D01*
X0021322Y0057746D01*
X0021287Y0058003D01*
X0021258Y0058262D01*
X0021236Y0058521D01*
X0021220Y0058780D01*
X0021210Y0059040D01*
X0021207Y0059300D01*
X0019350Y0059300D02*
X0019354Y0059606D01*
X0019365Y0059911D01*
X0019384Y0060216D01*
X0019410Y0060520D01*
X0019444Y0060824D01*
X0019485Y0061127D01*
X0019533Y0061428D01*
X0019589Y0061729D01*
X0019653Y0062028D01*
X0019723Y0062325D01*
X0019801Y0062621D01*
X0019886Y0062914D01*
X0019978Y0063205D01*
X0020078Y0063494D01*
X0020184Y0063781D01*
X0020298Y0064064D01*
X0020418Y0064345D01*
X0020545Y0064623D01*
X0020679Y0064898D01*
X0020820Y0065169D01*
X0020967Y0065437D01*
X0021121Y0065701D01*
X0021282Y0065961D01*
X0021448Y0066217D01*
X0021621Y0066469D01*
X0021800Y0066716D01*
X0021985Y0066960D01*
X0022176Y0067198D01*
X0022373Y0067432D01*
X0022575Y0067661D01*
X0022783Y0067885D01*
X0022997Y0068103D01*
X0023215Y0068317D01*
X0023439Y0068525D01*
X0023668Y0068727D01*
X0023902Y0068924D01*
X0024140Y0069115D01*
X0024384Y0069300D01*
X0024631Y0069479D01*
X0024883Y0069652D01*
X0025139Y0069818D01*
X0025399Y0069979D01*
X0025663Y0070133D01*
X0025931Y0070280D01*
X0026202Y0070421D01*
X0026477Y0070555D01*
X0026755Y0070682D01*
X0027036Y0070802D01*
X0027319Y0070916D01*
X0027606Y0071022D01*
X0027895Y0071122D01*
X0028186Y0071214D01*
X0028479Y0071299D01*
X0028775Y0071377D01*
X0029072Y0071447D01*
X0029371Y0071511D01*
X0029672Y0071567D01*
X0029973Y0071615D01*
X0030276Y0071656D01*
X0030580Y0071690D01*
X0030884Y0071716D01*
X0031189Y0071735D01*
X0031494Y0071746D01*
X0031800Y0071750D01*
X0032106Y0071746D01*
X0032411Y0071735D01*
X0032716Y0071716D01*
X0033020Y0071690D01*
X0033324Y0071656D01*
X0033627Y0071615D01*
X0033928Y0071567D01*
X0034229Y0071511D01*
X0034528Y0071447D01*
X0034825Y0071377D01*
X0035121Y0071299D01*
X0035414Y0071214D01*
X0035705Y0071122D01*
X0035994Y0071022D01*
X0036281Y0070916D01*
X0036564Y0070802D01*
X0036845Y0070682D01*
X0037123Y0070555D01*
X0037398Y0070421D01*
X0037669Y0070280D01*
X0037937Y0070133D01*
X0038201Y0069979D01*
X0038461Y0069818D01*
X0038717Y0069652D01*
X0038969Y0069479D01*
X0039216Y0069300D01*
X0039460Y0069115D01*
X0039698Y0068924D01*
X0039932Y0068727D01*
X0040161Y0068525D01*
X0040385Y0068317D01*
X0040603Y0068103D01*
X0040817Y0067885D01*
X0041025Y0067661D01*
X0041227Y0067432D01*
X0041424Y0067198D01*
X0041615Y0066960D01*
X0041800Y0066716D01*
X0041979Y0066469D01*
X0042152Y0066217D01*
X0042318Y0065961D01*
X0042479Y0065701D01*
X0042633Y0065437D01*
X0042780Y0065169D01*
X0042921Y0064898D01*
X0043055Y0064623D01*
X0043182Y0064345D01*
X0043302Y0064064D01*
X0043416Y0063781D01*
X0043522Y0063494D01*
X0043622Y0063205D01*
X0043714Y0062914D01*
X0043799Y0062621D01*
X0043877Y0062325D01*
X0043947Y0062028D01*
X0044011Y0061729D01*
X0044067Y0061428D01*
X0044115Y0061127D01*
X0044156Y0060824D01*
X0044190Y0060520D01*
X0044216Y0060216D01*
X0044235Y0059911D01*
X0044246Y0059606D01*
X0044250Y0059300D01*
X0044246Y0058994D01*
X0044235Y0058689D01*
X0044216Y0058384D01*
X0044190Y0058080D01*
X0044156Y0057776D01*
X0044115Y0057473D01*
X0044067Y0057172D01*
X0044011Y0056871D01*
X0043947Y0056572D01*
X0043877Y0056275D01*
X0043799Y0055979D01*
X0043714Y0055686D01*
X0043622Y0055395D01*
X0043522Y0055106D01*
X0043416Y0054819D01*
X0043302Y0054536D01*
X0043182Y0054255D01*
X0043055Y0053977D01*
X0042921Y0053702D01*
X0042780Y0053431D01*
X0042633Y0053163D01*
X0042479Y0052899D01*
X0042318Y0052639D01*
X0042152Y0052383D01*
X0041979Y0052131D01*
X0041800Y0051884D01*
X0041615Y0051640D01*
X0041424Y0051402D01*
X0041227Y0051168D01*
X0041025Y0050939D01*
X0040817Y0050715D01*
X0040603Y0050497D01*
X0040385Y0050283D01*
X0040161Y0050075D01*
X0039932Y0049873D01*
X0039698Y0049676D01*
X0039460Y0049485D01*
X0039216Y0049300D01*
X0038969Y0049121D01*
X0038717Y0048948D01*
X0038461Y0048782D01*
X0038201Y0048621D01*
X0037937Y0048467D01*
X0037669Y0048320D01*
X0037398Y0048179D01*
X0037123Y0048045D01*
X0036845Y0047918D01*
X0036564Y0047798D01*
X0036281Y0047684D01*
X0035994Y0047578D01*
X0035705Y0047478D01*
X0035414Y0047386D01*
X0035121Y0047301D01*
X0034825Y0047223D01*
X0034528Y0047153D01*
X0034229Y0047089D01*
X0033928Y0047033D01*
X0033627Y0046985D01*
X0033324Y0046944D01*
X0033020Y0046910D01*
X0032716Y0046884D01*
X0032411Y0046865D01*
X0032106Y0046854D01*
X0031800Y0046850D01*
X0031494Y0046854D01*
X0031189Y0046865D01*
X0030884Y0046884D01*
X0030580Y0046910D01*
X0030276Y0046944D01*
X0029973Y0046985D01*
X0029672Y0047033D01*
X0029371Y0047089D01*
X0029072Y0047153D01*
X0028775Y0047223D01*
X0028479Y0047301D01*
X0028186Y0047386D01*
X0027895Y0047478D01*
X0027606Y0047578D01*
X0027319Y0047684D01*
X0027036Y0047798D01*
X0026755Y0047918D01*
X0026477Y0048045D01*
X0026202Y0048179D01*
X0025931Y0048320D01*
X0025663Y0048467D01*
X0025399Y0048621D01*
X0025139Y0048782D01*
X0024883Y0048948D01*
X0024631Y0049121D01*
X0024384Y0049300D01*
X0024140Y0049485D01*
X0023902Y0049676D01*
X0023668Y0049873D01*
X0023439Y0050075D01*
X0023215Y0050283D01*
X0022997Y0050497D01*
X0022783Y0050715D01*
X0022575Y0050939D01*
X0022373Y0051168D01*
X0022176Y0051402D01*
X0021985Y0051640D01*
X0021800Y0051884D01*
X0021621Y0052131D01*
X0021448Y0052383D01*
X0021282Y0052639D01*
X0021121Y0052899D01*
X0020967Y0053163D01*
X0020820Y0053431D01*
X0020679Y0053702D01*
X0020545Y0053977D01*
X0020418Y0054255D01*
X0020298Y0054536D01*
X0020184Y0054819D01*
X0020078Y0055106D01*
X0019978Y0055395D01*
X0019886Y0055686D01*
X0019801Y0055979D01*
X0019723Y0056275D01*
X0019653Y0056572D01*
X0019589Y0056871D01*
X0019533Y0057172D01*
X0019485Y0057473D01*
X0019444Y0057776D01*
X0019410Y0058080D01*
X0019384Y0058384D01*
X0019365Y0058689D01*
X0019354Y0058994D01*
X0019350Y0059300D01*
X0008178Y0053394D02*
X0008178Y0041583D01*
X0049517Y0041583D01*
X0037629Y0078105D02*
X0035627Y0079439D01*
X0037629Y0080774D01*
X0032818Y0082108D02*
X0031483Y0080774D01*
X0032818Y0082108D02*
X0032818Y0078105D01*
X0034152Y0078105D02*
X0031483Y0078105D01*
X0035627Y0078105D02*
X0035627Y0082108D01*
X0264840Y0080774D02*
X0266174Y0082108D01*
X0266174Y0078105D01*
X0264840Y0078105D02*
X0267509Y0078105D01*
X0268983Y0078772D02*
X0271652Y0081441D01*
X0271652Y0078772D01*
X0270985Y0078105D01*
X0269651Y0078105D01*
X0268983Y0078772D01*
X0268983Y0081441D01*
X0269651Y0082108D01*
X0270985Y0082108D01*
X0271652Y0081441D01*
X0273127Y0082108D02*
X0273127Y0078105D01*
X0273127Y0079439D02*
X0275129Y0078105D01*
X0273127Y0079439D02*
X0275129Y0080774D01*
X0273127Y0072108D02*
X0273127Y0068105D01*
X0273127Y0069439D02*
X0275129Y0068105D01*
X0273127Y0069439D02*
X0275129Y0070774D01*
X0271652Y0071441D02*
X0268983Y0068772D01*
X0269651Y0068105D01*
X0270985Y0068105D01*
X0271652Y0068772D01*
X0271652Y0071441D01*
X0270985Y0072108D01*
X0269651Y0072108D01*
X0268983Y0071441D01*
X0268983Y0068772D01*
X0267509Y0068105D02*
X0264840Y0068105D01*
X0266174Y0068105D02*
X0266174Y0072108D01*
X0264840Y0070774D01*
X0334840Y0033274D02*
X0336174Y0034608D01*
X0336174Y0030605D01*
X0334840Y0030605D02*
X0337509Y0030605D01*
X0338983Y0031272D02*
X0341652Y0033941D01*
X0341652Y0031272D01*
X0340985Y0030605D01*
X0339651Y0030605D01*
X0338983Y0031272D01*
X0338983Y0033941D01*
X0339651Y0034608D01*
X0340985Y0034608D01*
X0341652Y0033941D01*
X0343127Y0034608D02*
X0343127Y0030605D01*
X0343127Y0031939D02*
X0345129Y0030605D01*
X0343127Y0031939D02*
X0345129Y0033274D01*
X0343127Y0024608D02*
X0343127Y0020605D01*
X0343127Y0021939D02*
X0345129Y0020605D01*
X0341652Y0021272D02*
X0340985Y0020605D01*
X0339651Y0020605D01*
X0338983Y0021272D01*
X0341652Y0023941D01*
X0341652Y0021272D01*
X0343127Y0021939D02*
X0345129Y0023274D01*
X0341652Y0023941D02*
X0340985Y0024608D01*
X0339651Y0024608D01*
X0338983Y0023941D01*
X0338983Y0021272D01*
X0337509Y0020605D02*
X0334840Y0020605D01*
X0336174Y0020605D02*
X0336174Y0024608D01*
X0334840Y0023274D01*
D11*
X0016800Y0012300D02*
X0015300Y0012300D01*
X0015240Y0012302D01*
X0015179Y0012307D01*
X0015120Y0012316D01*
X0015061Y0012329D01*
X0015002Y0012345D01*
X0014945Y0012365D01*
X0014890Y0012388D01*
X0014835Y0012415D01*
X0014783Y0012444D01*
X0014732Y0012477D01*
X0014683Y0012513D01*
X0014637Y0012551D01*
X0014593Y0012593D01*
X0014551Y0012637D01*
X0014513Y0012683D01*
X0014477Y0012732D01*
X0014444Y0012783D01*
X0014415Y0012835D01*
X0014388Y0012890D01*
X0014365Y0012945D01*
X0014345Y0013002D01*
X0014329Y0013061D01*
X0014316Y0013120D01*
X0014307Y0013179D01*
X0014302Y0013240D01*
X0014300Y0013300D01*
X0036800Y0012300D02*
X0038300Y0012300D01*
X0038360Y0012302D01*
X0038421Y0012307D01*
X0038480Y0012316D01*
X0038539Y0012329D01*
X0038598Y0012345D01*
X0038655Y0012365D01*
X0038710Y0012388D01*
X0038765Y0012415D01*
X0038817Y0012444D01*
X0038868Y0012477D01*
X0038917Y0012513D01*
X0038963Y0012551D01*
X0039007Y0012593D01*
X0039049Y0012637D01*
X0039087Y0012683D01*
X0039123Y0012732D01*
X0039156Y0012783D01*
X0039185Y0012835D01*
X0039212Y0012890D01*
X0039235Y0012945D01*
X0039255Y0013002D01*
X0039271Y0013061D01*
X0039284Y0013120D01*
X0039293Y0013179D01*
X0039298Y0013240D01*
X0039300Y0013300D01*
X0039300Y0020300D02*
X0039298Y0020360D01*
X0039293Y0020421D01*
X0039284Y0020480D01*
X0039271Y0020539D01*
X0039255Y0020598D01*
X0039235Y0020655D01*
X0039212Y0020710D01*
X0039185Y0020765D01*
X0039156Y0020817D01*
X0039123Y0020868D01*
X0039087Y0020917D01*
X0039049Y0020963D01*
X0039007Y0021007D01*
X0038963Y0021049D01*
X0038917Y0021087D01*
X0038868Y0021123D01*
X0038817Y0021156D01*
X0038765Y0021185D01*
X0038710Y0021212D01*
X0038655Y0021235D01*
X0038598Y0021255D01*
X0038539Y0021271D01*
X0038480Y0021284D01*
X0038421Y0021293D01*
X0038360Y0021298D01*
X0038300Y0021300D01*
X0036800Y0021300D01*
X0036800Y0022300D02*
X0038300Y0022300D01*
X0038360Y0022302D01*
X0038421Y0022307D01*
X0038480Y0022316D01*
X0038539Y0022329D01*
X0038598Y0022345D01*
X0038655Y0022365D01*
X0038710Y0022388D01*
X0038765Y0022415D01*
X0038817Y0022444D01*
X0038868Y0022477D01*
X0038917Y0022513D01*
X0038963Y0022551D01*
X0039007Y0022593D01*
X0039049Y0022637D01*
X0039087Y0022683D01*
X0039123Y0022732D01*
X0039156Y0022783D01*
X0039185Y0022835D01*
X0039212Y0022890D01*
X0039235Y0022945D01*
X0039255Y0023002D01*
X0039271Y0023061D01*
X0039284Y0023120D01*
X0039293Y0023179D01*
X0039298Y0023240D01*
X0039300Y0023300D01*
X0049800Y0022800D02*
X0049800Y0024300D01*
X0049800Y0022800D02*
X0049802Y0022740D01*
X0049807Y0022679D01*
X0049816Y0022620D01*
X0049829Y0022561D01*
X0049845Y0022502D01*
X0049865Y0022445D01*
X0049888Y0022390D01*
X0049915Y0022335D01*
X0049944Y0022283D01*
X0049977Y0022232D01*
X0050013Y0022183D01*
X0050051Y0022137D01*
X0050093Y0022093D01*
X0050137Y0022051D01*
X0050183Y0022013D01*
X0050232Y0021977D01*
X0050283Y0021944D01*
X0050335Y0021915D01*
X0050390Y0021888D01*
X0050445Y0021865D01*
X0050502Y0021845D01*
X0050561Y0021829D01*
X0050620Y0021816D01*
X0050679Y0021807D01*
X0050740Y0021802D01*
X0050800Y0021800D01*
X0057800Y0021800D02*
X0057860Y0021802D01*
X0057921Y0021807D01*
X0057980Y0021816D01*
X0058039Y0021829D01*
X0058098Y0021845D01*
X0058155Y0021865D01*
X0058210Y0021888D01*
X0058265Y0021915D01*
X0058317Y0021944D01*
X0058368Y0021977D01*
X0058417Y0022013D01*
X0058463Y0022051D01*
X0058507Y0022093D01*
X0058549Y0022137D01*
X0058587Y0022183D01*
X0058623Y0022232D01*
X0058656Y0022283D01*
X0058685Y0022335D01*
X0058712Y0022390D01*
X0058735Y0022445D01*
X0058755Y0022502D01*
X0058771Y0022561D01*
X0058784Y0022620D01*
X0058793Y0022679D01*
X0058798Y0022740D01*
X0058800Y0022800D01*
X0058800Y0024300D01*
X0059300Y0022800D02*
X0059300Y0045800D01*
X0099300Y0045800D01*
X0099300Y0038300D01*
X0099174Y0038298D01*
X0099049Y0038292D01*
X0098924Y0038282D01*
X0098799Y0038268D01*
X0098674Y0038251D01*
X0098550Y0038229D01*
X0098427Y0038204D01*
X0098305Y0038174D01*
X0098184Y0038141D01*
X0098064Y0038104D01*
X0097945Y0038064D01*
X0097828Y0038019D01*
X0097711Y0037971D01*
X0097597Y0037919D01*
X0097484Y0037864D01*
X0097373Y0037805D01*
X0097264Y0037743D01*
X0097157Y0037677D01*
X0097052Y0037608D01*
X0096949Y0037536D01*
X0096848Y0037461D01*
X0096750Y0037382D01*
X0096655Y0037300D01*
X0096562Y0037216D01*
X0096472Y0037128D01*
X0096384Y0037038D01*
X0096300Y0036945D01*
X0096218Y0036850D01*
X0096139Y0036752D01*
X0096064Y0036651D01*
X0095992Y0036548D01*
X0095923Y0036443D01*
X0095857Y0036336D01*
X0095795Y0036227D01*
X0095736Y0036116D01*
X0095681Y0036003D01*
X0095629Y0035889D01*
X0095581Y0035772D01*
X0095536Y0035655D01*
X0095496Y0035536D01*
X0095459Y0035416D01*
X0095426Y0035295D01*
X0095396Y0035173D01*
X0095371Y0035050D01*
X0095349Y0034926D01*
X0095332Y0034801D01*
X0095318Y0034676D01*
X0095308Y0034551D01*
X0095302Y0034426D01*
X0095300Y0034300D01*
X0095302Y0034174D01*
X0095308Y0034049D01*
X0095318Y0033924D01*
X0095332Y0033799D01*
X0095349Y0033674D01*
X0095371Y0033550D01*
X0095396Y0033427D01*
X0095426Y0033305D01*
X0095459Y0033184D01*
X0095496Y0033064D01*
X0095536Y0032945D01*
X0095581Y0032828D01*
X0095629Y0032711D01*
X0095681Y0032597D01*
X0095736Y0032484D01*
X0095795Y0032373D01*
X0095857Y0032264D01*
X0095923Y0032157D01*
X0095992Y0032052D01*
X0096064Y0031949D01*
X0096139Y0031848D01*
X0096218Y0031750D01*
X0096300Y0031655D01*
X0096384Y0031562D01*
X0096472Y0031472D01*
X0096562Y0031384D01*
X0096655Y0031300D01*
X0096750Y0031218D01*
X0096848Y0031139D01*
X0096949Y0031064D01*
X0097052Y0030992D01*
X0097157Y0030923D01*
X0097264Y0030857D01*
X0097373Y0030795D01*
X0097484Y0030736D01*
X0097597Y0030681D01*
X0097711Y0030629D01*
X0097828Y0030581D01*
X0097945Y0030536D01*
X0098064Y0030496D01*
X0098184Y0030459D01*
X0098305Y0030426D01*
X0098427Y0030396D01*
X0098550Y0030371D01*
X0098674Y0030349D01*
X0098799Y0030332D01*
X0098924Y0030318D01*
X0099049Y0030308D01*
X0099174Y0030302D01*
X0099300Y0030300D01*
X0099300Y0022800D01*
X0059300Y0022800D01*
X0039300Y0030300D02*
X0039298Y0030360D01*
X0039293Y0030421D01*
X0039284Y0030480D01*
X0039271Y0030539D01*
X0039255Y0030598D01*
X0039235Y0030655D01*
X0039212Y0030710D01*
X0039185Y0030765D01*
X0039156Y0030817D01*
X0039123Y0030868D01*
X0039087Y0030917D01*
X0039049Y0030963D01*
X0039007Y0031007D01*
X0038963Y0031049D01*
X0038917Y0031087D01*
X0038868Y0031123D01*
X0038817Y0031156D01*
X0038765Y0031185D01*
X0038710Y0031212D01*
X0038655Y0031235D01*
X0038598Y0031255D01*
X0038539Y0031271D01*
X0038480Y0031284D01*
X0038421Y0031293D01*
X0038360Y0031298D01*
X0038300Y0031300D01*
X0036800Y0031300D01*
X0036800Y0032300D02*
X0038300Y0032300D01*
X0038360Y0032302D01*
X0038421Y0032307D01*
X0038480Y0032316D01*
X0038539Y0032329D01*
X0038598Y0032345D01*
X0038655Y0032365D01*
X0038710Y0032388D01*
X0038765Y0032415D01*
X0038817Y0032444D01*
X0038868Y0032477D01*
X0038917Y0032513D01*
X0038963Y0032551D01*
X0039007Y0032593D01*
X0039049Y0032637D01*
X0039087Y0032683D01*
X0039123Y0032732D01*
X0039156Y0032783D01*
X0039185Y0032835D01*
X0039212Y0032890D01*
X0039235Y0032945D01*
X0039255Y0033002D01*
X0039271Y0033061D01*
X0039284Y0033120D01*
X0039293Y0033179D01*
X0039298Y0033240D01*
X0039300Y0033300D01*
X0016800Y0032300D02*
X0015300Y0032300D01*
X0015300Y0031300D02*
X0016800Y0031300D01*
X0015300Y0031300D02*
X0015240Y0031298D01*
X0015179Y0031293D01*
X0015120Y0031284D01*
X0015061Y0031271D01*
X0015002Y0031255D01*
X0014945Y0031235D01*
X0014890Y0031212D01*
X0014835Y0031185D01*
X0014783Y0031156D01*
X0014732Y0031123D01*
X0014683Y0031087D01*
X0014637Y0031049D01*
X0014593Y0031007D01*
X0014551Y0030963D01*
X0014513Y0030917D01*
X0014477Y0030868D01*
X0014444Y0030817D01*
X0014415Y0030765D01*
X0014388Y0030710D01*
X0014365Y0030655D01*
X0014345Y0030598D01*
X0014329Y0030539D01*
X0014316Y0030480D01*
X0014307Y0030421D01*
X0014302Y0030360D01*
X0014300Y0030300D01*
X0015300Y0032300D02*
X0015240Y0032302D01*
X0015179Y0032307D01*
X0015120Y0032316D01*
X0015061Y0032329D01*
X0015002Y0032345D01*
X0014945Y0032365D01*
X0014890Y0032388D01*
X0014835Y0032415D01*
X0014783Y0032444D01*
X0014732Y0032477D01*
X0014683Y0032513D01*
X0014637Y0032551D01*
X0014593Y0032593D01*
X0014551Y0032637D01*
X0014513Y0032683D01*
X0014477Y0032732D01*
X0014444Y0032783D01*
X0014415Y0032835D01*
X0014388Y0032890D01*
X0014365Y0032945D01*
X0014345Y0033002D01*
X0014329Y0033061D01*
X0014316Y0033120D01*
X0014307Y0033179D01*
X0014302Y0033240D01*
X0014300Y0033300D01*
X0014300Y0040300D02*
X0014302Y0040360D01*
X0014307Y0040421D01*
X0014316Y0040480D01*
X0014329Y0040539D01*
X0014345Y0040598D01*
X0014365Y0040655D01*
X0014388Y0040710D01*
X0014415Y0040765D01*
X0014444Y0040817D01*
X0014477Y0040868D01*
X0014513Y0040917D01*
X0014551Y0040963D01*
X0014593Y0041007D01*
X0014637Y0041049D01*
X0014683Y0041087D01*
X0014732Y0041123D01*
X0014783Y0041156D01*
X0014835Y0041185D01*
X0014890Y0041212D01*
X0014945Y0041235D01*
X0015002Y0041255D01*
X0015061Y0041271D01*
X0015120Y0041284D01*
X0015179Y0041293D01*
X0015240Y0041298D01*
X0015300Y0041300D01*
X0016800Y0041300D01*
X0036800Y0041300D02*
X0038300Y0041300D01*
X0038360Y0041298D01*
X0038421Y0041293D01*
X0038480Y0041284D01*
X0038539Y0041271D01*
X0038598Y0041255D01*
X0038655Y0041235D01*
X0038710Y0041212D01*
X0038765Y0041185D01*
X0038817Y0041156D01*
X0038868Y0041123D01*
X0038917Y0041087D01*
X0038963Y0041049D01*
X0039007Y0041007D01*
X0039049Y0040963D01*
X0039087Y0040917D01*
X0039123Y0040868D01*
X0039156Y0040817D01*
X0039185Y0040765D01*
X0039212Y0040710D01*
X0039235Y0040655D01*
X0039255Y0040598D01*
X0039271Y0040539D01*
X0039284Y0040480D01*
X0039293Y0040421D01*
X0039298Y0040360D01*
X0039300Y0040300D01*
X0049800Y0044300D02*
X0049800Y0045800D01*
X0049802Y0045860D01*
X0049807Y0045921D01*
X0049816Y0045980D01*
X0049829Y0046039D01*
X0049845Y0046098D01*
X0049865Y0046155D01*
X0049888Y0046210D01*
X0049915Y0046265D01*
X0049944Y0046317D01*
X0049977Y0046368D01*
X0050013Y0046417D01*
X0050051Y0046463D01*
X0050093Y0046507D01*
X0050137Y0046549D01*
X0050183Y0046587D01*
X0050232Y0046623D01*
X0050283Y0046656D01*
X0050335Y0046685D01*
X0050390Y0046712D01*
X0050445Y0046735D01*
X0050502Y0046755D01*
X0050561Y0046771D01*
X0050620Y0046784D01*
X0050679Y0046793D01*
X0050740Y0046798D01*
X0050800Y0046800D01*
X0057800Y0046800D02*
X0057860Y0046798D01*
X0057921Y0046793D01*
X0057980Y0046784D01*
X0058039Y0046771D01*
X0058098Y0046755D01*
X0058155Y0046735D01*
X0058210Y0046712D01*
X0058265Y0046685D01*
X0058317Y0046656D01*
X0058368Y0046623D01*
X0058417Y0046587D01*
X0058463Y0046549D01*
X0058507Y0046507D01*
X0058549Y0046463D01*
X0058587Y0046417D01*
X0058623Y0046368D01*
X0058656Y0046317D01*
X0058685Y0046265D01*
X0058712Y0046210D01*
X0058735Y0046155D01*
X0058755Y0046098D01*
X0058771Y0046039D01*
X0058784Y0045980D01*
X0058793Y0045921D01*
X0058798Y0045860D01*
X0058800Y0045800D01*
X0058800Y0044300D01*
X0015300Y0022300D02*
X0015240Y0022302D01*
X0015179Y0022307D01*
X0015120Y0022316D01*
X0015061Y0022329D01*
X0015002Y0022345D01*
X0014945Y0022365D01*
X0014890Y0022388D01*
X0014835Y0022415D01*
X0014783Y0022444D01*
X0014732Y0022477D01*
X0014683Y0022513D01*
X0014637Y0022551D01*
X0014593Y0022593D01*
X0014551Y0022637D01*
X0014513Y0022683D01*
X0014477Y0022732D01*
X0014444Y0022783D01*
X0014415Y0022835D01*
X0014388Y0022890D01*
X0014365Y0022945D01*
X0014345Y0023002D01*
X0014329Y0023061D01*
X0014316Y0023120D01*
X0014307Y0023179D01*
X0014302Y0023240D01*
X0014300Y0023300D01*
X0015300Y0022300D02*
X0016800Y0022300D01*
X0016800Y0021300D02*
X0015300Y0021300D01*
X0015240Y0021298D01*
X0015179Y0021293D01*
X0015120Y0021284D01*
X0015061Y0021271D01*
X0015002Y0021255D01*
X0014945Y0021235D01*
X0014890Y0021212D01*
X0014835Y0021185D01*
X0014783Y0021156D01*
X0014732Y0021123D01*
X0014683Y0021087D01*
X0014637Y0021049D01*
X0014593Y0021007D01*
X0014551Y0020963D01*
X0014513Y0020917D01*
X0014477Y0020868D01*
X0014444Y0020817D01*
X0014415Y0020765D01*
X0014388Y0020710D01*
X0014365Y0020655D01*
X0014345Y0020598D01*
X0014329Y0020539D01*
X0014316Y0020480D01*
X0014307Y0020421D01*
X0014302Y0020360D01*
X0014300Y0020300D01*
X0147367Y0064349D02*
X0147369Y0064262D01*
X0147375Y0064175D01*
X0147384Y0064088D01*
X0147397Y0064002D01*
X0147414Y0063916D01*
X0147435Y0063831D01*
X0147460Y0063748D01*
X0147488Y0063665D01*
X0147519Y0063584D01*
X0147554Y0063504D01*
X0147593Y0063426D01*
X0147635Y0063349D01*
X0147680Y0063274D01*
X0147729Y0063202D01*
X0147780Y0063131D01*
X0147835Y0063063D01*
X0147892Y0062998D01*
X0147953Y0062935D01*
X0148016Y0062874D01*
X0148081Y0062817D01*
X0148149Y0062762D01*
X0148220Y0062711D01*
X0148292Y0062662D01*
X0148367Y0062617D01*
X0148444Y0062575D01*
X0148522Y0062536D01*
X0148602Y0062501D01*
X0148683Y0062470D01*
X0148766Y0062442D01*
X0148849Y0062417D01*
X0148934Y0062396D01*
X0149020Y0062379D01*
X0149106Y0062366D01*
X0149193Y0062357D01*
X0149280Y0062351D01*
X0149367Y0062349D01*
X0154098Y0062198D02*
X0154185Y0062200D01*
X0154272Y0062206D01*
X0154359Y0062215D01*
X0154445Y0062228D01*
X0154531Y0062245D01*
X0154616Y0062266D01*
X0154699Y0062291D01*
X0154782Y0062319D01*
X0154863Y0062350D01*
X0154943Y0062385D01*
X0155021Y0062424D01*
X0155098Y0062466D01*
X0155173Y0062511D01*
X0155245Y0062560D01*
X0155316Y0062611D01*
X0155384Y0062666D01*
X0155449Y0062723D01*
X0155512Y0062784D01*
X0155573Y0062847D01*
X0155630Y0062912D01*
X0155685Y0062980D01*
X0155736Y0063051D01*
X0155785Y0063123D01*
X0155830Y0063198D01*
X0155872Y0063275D01*
X0155911Y0063353D01*
X0155946Y0063433D01*
X0155977Y0063514D01*
X0156005Y0063597D01*
X0156030Y0063680D01*
X0156051Y0063765D01*
X0156068Y0063851D01*
X0156081Y0063937D01*
X0156090Y0064024D01*
X0156096Y0064111D01*
X0156098Y0064198D01*
X0157367Y0064349D02*
X0157369Y0064262D01*
X0157375Y0064175D01*
X0157384Y0064088D01*
X0157397Y0064002D01*
X0157414Y0063916D01*
X0157435Y0063831D01*
X0157460Y0063748D01*
X0157488Y0063665D01*
X0157519Y0063584D01*
X0157554Y0063504D01*
X0157593Y0063426D01*
X0157635Y0063349D01*
X0157680Y0063274D01*
X0157729Y0063202D01*
X0157780Y0063131D01*
X0157835Y0063063D01*
X0157892Y0062998D01*
X0157953Y0062935D01*
X0158016Y0062874D01*
X0158081Y0062817D01*
X0158149Y0062762D01*
X0158220Y0062711D01*
X0158292Y0062662D01*
X0158367Y0062617D01*
X0158444Y0062575D01*
X0158522Y0062536D01*
X0158602Y0062501D01*
X0158683Y0062470D01*
X0158766Y0062442D01*
X0158849Y0062417D01*
X0158934Y0062396D01*
X0159020Y0062379D01*
X0159106Y0062366D01*
X0159193Y0062357D01*
X0159280Y0062351D01*
X0159367Y0062349D01*
X0164098Y0062198D02*
X0164185Y0062200D01*
X0164272Y0062206D01*
X0164359Y0062215D01*
X0164445Y0062228D01*
X0164531Y0062245D01*
X0164616Y0062266D01*
X0164699Y0062291D01*
X0164782Y0062319D01*
X0164863Y0062350D01*
X0164943Y0062385D01*
X0165021Y0062424D01*
X0165098Y0062466D01*
X0165173Y0062511D01*
X0165245Y0062560D01*
X0165316Y0062611D01*
X0165384Y0062666D01*
X0165449Y0062723D01*
X0165512Y0062784D01*
X0165573Y0062847D01*
X0165630Y0062912D01*
X0165685Y0062980D01*
X0165736Y0063051D01*
X0165785Y0063123D01*
X0165830Y0063198D01*
X0165872Y0063275D01*
X0165911Y0063353D01*
X0165946Y0063433D01*
X0165977Y0063514D01*
X0166005Y0063597D01*
X0166030Y0063680D01*
X0166051Y0063765D01*
X0166068Y0063851D01*
X0166081Y0063937D01*
X0166090Y0064024D01*
X0166096Y0064111D01*
X0166098Y0064198D01*
X0166165Y0084301D02*
X0166163Y0084388D01*
X0166157Y0084475D01*
X0166148Y0084562D01*
X0166135Y0084648D01*
X0166118Y0084734D01*
X0166097Y0084819D01*
X0166072Y0084902D01*
X0166044Y0084985D01*
X0166013Y0085066D01*
X0165978Y0085146D01*
X0165939Y0085224D01*
X0165897Y0085301D01*
X0165852Y0085376D01*
X0165803Y0085448D01*
X0165752Y0085519D01*
X0165697Y0085587D01*
X0165640Y0085652D01*
X0165579Y0085715D01*
X0165516Y0085776D01*
X0165451Y0085833D01*
X0165383Y0085888D01*
X0165312Y0085939D01*
X0165240Y0085988D01*
X0165165Y0086033D01*
X0165088Y0086075D01*
X0165010Y0086114D01*
X0164930Y0086149D01*
X0164849Y0086180D01*
X0164766Y0086208D01*
X0164683Y0086233D01*
X0164598Y0086254D01*
X0164512Y0086271D01*
X0164426Y0086284D01*
X0164339Y0086293D01*
X0164252Y0086299D01*
X0164165Y0086301D01*
X0159469Y0086368D02*
X0159382Y0086366D01*
X0159295Y0086360D01*
X0159208Y0086351D01*
X0159122Y0086338D01*
X0159036Y0086321D01*
X0158951Y0086300D01*
X0158868Y0086275D01*
X0158785Y0086247D01*
X0158704Y0086216D01*
X0158624Y0086181D01*
X0158546Y0086142D01*
X0158469Y0086100D01*
X0158394Y0086055D01*
X0158322Y0086006D01*
X0158251Y0085955D01*
X0158183Y0085900D01*
X0158118Y0085843D01*
X0158055Y0085782D01*
X0157994Y0085719D01*
X0157937Y0085654D01*
X0157882Y0085586D01*
X0157831Y0085515D01*
X0157782Y0085443D01*
X0157737Y0085368D01*
X0157695Y0085291D01*
X0157656Y0085213D01*
X0157621Y0085133D01*
X0157590Y0085052D01*
X0157562Y0084969D01*
X0157537Y0084886D01*
X0157516Y0084801D01*
X0157499Y0084715D01*
X0157486Y0084629D01*
X0157477Y0084542D01*
X0157471Y0084455D01*
X0157469Y0084368D01*
X0156165Y0084301D02*
X0156163Y0084388D01*
X0156157Y0084475D01*
X0156148Y0084562D01*
X0156135Y0084648D01*
X0156118Y0084734D01*
X0156097Y0084819D01*
X0156072Y0084902D01*
X0156044Y0084985D01*
X0156013Y0085066D01*
X0155978Y0085146D01*
X0155939Y0085224D01*
X0155897Y0085301D01*
X0155852Y0085376D01*
X0155803Y0085448D01*
X0155752Y0085519D01*
X0155697Y0085587D01*
X0155640Y0085652D01*
X0155579Y0085715D01*
X0155516Y0085776D01*
X0155451Y0085833D01*
X0155383Y0085888D01*
X0155312Y0085939D01*
X0155240Y0085988D01*
X0155165Y0086033D01*
X0155088Y0086075D01*
X0155010Y0086114D01*
X0154930Y0086149D01*
X0154849Y0086180D01*
X0154766Y0086208D01*
X0154683Y0086233D01*
X0154598Y0086254D01*
X0154512Y0086271D01*
X0154426Y0086284D01*
X0154339Y0086293D01*
X0154252Y0086299D01*
X0154165Y0086301D01*
X0149469Y0086368D02*
X0149382Y0086366D01*
X0149295Y0086360D01*
X0149208Y0086351D01*
X0149122Y0086338D01*
X0149036Y0086321D01*
X0148951Y0086300D01*
X0148868Y0086275D01*
X0148785Y0086247D01*
X0148704Y0086216D01*
X0148624Y0086181D01*
X0148546Y0086142D01*
X0148469Y0086100D01*
X0148394Y0086055D01*
X0148322Y0086006D01*
X0148251Y0085955D01*
X0148183Y0085900D01*
X0148118Y0085843D01*
X0148055Y0085782D01*
X0147994Y0085719D01*
X0147937Y0085654D01*
X0147882Y0085586D01*
X0147831Y0085515D01*
X0147782Y0085443D01*
X0147737Y0085368D01*
X0147695Y0085291D01*
X0147656Y0085213D01*
X0147621Y0085133D01*
X0147590Y0085052D01*
X0147562Y0084969D01*
X0147537Y0084886D01*
X0147516Y0084801D01*
X0147499Y0084715D01*
X0147486Y0084629D01*
X0147477Y0084542D01*
X0147471Y0084455D01*
X0147469Y0084368D01*
X0251800Y0085300D02*
X0251802Y0085360D01*
X0251807Y0085421D01*
X0251816Y0085480D01*
X0251829Y0085539D01*
X0251845Y0085598D01*
X0251865Y0085655D01*
X0251888Y0085710D01*
X0251915Y0085765D01*
X0251944Y0085817D01*
X0251977Y0085868D01*
X0252013Y0085917D01*
X0252051Y0085963D01*
X0252093Y0086007D01*
X0252137Y0086049D01*
X0252183Y0086087D01*
X0252232Y0086123D01*
X0252283Y0086156D01*
X0252335Y0086185D01*
X0252390Y0086212D01*
X0252445Y0086235D01*
X0252502Y0086255D01*
X0252561Y0086271D01*
X0252620Y0086284D01*
X0252679Y0086293D01*
X0252740Y0086298D01*
X0252800Y0086300D01*
X0254300Y0086300D01*
X0274300Y0086300D02*
X0275800Y0086300D01*
X0275860Y0086298D01*
X0275921Y0086293D01*
X0275980Y0086284D01*
X0276039Y0086271D01*
X0276098Y0086255D01*
X0276155Y0086235D01*
X0276210Y0086212D01*
X0276265Y0086185D01*
X0276317Y0086156D01*
X0276368Y0086123D01*
X0276417Y0086087D01*
X0276463Y0086049D01*
X0276507Y0086007D01*
X0276549Y0085963D01*
X0276587Y0085917D01*
X0276623Y0085868D01*
X0276656Y0085817D01*
X0276685Y0085765D01*
X0276712Y0085710D01*
X0276735Y0085655D01*
X0276755Y0085598D01*
X0276771Y0085539D01*
X0276784Y0085480D01*
X0276793Y0085421D01*
X0276798Y0085360D01*
X0276800Y0085300D01*
X0276800Y0078300D02*
X0276798Y0078240D01*
X0276793Y0078179D01*
X0276784Y0078120D01*
X0276771Y0078061D01*
X0276755Y0078002D01*
X0276735Y0077945D01*
X0276712Y0077890D01*
X0276685Y0077835D01*
X0276656Y0077783D01*
X0276623Y0077732D01*
X0276587Y0077683D01*
X0276549Y0077637D01*
X0276507Y0077593D01*
X0276463Y0077551D01*
X0276417Y0077513D01*
X0276368Y0077477D01*
X0276317Y0077444D01*
X0276265Y0077415D01*
X0276210Y0077388D01*
X0276155Y0077365D01*
X0276098Y0077345D01*
X0276039Y0077329D01*
X0275980Y0077316D01*
X0275921Y0077307D01*
X0275860Y0077302D01*
X0275800Y0077300D01*
X0274300Y0077300D01*
X0274300Y0076300D02*
X0275800Y0076300D01*
X0275860Y0076298D01*
X0275921Y0076293D01*
X0275980Y0076284D01*
X0276039Y0076271D01*
X0276098Y0076255D01*
X0276155Y0076235D01*
X0276210Y0076212D01*
X0276265Y0076185D01*
X0276317Y0076156D01*
X0276368Y0076123D01*
X0276417Y0076087D01*
X0276463Y0076049D01*
X0276507Y0076007D01*
X0276549Y0075963D01*
X0276587Y0075917D01*
X0276623Y0075868D01*
X0276656Y0075817D01*
X0276685Y0075765D01*
X0276712Y0075710D01*
X0276735Y0075655D01*
X0276755Y0075598D01*
X0276771Y0075539D01*
X0276784Y0075480D01*
X0276793Y0075421D01*
X0276798Y0075360D01*
X0276800Y0075300D01*
X0254300Y0076300D02*
X0252800Y0076300D01*
X0252740Y0076298D01*
X0252679Y0076293D01*
X0252620Y0076284D01*
X0252561Y0076271D01*
X0252502Y0076255D01*
X0252445Y0076235D01*
X0252390Y0076212D01*
X0252335Y0076185D01*
X0252283Y0076156D01*
X0252232Y0076123D01*
X0252183Y0076087D01*
X0252137Y0076049D01*
X0252093Y0076007D01*
X0252051Y0075963D01*
X0252013Y0075917D01*
X0251977Y0075868D01*
X0251944Y0075817D01*
X0251915Y0075765D01*
X0251888Y0075710D01*
X0251865Y0075655D01*
X0251845Y0075598D01*
X0251829Y0075539D01*
X0251816Y0075480D01*
X0251807Y0075421D01*
X0251802Y0075360D01*
X0251800Y0075300D01*
X0252800Y0077300D02*
X0254300Y0077300D01*
X0252800Y0077300D02*
X0252740Y0077302D01*
X0252679Y0077307D01*
X0252620Y0077316D01*
X0252561Y0077329D01*
X0252502Y0077345D01*
X0252445Y0077365D01*
X0252390Y0077388D01*
X0252335Y0077415D01*
X0252283Y0077444D01*
X0252232Y0077477D01*
X0252183Y0077513D01*
X0252137Y0077551D01*
X0252093Y0077593D01*
X0252051Y0077637D01*
X0252013Y0077683D01*
X0251977Y0077732D01*
X0251944Y0077783D01*
X0251915Y0077835D01*
X0251888Y0077890D01*
X0251865Y0077945D01*
X0251845Y0078002D01*
X0251829Y0078061D01*
X0251816Y0078120D01*
X0251807Y0078179D01*
X0251802Y0078240D01*
X0251800Y0078300D01*
X0251800Y0068300D02*
X0251802Y0068240D01*
X0251807Y0068179D01*
X0251816Y0068120D01*
X0251829Y0068061D01*
X0251845Y0068002D01*
X0251865Y0067945D01*
X0251888Y0067890D01*
X0251915Y0067835D01*
X0251944Y0067783D01*
X0251977Y0067732D01*
X0252013Y0067683D01*
X0252051Y0067637D01*
X0252093Y0067593D01*
X0252137Y0067551D01*
X0252183Y0067513D01*
X0252232Y0067477D01*
X0252283Y0067444D01*
X0252335Y0067415D01*
X0252390Y0067388D01*
X0252445Y0067365D01*
X0252502Y0067345D01*
X0252561Y0067329D01*
X0252620Y0067316D01*
X0252679Y0067307D01*
X0252740Y0067302D01*
X0252800Y0067300D01*
X0254300Y0067300D01*
X0274300Y0067300D02*
X0275800Y0067300D01*
X0275860Y0067302D01*
X0275921Y0067307D01*
X0275980Y0067316D01*
X0276039Y0067329D01*
X0276098Y0067345D01*
X0276155Y0067365D01*
X0276210Y0067388D01*
X0276265Y0067415D01*
X0276317Y0067444D01*
X0276368Y0067477D01*
X0276417Y0067513D01*
X0276463Y0067551D01*
X0276507Y0067593D01*
X0276549Y0067637D01*
X0276587Y0067683D01*
X0276623Y0067732D01*
X0276656Y0067783D01*
X0276685Y0067835D01*
X0276712Y0067890D01*
X0276735Y0067945D01*
X0276755Y0068002D01*
X0276771Y0068061D01*
X0276784Y0068120D01*
X0276793Y0068179D01*
X0276798Y0068240D01*
X0276800Y0068300D01*
X0322800Y0038800D02*
X0324300Y0038800D01*
X0322800Y0038800D02*
X0322740Y0038798D01*
X0322679Y0038793D01*
X0322620Y0038784D01*
X0322561Y0038771D01*
X0322502Y0038755D01*
X0322445Y0038735D01*
X0322390Y0038712D01*
X0322335Y0038685D01*
X0322283Y0038656D01*
X0322232Y0038623D01*
X0322183Y0038587D01*
X0322137Y0038549D01*
X0322093Y0038507D01*
X0322051Y0038463D01*
X0322013Y0038417D01*
X0321977Y0038368D01*
X0321944Y0038317D01*
X0321915Y0038265D01*
X0321888Y0038210D01*
X0321865Y0038155D01*
X0321845Y0038098D01*
X0321829Y0038039D01*
X0321816Y0037980D01*
X0321807Y0037921D01*
X0321802Y0037860D01*
X0321800Y0037800D01*
X0344300Y0038800D02*
X0345800Y0038800D01*
X0345860Y0038798D01*
X0345921Y0038793D01*
X0345980Y0038784D01*
X0346039Y0038771D01*
X0346098Y0038755D01*
X0346155Y0038735D01*
X0346210Y0038712D01*
X0346265Y0038685D01*
X0346317Y0038656D01*
X0346368Y0038623D01*
X0346417Y0038587D01*
X0346463Y0038549D01*
X0346507Y0038507D01*
X0346549Y0038463D01*
X0346587Y0038417D01*
X0346623Y0038368D01*
X0346656Y0038317D01*
X0346685Y0038265D01*
X0346712Y0038210D01*
X0346735Y0038155D01*
X0346755Y0038098D01*
X0346771Y0038039D01*
X0346784Y0037980D01*
X0346793Y0037921D01*
X0346798Y0037860D01*
X0346800Y0037800D01*
X0346800Y0030800D02*
X0346798Y0030740D01*
X0346793Y0030679D01*
X0346784Y0030620D01*
X0346771Y0030561D01*
X0346755Y0030502D01*
X0346735Y0030445D01*
X0346712Y0030390D01*
X0346685Y0030335D01*
X0346656Y0030283D01*
X0346623Y0030232D01*
X0346587Y0030183D01*
X0346549Y0030137D01*
X0346507Y0030093D01*
X0346463Y0030051D01*
X0346417Y0030013D01*
X0346368Y0029977D01*
X0346317Y0029944D01*
X0346265Y0029915D01*
X0346210Y0029888D01*
X0346155Y0029865D01*
X0346098Y0029845D01*
X0346039Y0029829D01*
X0345980Y0029816D01*
X0345921Y0029807D01*
X0345860Y0029802D01*
X0345800Y0029800D01*
X0344300Y0029800D01*
X0344300Y0028800D02*
X0345800Y0028800D01*
X0345860Y0028798D01*
X0345921Y0028793D01*
X0345980Y0028784D01*
X0346039Y0028771D01*
X0346098Y0028755D01*
X0346155Y0028735D01*
X0346210Y0028712D01*
X0346265Y0028685D01*
X0346317Y0028656D01*
X0346368Y0028623D01*
X0346417Y0028587D01*
X0346463Y0028549D01*
X0346507Y0028507D01*
X0346549Y0028463D01*
X0346587Y0028417D01*
X0346623Y0028368D01*
X0346656Y0028317D01*
X0346685Y0028265D01*
X0346712Y0028210D01*
X0346735Y0028155D01*
X0346755Y0028098D01*
X0346771Y0028039D01*
X0346784Y0027980D01*
X0346793Y0027921D01*
X0346798Y0027860D01*
X0346800Y0027800D01*
X0324300Y0028800D02*
X0322800Y0028800D01*
X0322740Y0028798D01*
X0322679Y0028793D01*
X0322620Y0028784D01*
X0322561Y0028771D01*
X0322502Y0028755D01*
X0322445Y0028735D01*
X0322390Y0028712D01*
X0322335Y0028685D01*
X0322283Y0028656D01*
X0322232Y0028623D01*
X0322183Y0028587D01*
X0322137Y0028549D01*
X0322093Y0028507D01*
X0322051Y0028463D01*
X0322013Y0028417D01*
X0321977Y0028368D01*
X0321944Y0028317D01*
X0321915Y0028265D01*
X0321888Y0028210D01*
X0321865Y0028155D01*
X0321845Y0028098D01*
X0321829Y0028039D01*
X0321816Y0027980D01*
X0321807Y0027921D01*
X0321802Y0027860D01*
X0321800Y0027800D01*
X0322800Y0029800D02*
X0324300Y0029800D01*
X0322800Y0029800D02*
X0322740Y0029802D01*
X0322679Y0029807D01*
X0322620Y0029816D01*
X0322561Y0029829D01*
X0322502Y0029845D01*
X0322445Y0029865D01*
X0322390Y0029888D01*
X0322335Y0029915D01*
X0322283Y0029944D01*
X0322232Y0029977D01*
X0322183Y0030013D01*
X0322137Y0030051D01*
X0322093Y0030093D01*
X0322051Y0030137D01*
X0322013Y0030183D01*
X0321977Y0030232D01*
X0321944Y0030283D01*
X0321915Y0030335D01*
X0321888Y0030390D01*
X0321865Y0030445D01*
X0321845Y0030502D01*
X0321829Y0030561D01*
X0321816Y0030620D01*
X0321807Y0030679D01*
X0321802Y0030740D01*
X0321800Y0030800D01*
X0321800Y0020800D02*
X0321802Y0020740D01*
X0321807Y0020679D01*
X0321816Y0020620D01*
X0321829Y0020561D01*
X0321845Y0020502D01*
X0321865Y0020445D01*
X0321888Y0020390D01*
X0321915Y0020335D01*
X0321944Y0020283D01*
X0321977Y0020232D01*
X0322013Y0020183D01*
X0322051Y0020137D01*
X0322093Y0020093D01*
X0322137Y0020051D01*
X0322183Y0020013D01*
X0322232Y0019977D01*
X0322283Y0019944D01*
X0322335Y0019915D01*
X0322390Y0019888D01*
X0322445Y0019865D01*
X0322502Y0019845D01*
X0322561Y0019829D01*
X0322620Y0019816D01*
X0322679Y0019807D01*
X0322740Y0019802D01*
X0322800Y0019800D01*
X0324300Y0019800D01*
X0344300Y0019800D02*
X0345800Y0019800D01*
X0345860Y0019802D01*
X0345921Y0019807D01*
X0345980Y0019816D01*
X0346039Y0019829D01*
X0346098Y0019845D01*
X0346155Y0019865D01*
X0346210Y0019888D01*
X0346265Y0019915D01*
X0346317Y0019944D01*
X0346368Y0019977D01*
X0346417Y0020013D01*
X0346463Y0020051D01*
X0346507Y0020093D01*
X0346549Y0020137D01*
X0346587Y0020183D01*
X0346623Y0020232D01*
X0346656Y0020283D01*
X0346685Y0020335D01*
X0346712Y0020390D01*
X0346735Y0020445D01*
X0346755Y0020502D01*
X0346771Y0020561D01*
X0346784Y0020620D01*
X0346793Y0020679D01*
X0346798Y0020740D01*
X0346800Y0020800D01*
X0038300Y0077300D02*
X0036800Y0077300D01*
X0038300Y0077300D02*
X0038360Y0077302D01*
X0038421Y0077307D01*
X0038480Y0077316D01*
X0038539Y0077329D01*
X0038598Y0077345D01*
X0038655Y0077365D01*
X0038710Y0077388D01*
X0038765Y0077415D01*
X0038817Y0077444D01*
X0038868Y0077477D01*
X0038917Y0077513D01*
X0038963Y0077551D01*
X0039007Y0077593D01*
X0039049Y0077637D01*
X0039087Y0077683D01*
X0039123Y0077732D01*
X0039156Y0077783D01*
X0039185Y0077835D01*
X0039212Y0077890D01*
X0039235Y0077945D01*
X0039255Y0078002D01*
X0039271Y0078061D01*
X0039284Y0078120D01*
X0039293Y0078179D01*
X0039298Y0078240D01*
X0039300Y0078300D01*
X0016800Y0077300D02*
X0015300Y0077300D01*
X0015240Y0077302D01*
X0015179Y0077307D01*
X0015120Y0077316D01*
X0015061Y0077329D01*
X0015002Y0077345D01*
X0014945Y0077365D01*
X0014890Y0077388D01*
X0014835Y0077415D01*
X0014783Y0077444D01*
X0014732Y0077477D01*
X0014683Y0077513D01*
X0014637Y0077551D01*
X0014593Y0077593D01*
X0014551Y0077637D01*
X0014513Y0077683D01*
X0014477Y0077732D01*
X0014444Y0077783D01*
X0014415Y0077835D01*
X0014388Y0077890D01*
X0014365Y0077945D01*
X0014345Y0078002D01*
X0014329Y0078061D01*
X0014316Y0078120D01*
X0014307Y0078179D01*
X0014302Y0078240D01*
X0014300Y0078300D01*
X0014300Y0085300D02*
X0014302Y0085360D01*
X0014307Y0085421D01*
X0014316Y0085480D01*
X0014329Y0085539D01*
X0014345Y0085598D01*
X0014365Y0085655D01*
X0014388Y0085710D01*
X0014415Y0085765D01*
X0014444Y0085817D01*
X0014477Y0085868D01*
X0014513Y0085917D01*
X0014551Y0085963D01*
X0014593Y0086007D01*
X0014637Y0086049D01*
X0014683Y0086087D01*
X0014732Y0086123D01*
X0014783Y0086156D01*
X0014835Y0086185D01*
X0014890Y0086212D01*
X0014945Y0086235D01*
X0015002Y0086255D01*
X0015061Y0086271D01*
X0015120Y0086284D01*
X0015179Y0086293D01*
X0015240Y0086298D01*
X0015300Y0086300D01*
X0016800Y0086300D01*
X0036800Y0086300D02*
X0038300Y0086300D01*
X0038360Y0086298D01*
X0038421Y0086293D01*
X0038480Y0086284D01*
X0038539Y0086271D01*
X0038598Y0086255D01*
X0038655Y0086235D01*
X0038710Y0086212D01*
X0038765Y0086185D01*
X0038817Y0086156D01*
X0038868Y0086123D01*
X0038917Y0086087D01*
X0038963Y0086049D01*
X0039007Y0086007D01*
X0039049Y0085963D01*
X0039087Y0085917D01*
X0039123Y0085868D01*
X0039156Y0085817D01*
X0039185Y0085765D01*
X0039212Y0085710D01*
X0039235Y0085655D01*
X0039255Y0085598D01*
X0039271Y0085539D01*
X0039284Y0085480D01*
X0039293Y0085421D01*
X0039298Y0085360D01*
X0039300Y0085300D01*
D12*
X0025983Y0085598D02*
X0025983Y0083529D01*
X0025466Y0083012D01*
X0024432Y0083012D01*
X0023915Y0083529D01*
X0025983Y0085598D01*
X0025466Y0086115D01*
X0024432Y0086115D01*
X0023915Y0085598D01*
X0023915Y0083529D01*
X0022761Y0083012D02*
X0020692Y0083012D01*
X0021726Y0083012D02*
X0021726Y0086115D01*
X0020692Y0085081D01*
X0019538Y0085598D02*
X0019538Y0084564D01*
X0019021Y0084046D01*
X0017469Y0084046D01*
X0017469Y0083012D02*
X0017469Y0086115D01*
X0019021Y0086115D01*
X0019538Y0085598D01*
X0018504Y0084046D02*
X0019538Y0083012D01*
X0146812Y0072197D02*
X0148013Y0070996D01*
X0146812Y0072197D02*
X0150415Y0072197D01*
X0150415Y0070996D02*
X0150415Y0073398D01*
X0152025Y0072730D02*
X0152625Y0073331D01*
X0155027Y0070929D01*
X0155628Y0071529D01*
X0155628Y0072730D01*
X0155027Y0073331D01*
X0152625Y0073331D01*
X0152025Y0072730D02*
X0152025Y0071529D01*
X0152625Y0070929D01*
X0155027Y0070929D01*
X0155628Y0069648D02*
X0155628Y0067246D01*
X0155628Y0068447D02*
X0152025Y0068447D01*
X0153226Y0067246D01*
X0150415Y0067913D02*
X0150415Y0069114D01*
X0149814Y0069715D01*
X0147412Y0069715D02*
X0146812Y0069114D01*
X0146812Y0067913D01*
X0147412Y0067313D01*
X0149814Y0067313D01*
X0150415Y0067913D01*
X0156812Y0067913D02*
X0157412Y0067313D01*
X0159814Y0067313D01*
X0160415Y0067913D01*
X0160415Y0069114D01*
X0159814Y0069715D01*
X0157412Y0069715D02*
X0156812Y0069114D01*
X0156812Y0067913D01*
X0162025Y0068447D02*
X0163226Y0067246D01*
X0162025Y0068447D02*
X0165628Y0068447D01*
X0165628Y0067246D02*
X0165628Y0069648D01*
X0165027Y0070929D02*
X0162625Y0073331D01*
X0165027Y0073331D01*
X0165628Y0072730D01*
X0165628Y0071529D01*
X0165027Y0070929D01*
X0162625Y0070929D01*
X0162025Y0071529D01*
X0162025Y0072730D01*
X0162625Y0073331D01*
X0162625Y0074612D02*
X0162025Y0075212D01*
X0162025Y0076413D01*
X0162625Y0077014D01*
X0165027Y0074612D01*
X0165628Y0075212D01*
X0165628Y0076413D01*
X0165027Y0077014D01*
X0162625Y0077014D01*
X0163226Y0078295D02*
X0163226Y0080097D01*
X0163826Y0080697D01*
X0165628Y0080697D01*
X0165628Y0078295D02*
X0163226Y0078295D01*
X0155628Y0078295D02*
X0153226Y0078295D01*
X0153226Y0080097D01*
X0153826Y0080697D01*
X0155628Y0080697D01*
X0155027Y0077014D02*
X0152625Y0077014D01*
X0155027Y0074612D01*
X0155628Y0075212D01*
X0155628Y0076413D01*
X0155027Y0077014D01*
X0152625Y0077014D02*
X0152025Y0076413D01*
X0152025Y0075212D01*
X0152625Y0074612D01*
X0155027Y0074612D01*
X0156812Y0072798D02*
X0157412Y0073398D01*
X0158013Y0073398D01*
X0160415Y0070996D01*
X0160415Y0073398D01*
X0162625Y0074612D02*
X0165027Y0074612D01*
X0156812Y0072798D02*
X0156812Y0071597D01*
X0157412Y0070996D01*
X0254969Y0073012D02*
X0254969Y0076115D01*
X0256521Y0076115D01*
X0257038Y0075598D01*
X0257038Y0074564D01*
X0256521Y0074046D01*
X0254969Y0074046D01*
X0256004Y0074046D02*
X0257038Y0073012D01*
X0258192Y0073529D02*
X0258709Y0073012D01*
X0259743Y0073012D01*
X0260261Y0073529D01*
X0260261Y0074046D01*
X0259743Y0074564D01*
X0258192Y0074564D01*
X0258192Y0073529D01*
X0258192Y0074564D02*
X0259226Y0075598D01*
X0260261Y0076115D01*
X0259743Y0083012D02*
X0258709Y0083012D01*
X0258192Y0083529D01*
X0257038Y0083012D02*
X0256004Y0084046D01*
X0256521Y0084046D02*
X0254969Y0084046D01*
X0254969Y0083012D02*
X0254969Y0086115D01*
X0256521Y0086115D01*
X0257038Y0085598D01*
X0257038Y0084564D01*
X0256521Y0084046D01*
X0258192Y0085598D02*
X0258709Y0086115D01*
X0259743Y0086115D01*
X0260261Y0085598D01*
X0260261Y0085081D01*
X0259743Y0084564D01*
X0260261Y0084046D01*
X0260261Y0083529D01*
X0259743Y0083012D01*
X0259743Y0084564D02*
X0259226Y0084564D01*
X0324969Y0038615D02*
X0326521Y0038615D01*
X0327038Y0038098D01*
X0327038Y0037064D01*
X0326521Y0036546D01*
X0324969Y0036546D01*
X0324969Y0035512D02*
X0324969Y0038615D01*
X0328192Y0037064D02*
X0329743Y0038615D01*
X0329743Y0035512D01*
X0330261Y0037064D02*
X0328192Y0037064D01*
X0327038Y0035512D02*
X0326004Y0036546D01*
X0326521Y0028615D02*
X0327038Y0028098D01*
X0327038Y0027064D01*
X0326521Y0026546D01*
X0324969Y0026546D01*
X0324969Y0025512D02*
X0324969Y0028615D01*
X0326521Y0028615D01*
X0328192Y0028615D02*
X0330261Y0028615D01*
X0330261Y0028098D01*
X0328192Y0026029D01*
X0328192Y0025512D01*
X0327038Y0025512D02*
X0326004Y0026546D01*
X0053088Y0027038D02*
X0052054Y0026004D01*
X0052054Y0026521D02*
X0052054Y0024969D01*
X0053088Y0024969D02*
X0049985Y0024969D01*
X0049985Y0026521D01*
X0050502Y0027038D01*
X0051536Y0027038D01*
X0052054Y0026521D01*
X0053088Y0028192D02*
X0051019Y0030261D01*
X0050502Y0030261D01*
X0049985Y0029743D01*
X0049985Y0028709D01*
X0050502Y0028192D01*
X0053088Y0028192D02*
X0053088Y0030261D01*
X0022761Y0030081D02*
X0022243Y0029564D01*
X0021209Y0029564D01*
X0020692Y0030081D01*
X0020692Y0030598D01*
X0021209Y0031115D01*
X0022243Y0031115D01*
X0022761Y0030598D01*
X0022761Y0030081D01*
X0022243Y0029564D02*
X0022761Y0029046D01*
X0022761Y0028529D01*
X0022243Y0028012D01*
X0021209Y0028012D01*
X0020692Y0028529D01*
X0020692Y0029046D01*
X0021209Y0029564D01*
X0019538Y0029564D02*
X0019021Y0029046D01*
X0017469Y0029046D01*
X0017469Y0028012D02*
X0017469Y0031115D01*
X0019021Y0031115D01*
X0019538Y0030598D01*
X0019538Y0029564D01*
X0018504Y0029046D02*
X0019538Y0028012D01*
X0019021Y0021115D02*
X0019538Y0020598D01*
X0019538Y0019564D01*
X0019021Y0019046D01*
X0017469Y0019046D01*
X0017469Y0018012D02*
X0017469Y0021115D01*
X0019021Y0021115D01*
X0020692Y0021115D02*
X0020692Y0019564D01*
X0021726Y0020081D01*
X0022243Y0020081D01*
X0022761Y0019564D01*
X0022761Y0018529D01*
X0022243Y0018012D01*
X0021209Y0018012D01*
X0020692Y0018529D01*
X0019538Y0018012D02*
X0018504Y0019046D01*
X0020692Y0021115D02*
X0022761Y0021115D01*
X0022761Y0038012D02*
X0020692Y0038012D01*
X0021726Y0038012D02*
X0021726Y0041115D01*
X0020692Y0040081D01*
X0019538Y0040598D02*
X0019538Y0039564D01*
X0019021Y0039046D01*
X0017469Y0039046D01*
X0017469Y0038012D02*
X0017469Y0041115D01*
X0019021Y0041115D01*
X0019538Y0040598D01*
X0018504Y0039046D02*
X0019538Y0038012D01*
D13*
X0108572Y0051942D02*
X0108572Y0019658D01*
X0110737Y0019658D01*
X0110737Y0017493D01*
X0123335Y0017493D01*
X0142233Y0017493D02*
X0150894Y0017493D01*
X0150894Y0019658D01*
X0153060Y0019658D01*
X0153060Y0051942D01*
X0150894Y0051942D01*
X0150894Y0054107D01*
X0142233Y0054107D01*
X0123335Y0054107D02*
X0110737Y0054107D01*
X0110737Y0051942D01*
X0108572Y0051942D01*
X0176072Y0048658D02*
X0178237Y0048658D01*
X0178237Y0046493D01*
X0190835Y0046493D01*
X0176072Y0048658D02*
X0176072Y0080942D01*
X0178237Y0080942D01*
X0178237Y0083107D01*
X0190835Y0083107D01*
X0209733Y0083107D02*
X0218394Y0083107D01*
X0218394Y0080942D01*
X0220560Y0080942D01*
X0220560Y0048658D01*
X0218394Y0048658D01*
X0218394Y0046493D01*
X0209733Y0046493D01*
X0243572Y0051942D02*
X0245737Y0051942D01*
X0245737Y0054107D01*
X0258335Y0054107D01*
X0243572Y0051942D02*
X0243572Y0019658D01*
X0245737Y0019658D01*
X0245737Y0017493D01*
X0258335Y0017493D01*
X0277233Y0017493D02*
X0285894Y0017493D01*
X0285894Y0019658D01*
X0288060Y0019658D01*
X0288060Y0051942D01*
X0285894Y0051942D01*
X0285894Y0054107D01*
X0277233Y0054107D01*
X0311072Y0048658D02*
X0313237Y0048658D01*
X0313237Y0046493D01*
X0325835Y0046493D01*
X0311072Y0048658D02*
X0311072Y0080942D01*
X0313237Y0080942D01*
X0313237Y0083107D01*
X0325835Y0083107D01*
X0344733Y0083107D02*
X0353394Y0083107D01*
X0353394Y0080942D01*
X0355560Y0080942D01*
X0355560Y0048658D01*
X0353394Y0048658D01*
X0353394Y0046493D01*
X0344733Y0046493D01*
X0378572Y0051942D02*
X0380737Y0051942D01*
X0380737Y0054107D01*
X0393335Y0054107D01*
X0378572Y0051942D02*
X0378572Y0019658D01*
X0380737Y0019658D01*
X0380737Y0017493D01*
X0393335Y0017493D01*
X0412233Y0017493D02*
X0420894Y0017493D01*
X0420894Y0019658D01*
X0423060Y0019658D01*
X0423060Y0051942D01*
X0420894Y0051942D01*
X0420894Y0054107D01*
X0412233Y0054107D01*
D14*
X0397800Y0035800D02*
X0397802Y0035926D01*
X0397808Y0036052D01*
X0397818Y0036178D01*
X0397832Y0036304D01*
X0397850Y0036429D01*
X0397872Y0036553D01*
X0397897Y0036677D01*
X0397927Y0036800D01*
X0397960Y0036921D01*
X0397998Y0037042D01*
X0398039Y0037161D01*
X0398084Y0037280D01*
X0398132Y0037396D01*
X0398184Y0037511D01*
X0398240Y0037624D01*
X0398300Y0037736D01*
X0398363Y0037845D01*
X0398429Y0037953D01*
X0398498Y0038058D01*
X0398571Y0038161D01*
X0398648Y0038262D01*
X0398727Y0038360D01*
X0398809Y0038456D01*
X0398895Y0038549D01*
X0398983Y0038640D01*
X0399074Y0038727D01*
X0399168Y0038812D01*
X0399264Y0038893D01*
X0399363Y0038972D01*
X0399464Y0039047D01*
X0399568Y0039119D01*
X0399674Y0039188D01*
X0399782Y0039254D01*
X0399892Y0039316D01*
X0400004Y0039374D01*
X0400117Y0039429D01*
X0400233Y0039480D01*
X0400350Y0039528D01*
X0400468Y0039572D01*
X0400588Y0039612D01*
X0400709Y0039648D01*
X0400831Y0039681D01*
X0400954Y0039710D01*
X0401078Y0039734D01*
X0401202Y0039755D01*
X0401327Y0039772D01*
X0401453Y0039785D01*
X0401579Y0039794D01*
X0401705Y0039799D01*
X0401832Y0039800D01*
X0401958Y0039797D01*
X0402084Y0039790D01*
X0402210Y0039779D01*
X0402335Y0039764D01*
X0402460Y0039745D01*
X0402584Y0039722D01*
X0402708Y0039696D01*
X0402830Y0039665D01*
X0402952Y0039631D01*
X0403072Y0039592D01*
X0403191Y0039550D01*
X0403309Y0039505D01*
X0403425Y0039455D01*
X0403540Y0039402D01*
X0403652Y0039345D01*
X0403763Y0039285D01*
X0403872Y0039221D01*
X0403979Y0039154D01*
X0404084Y0039084D01*
X0404187Y0039010D01*
X0404287Y0038933D01*
X0404385Y0038853D01*
X0404480Y0038770D01*
X0404572Y0038684D01*
X0404662Y0038595D01*
X0404749Y0038503D01*
X0404832Y0038409D01*
X0404913Y0038312D01*
X0404991Y0038212D01*
X0405066Y0038110D01*
X0405137Y0038006D01*
X0405205Y0037899D01*
X0405269Y0037791D01*
X0405330Y0037680D01*
X0405388Y0037568D01*
X0405442Y0037454D01*
X0405492Y0037338D01*
X0405539Y0037221D01*
X0405582Y0037102D01*
X0405621Y0036982D01*
X0405657Y0036861D01*
X0405688Y0036738D01*
X0405716Y0036615D01*
X0405740Y0036491D01*
X0405760Y0036366D01*
X0405776Y0036241D01*
X0405788Y0036115D01*
X0405796Y0035989D01*
X0405800Y0035863D01*
X0405800Y0035737D01*
X0405796Y0035611D01*
X0405788Y0035485D01*
X0405776Y0035359D01*
X0405760Y0035234D01*
X0405740Y0035109D01*
X0405716Y0034985D01*
X0405688Y0034862D01*
X0405657Y0034739D01*
X0405621Y0034618D01*
X0405582Y0034498D01*
X0405539Y0034379D01*
X0405492Y0034262D01*
X0405442Y0034146D01*
X0405388Y0034032D01*
X0405330Y0033920D01*
X0405269Y0033809D01*
X0405205Y0033701D01*
X0405137Y0033594D01*
X0405066Y0033490D01*
X0404991Y0033388D01*
X0404913Y0033288D01*
X0404832Y0033191D01*
X0404749Y0033097D01*
X0404662Y0033005D01*
X0404572Y0032916D01*
X0404480Y0032830D01*
X0404385Y0032747D01*
X0404287Y0032667D01*
X0404187Y0032590D01*
X0404084Y0032516D01*
X0403979Y0032446D01*
X0403872Y0032379D01*
X0403763Y0032315D01*
X0403652Y0032255D01*
X0403540Y0032198D01*
X0403425Y0032145D01*
X0403309Y0032095D01*
X0403191Y0032050D01*
X0403072Y0032008D01*
X0402952Y0031969D01*
X0402830Y0031935D01*
X0402708Y0031904D01*
X0402584Y0031878D01*
X0402460Y0031855D01*
X0402335Y0031836D01*
X0402210Y0031821D01*
X0402084Y0031810D01*
X0401958Y0031803D01*
X0401832Y0031800D01*
X0401705Y0031801D01*
X0401579Y0031806D01*
X0401453Y0031815D01*
X0401327Y0031828D01*
X0401202Y0031845D01*
X0401078Y0031866D01*
X0400954Y0031890D01*
X0400831Y0031919D01*
X0400709Y0031952D01*
X0400588Y0031988D01*
X0400468Y0032028D01*
X0400350Y0032072D01*
X0400233Y0032120D01*
X0400117Y0032171D01*
X0400004Y0032226D01*
X0399892Y0032284D01*
X0399782Y0032346D01*
X0399674Y0032412D01*
X0399568Y0032481D01*
X0399464Y0032553D01*
X0399363Y0032628D01*
X0399264Y0032707D01*
X0399168Y0032788D01*
X0399074Y0032873D01*
X0398983Y0032960D01*
X0398895Y0033051D01*
X0398809Y0033144D01*
X0398727Y0033240D01*
X0398648Y0033338D01*
X0398571Y0033439D01*
X0398498Y0033542D01*
X0398429Y0033647D01*
X0398363Y0033755D01*
X0398300Y0033864D01*
X0398240Y0033976D01*
X0398184Y0034089D01*
X0398132Y0034204D01*
X0398084Y0034320D01*
X0398039Y0034439D01*
X0397998Y0034558D01*
X0397960Y0034679D01*
X0397927Y0034800D01*
X0397897Y0034923D01*
X0397872Y0035047D01*
X0397850Y0035171D01*
X0397832Y0035296D01*
X0397818Y0035422D01*
X0397808Y0035548D01*
X0397802Y0035674D01*
X0397800Y0035800D01*
X0396300Y0035800D02*
X0396302Y0035948D01*
X0396308Y0036096D01*
X0396318Y0036244D01*
X0396332Y0036392D01*
X0396350Y0036539D01*
X0396372Y0036686D01*
X0396398Y0036832D01*
X0396427Y0036977D01*
X0396461Y0037122D01*
X0396499Y0037265D01*
X0396540Y0037408D01*
X0396585Y0037549D01*
X0396635Y0037689D01*
X0396687Y0037827D01*
X0396744Y0037965D01*
X0396804Y0038100D01*
X0396868Y0038234D01*
X0396935Y0038366D01*
X0397006Y0038496D01*
X0397081Y0038625D01*
X0397159Y0038751D01*
X0397240Y0038875D01*
X0397324Y0038997D01*
X0397412Y0039116D01*
X0397503Y0039233D01*
X0397597Y0039348D01*
X0397695Y0039460D01*
X0397795Y0039569D01*
X0397898Y0039676D01*
X0398004Y0039780D01*
X0398112Y0039881D01*
X0398224Y0039979D01*
X0398338Y0040074D01*
X0398454Y0040165D01*
X0398573Y0040254D01*
X0398694Y0040339D01*
X0398818Y0040421D01*
X0398944Y0040500D01*
X0399071Y0040575D01*
X0399201Y0040647D01*
X0399333Y0040716D01*
X0399466Y0040780D01*
X0399601Y0040841D01*
X0399738Y0040899D01*
X0399876Y0040953D01*
X0400016Y0041003D01*
X0400157Y0041049D01*
X0400299Y0041091D01*
X0400442Y0041130D01*
X0400586Y0041164D01*
X0400732Y0041195D01*
X0400877Y0041222D01*
X0401024Y0041245D01*
X0401171Y0041264D01*
X0401319Y0041279D01*
X0401466Y0041290D01*
X0401615Y0041297D01*
X0401763Y0041300D01*
X0401911Y0041299D01*
X0402059Y0041294D01*
X0402207Y0041285D01*
X0402355Y0041272D01*
X0402503Y0041255D01*
X0402649Y0041234D01*
X0402796Y0041209D01*
X0402941Y0041180D01*
X0403086Y0041148D01*
X0403229Y0041111D01*
X0403372Y0041071D01*
X0403514Y0041026D01*
X0403654Y0040978D01*
X0403793Y0040926D01*
X0403930Y0040871D01*
X0404066Y0040811D01*
X0404201Y0040748D01*
X0404333Y0040682D01*
X0404464Y0040612D01*
X0404593Y0040538D01*
X0404719Y0040461D01*
X0404844Y0040381D01*
X0404966Y0040297D01*
X0405087Y0040210D01*
X0405204Y0040120D01*
X0405320Y0040026D01*
X0405432Y0039930D01*
X0405542Y0039831D01*
X0405650Y0039728D01*
X0405754Y0039623D01*
X0405856Y0039515D01*
X0405954Y0039404D01*
X0406050Y0039291D01*
X0406143Y0039175D01*
X0406232Y0039057D01*
X0406318Y0038936D01*
X0406401Y0038813D01*
X0406481Y0038688D01*
X0406557Y0038561D01*
X0406630Y0038431D01*
X0406699Y0038300D01*
X0406764Y0038167D01*
X0406827Y0038033D01*
X0406885Y0037896D01*
X0406940Y0037758D01*
X0406990Y0037619D01*
X0407038Y0037478D01*
X0407081Y0037337D01*
X0407121Y0037194D01*
X0407156Y0037050D01*
X0407188Y0036905D01*
X0407216Y0036759D01*
X0407240Y0036613D01*
X0407260Y0036466D01*
X0407276Y0036318D01*
X0407288Y0036171D01*
X0407296Y0036022D01*
X0407300Y0035874D01*
X0407300Y0035726D01*
X0407296Y0035578D01*
X0407288Y0035429D01*
X0407276Y0035282D01*
X0407260Y0035134D01*
X0407240Y0034987D01*
X0407216Y0034841D01*
X0407188Y0034695D01*
X0407156Y0034550D01*
X0407121Y0034406D01*
X0407081Y0034263D01*
X0407038Y0034122D01*
X0406990Y0033981D01*
X0406940Y0033842D01*
X0406885Y0033704D01*
X0406827Y0033567D01*
X0406764Y0033433D01*
X0406699Y0033300D01*
X0406630Y0033169D01*
X0406557Y0033039D01*
X0406481Y0032912D01*
X0406401Y0032787D01*
X0406318Y0032664D01*
X0406232Y0032543D01*
X0406143Y0032425D01*
X0406050Y0032309D01*
X0405954Y0032196D01*
X0405856Y0032085D01*
X0405754Y0031977D01*
X0405650Y0031872D01*
X0405542Y0031769D01*
X0405432Y0031670D01*
X0405320Y0031574D01*
X0405204Y0031480D01*
X0405087Y0031390D01*
X0404966Y0031303D01*
X0404844Y0031219D01*
X0404719Y0031139D01*
X0404593Y0031062D01*
X0404464Y0030988D01*
X0404333Y0030918D01*
X0404201Y0030852D01*
X0404066Y0030789D01*
X0403930Y0030729D01*
X0403793Y0030674D01*
X0403654Y0030622D01*
X0403514Y0030574D01*
X0403372Y0030529D01*
X0403229Y0030489D01*
X0403086Y0030452D01*
X0402941Y0030420D01*
X0402796Y0030391D01*
X0402649Y0030366D01*
X0402503Y0030345D01*
X0402355Y0030328D01*
X0402207Y0030315D01*
X0402059Y0030306D01*
X0401911Y0030301D01*
X0401763Y0030300D01*
X0401615Y0030303D01*
X0401466Y0030310D01*
X0401319Y0030321D01*
X0401171Y0030336D01*
X0401024Y0030355D01*
X0400877Y0030378D01*
X0400732Y0030405D01*
X0400586Y0030436D01*
X0400442Y0030470D01*
X0400299Y0030509D01*
X0400157Y0030551D01*
X0400016Y0030597D01*
X0399876Y0030647D01*
X0399738Y0030701D01*
X0399601Y0030759D01*
X0399466Y0030820D01*
X0399333Y0030884D01*
X0399201Y0030953D01*
X0399071Y0031025D01*
X0398944Y0031100D01*
X0398818Y0031179D01*
X0398694Y0031261D01*
X0398573Y0031346D01*
X0398454Y0031435D01*
X0398338Y0031526D01*
X0398224Y0031621D01*
X0398112Y0031719D01*
X0398004Y0031820D01*
X0397898Y0031924D01*
X0397795Y0032031D01*
X0397695Y0032140D01*
X0397597Y0032252D01*
X0397503Y0032367D01*
X0397412Y0032484D01*
X0397324Y0032603D01*
X0397240Y0032725D01*
X0397159Y0032849D01*
X0397081Y0032975D01*
X0397006Y0033104D01*
X0396935Y0033234D01*
X0396868Y0033366D01*
X0396804Y0033500D01*
X0396744Y0033635D01*
X0396687Y0033773D01*
X0396635Y0033911D01*
X0396585Y0034051D01*
X0396540Y0034192D01*
X0396499Y0034335D01*
X0396461Y0034478D01*
X0396427Y0034623D01*
X0396398Y0034768D01*
X0396372Y0034914D01*
X0396350Y0035061D01*
X0396332Y0035208D01*
X0396318Y0035356D01*
X0396308Y0035504D01*
X0396302Y0035652D01*
X0396300Y0035800D01*
X0330300Y0064800D02*
X0330302Y0064926D01*
X0330308Y0065052D01*
X0330318Y0065178D01*
X0330332Y0065304D01*
X0330350Y0065429D01*
X0330372Y0065553D01*
X0330397Y0065677D01*
X0330427Y0065800D01*
X0330460Y0065921D01*
X0330498Y0066042D01*
X0330539Y0066161D01*
X0330584Y0066280D01*
X0330632Y0066396D01*
X0330684Y0066511D01*
X0330740Y0066624D01*
X0330800Y0066736D01*
X0330863Y0066845D01*
X0330929Y0066953D01*
X0330998Y0067058D01*
X0331071Y0067161D01*
X0331148Y0067262D01*
X0331227Y0067360D01*
X0331309Y0067456D01*
X0331395Y0067549D01*
X0331483Y0067640D01*
X0331574Y0067727D01*
X0331668Y0067812D01*
X0331764Y0067893D01*
X0331863Y0067972D01*
X0331964Y0068047D01*
X0332068Y0068119D01*
X0332174Y0068188D01*
X0332282Y0068254D01*
X0332392Y0068316D01*
X0332504Y0068374D01*
X0332617Y0068429D01*
X0332733Y0068480D01*
X0332850Y0068528D01*
X0332968Y0068572D01*
X0333088Y0068612D01*
X0333209Y0068648D01*
X0333331Y0068681D01*
X0333454Y0068710D01*
X0333578Y0068734D01*
X0333702Y0068755D01*
X0333827Y0068772D01*
X0333953Y0068785D01*
X0334079Y0068794D01*
X0334205Y0068799D01*
X0334332Y0068800D01*
X0334458Y0068797D01*
X0334584Y0068790D01*
X0334710Y0068779D01*
X0334835Y0068764D01*
X0334960Y0068745D01*
X0335084Y0068722D01*
X0335208Y0068696D01*
X0335330Y0068665D01*
X0335452Y0068631D01*
X0335572Y0068592D01*
X0335691Y0068550D01*
X0335809Y0068505D01*
X0335925Y0068455D01*
X0336040Y0068402D01*
X0336152Y0068345D01*
X0336263Y0068285D01*
X0336372Y0068221D01*
X0336479Y0068154D01*
X0336584Y0068084D01*
X0336687Y0068010D01*
X0336787Y0067933D01*
X0336885Y0067853D01*
X0336980Y0067770D01*
X0337072Y0067684D01*
X0337162Y0067595D01*
X0337249Y0067503D01*
X0337332Y0067409D01*
X0337413Y0067312D01*
X0337491Y0067212D01*
X0337566Y0067110D01*
X0337637Y0067006D01*
X0337705Y0066899D01*
X0337769Y0066791D01*
X0337830Y0066680D01*
X0337888Y0066568D01*
X0337942Y0066454D01*
X0337992Y0066338D01*
X0338039Y0066221D01*
X0338082Y0066102D01*
X0338121Y0065982D01*
X0338157Y0065861D01*
X0338188Y0065738D01*
X0338216Y0065615D01*
X0338240Y0065491D01*
X0338260Y0065366D01*
X0338276Y0065241D01*
X0338288Y0065115D01*
X0338296Y0064989D01*
X0338300Y0064863D01*
X0338300Y0064737D01*
X0338296Y0064611D01*
X0338288Y0064485D01*
X0338276Y0064359D01*
X0338260Y0064234D01*
X0338240Y0064109D01*
X0338216Y0063985D01*
X0338188Y0063862D01*
X0338157Y0063739D01*
X0338121Y0063618D01*
X0338082Y0063498D01*
X0338039Y0063379D01*
X0337992Y0063262D01*
X0337942Y0063146D01*
X0337888Y0063032D01*
X0337830Y0062920D01*
X0337769Y0062809D01*
X0337705Y0062701D01*
X0337637Y0062594D01*
X0337566Y0062490D01*
X0337491Y0062388D01*
X0337413Y0062288D01*
X0337332Y0062191D01*
X0337249Y0062097D01*
X0337162Y0062005D01*
X0337072Y0061916D01*
X0336980Y0061830D01*
X0336885Y0061747D01*
X0336787Y0061667D01*
X0336687Y0061590D01*
X0336584Y0061516D01*
X0336479Y0061446D01*
X0336372Y0061379D01*
X0336263Y0061315D01*
X0336152Y0061255D01*
X0336040Y0061198D01*
X0335925Y0061145D01*
X0335809Y0061095D01*
X0335691Y0061050D01*
X0335572Y0061008D01*
X0335452Y0060969D01*
X0335330Y0060935D01*
X0335208Y0060904D01*
X0335084Y0060878D01*
X0334960Y0060855D01*
X0334835Y0060836D01*
X0334710Y0060821D01*
X0334584Y0060810D01*
X0334458Y0060803D01*
X0334332Y0060800D01*
X0334205Y0060801D01*
X0334079Y0060806D01*
X0333953Y0060815D01*
X0333827Y0060828D01*
X0333702Y0060845D01*
X0333578Y0060866D01*
X0333454Y0060890D01*
X0333331Y0060919D01*
X0333209Y0060952D01*
X0333088Y0060988D01*
X0332968Y0061028D01*
X0332850Y0061072D01*
X0332733Y0061120D01*
X0332617Y0061171D01*
X0332504Y0061226D01*
X0332392Y0061284D01*
X0332282Y0061346D01*
X0332174Y0061412D01*
X0332068Y0061481D01*
X0331964Y0061553D01*
X0331863Y0061628D01*
X0331764Y0061707D01*
X0331668Y0061788D01*
X0331574Y0061873D01*
X0331483Y0061960D01*
X0331395Y0062051D01*
X0331309Y0062144D01*
X0331227Y0062240D01*
X0331148Y0062338D01*
X0331071Y0062439D01*
X0330998Y0062542D01*
X0330929Y0062647D01*
X0330863Y0062755D01*
X0330800Y0062864D01*
X0330740Y0062976D01*
X0330684Y0063089D01*
X0330632Y0063204D01*
X0330584Y0063320D01*
X0330539Y0063439D01*
X0330498Y0063558D01*
X0330460Y0063679D01*
X0330427Y0063800D01*
X0330397Y0063923D01*
X0330372Y0064047D01*
X0330350Y0064171D01*
X0330332Y0064296D01*
X0330318Y0064422D01*
X0330308Y0064548D01*
X0330302Y0064674D01*
X0330300Y0064800D01*
X0328800Y0064800D02*
X0328802Y0064948D01*
X0328808Y0065096D01*
X0328818Y0065244D01*
X0328832Y0065392D01*
X0328850Y0065539D01*
X0328872Y0065686D01*
X0328898Y0065832D01*
X0328927Y0065977D01*
X0328961Y0066122D01*
X0328999Y0066265D01*
X0329040Y0066408D01*
X0329085Y0066549D01*
X0329135Y0066689D01*
X0329187Y0066827D01*
X0329244Y0066965D01*
X0329304Y0067100D01*
X0329368Y0067234D01*
X0329435Y0067366D01*
X0329506Y0067496D01*
X0329581Y0067625D01*
X0329659Y0067751D01*
X0329740Y0067875D01*
X0329824Y0067997D01*
X0329912Y0068116D01*
X0330003Y0068233D01*
X0330097Y0068348D01*
X0330195Y0068460D01*
X0330295Y0068569D01*
X0330398Y0068676D01*
X0330504Y0068780D01*
X0330612Y0068881D01*
X0330724Y0068979D01*
X0330838Y0069074D01*
X0330954Y0069165D01*
X0331073Y0069254D01*
X0331194Y0069339D01*
X0331318Y0069421D01*
X0331444Y0069500D01*
X0331571Y0069575D01*
X0331701Y0069647D01*
X0331833Y0069716D01*
X0331966Y0069780D01*
X0332101Y0069841D01*
X0332238Y0069899D01*
X0332376Y0069953D01*
X0332516Y0070003D01*
X0332657Y0070049D01*
X0332799Y0070091D01*
X0332942Y0070130D01*
X0333086Y0070164D01*
X0333232Y0070195D01*
X0333377Y0070222D01*
X0333524Y0070245D01*
X0333671Y0070264D01*
X0333819Y0070279D01*
X0333966Y0070290D01*
X0334115Y0070297D01*
X0334263Y0070300D01*
X0334411Y0070299D01*
X0334559Y0070294D01*
X0334707Y0070285D01*
X0334855Y0070272D01*
X0335003Y0070255D01*
X0335149Y0070234D01*
X0335296Y0070209D01*
X0335441Y0070180D01*
X0335586Y0070148D01*
X0335729Y0070111D01*
X0335872Y0070071D01*
X0336014Y0070026D01*
X0336154Y0069978D01*
X0336293Y0069926D01*
X0336430Y0069871D01*
X0336566Y0069811D01*
X0336701Y0069748D01*
X0336833Y0069682D01*
X0336964Y0069612D01*
X0337093Y0069538D01*
X0337219Y0069461D01*
X0337344Y0069381D01*
X0337466Y0069297D01*
X0337587Y0069210D01*
X0337704Y0069120D01*
X0337820Y0069026D01*
X0337932Y0068930D01*
X0338042Y0068831D01*
X0338150Y0068728D01*
X0338254Y0068623D01*
X0338356Y0068515D01*
X0338454Y0068404D01*
X0338550Y0068291D01*
X0338643Y0068175D01*
X0338732Y0068057D01*
X0338818Y0067936D01*
X0338901Y0067813D01*
X0338981Y0067688D01*
X0339057Y0067561D01*
X0339130Y0067431D01*
X0339199Y0067300D01*
X0339264Y0067167D01*
X0339327Y0067033D01*
X0339385Y0066896D01*
X0339440Y0066758D01*
X0339490Y0066619D01*
X0339538Y0066478D01*
X0339581Y0066337D01*
X0339621Y0066194D01*
X0339656Y0066050D01*
X0339688Y0065905D01*
X0339716Y0065759D01*
X0339740Y0065613D01*
X0339760Y0065466D01*
X0339776Y0065318D01*
X0339788Y0065171D01*
X0339796Y0065022D01*
X0339800Y0064874D01*
X0339800Y0064726D01*
X0339796Y0064578D01*
X0339788Y0064429D01*
X0339776Y0064282D01*
X0339760Y0064134D01*
X0339740Y0063987D01*
X0339716Y0063841D01*
X0339688Y0063695D01*
X0339656Y0063550D01*
X0339621Y0063406D01*
X0339581Y0063263D01*
X0339538Y0063122D01*
X0339490Y0062981D01*
X0339440Y0062842D01*
X0339385Y0062704D01*
X0339327Y0062567D01*
X0339264Y0062433D01*
X0339199Y0062300D01*
X0339130Y0062169D01*
X0339057Y0062039D01*
X0338981Y0061912D01*
X0338901Y0061787D01*
X0338818Y0061664D01*
X0338732Y0061543D01*
X0338643Y0061425D01*
X0338550Y0061309D01*
X0338454Y0061196D01*
X0338356Y0061085D01*
X0338254Y0060977D01*
X0338150Y0060872D01*
X0338042Y0060769D01*
X0337932Y0060670D01*
X0337820Y0060574D01*
X0337704Y0060480D01*
X0337587Y0060390D01*
X0337466Y0060303D01*
X0337344Y0060219D01*
X0337219Y0060139D01*
X0337093Y0060062D01*
X0336964Y0059988D01*
X0336833Y0059918D01*
X0336701Y0059852D01*
X0336566Y0059789D01*
X0336430Y0059729D01*
X0336293Y0059674D01*
X0336154Y0059622D01*
X0336014Y0059574D01*
X0335872Y0059529D01*
X0335729Y0059489D01*
X0335586Y0059452D01*
X0335441Y0059420D01*
X0335296Y0059391D01*
X0335149Y0059366D01*
X0335003Y0059345D01*
X0334855Y0059328D01*
X0334707Y0059315D01*
X0334559Y0059306D01*
X0334411Y0059301D01*
X0334263Y0059300D01*
X0334115Y0059303D01*
X0333966Y0059310D01*
X0333819Y0059321D01*
X0333671Y0059336D01*
X0333524Y0059355D01*
X0333377Y0059378D01*
X0333232Y0059405D01*
X0333086Y0059436D01*
X0332942Y0059470D01*
X0332799Y0059509D01*
X0332657Y0059551D01*
X0332516Y0059597D01*
X0332376Y0059647D01*
X0332238Y0059701D01*
X0332101Y0059759D01*
X0331966Y0059820D01*
X0331833Y0059884D01*
X0331701Y0059953D01*
X0331571Y0060025D01*
X0331444Y0060100D01*
X0331318Y0060179D01*
X0331194Y0060261D01*
X0331073Y0060346D01*
X0330954Y0060435D01*
X0330838Y0060526D01*
X0330724Y0060621D01*
X0330612Y0060719D01*
X0330504Y0060820D01*
X0330398Y0060924D01*
X0330295Y0061031D01*
X0330195Y0061140D01*
X0330097Y0061252D01*
X0330003Y0061367D01*
X0329912Y0061484D01*
X0329824Y0061603D01*
X0329740Y0061725D01*
X0329659Y0061849D01*
X0329581Y0061975D01*
X0329506Y0062104D01*
X0329435Y0062234D01*
X0329368Y0062366D01*
X0329304Y0062500D01*
X0329244Y0062635D01*
X0329187Y0062773D01*
X0329135Y0062911D01*
X0329085Y0063051D01*
X0329040Y0063192D01*
X0328999Y0063335D01*
X0328961Y0063478D01*
X0328927Y0063623D01*
X0328898Y0063768D01*
X0328872Y0063914D01*
X0328850Y0064061D01*
X0328832Y0064208D01*
X0328818Y0064356D01*
X0328808Y0064504D01*
X0328802Y0064652D01*
X0328800Y0064800D01*
X0262800Y0035800D02*
X0262802Y0035926D01*
X0262808Y0036052D01*
X0262818Y0036178D01*
X0262832Y0036304D01*
X0262850Y0036429D01*
X0262872Y0036553D01*
X0262897Y0036677D01*
X0262927Y0036800D01*
X0262960Y0036921D01*
X0262998Y0037042D01*
X0263039Y0037161D01*
X0263084Y0037280D01*
X0263132Y0037396D01*
X0263184Y0037511D01*
X0263240Y0037624D01*
X0263300Y0037736D01*
X0263363Y0037845D01*
X0263429Y0037953D01*
X0263498Y0038058D01*
X0263571Y0038161D01*
X0263648Y0038262D01*
X0263727Y0038360D01*
X0263809Y0038456D01*
X0263895Y0038549D01*
X0263983Y0038640D01*
X0264074Y0038727D01*
X0264168Y0038812D01*
X0264264Y0038893D01*
X0264363Y0038972D01*
X0264464Y0039047D01*
X0264568Y0039119D01*
X0264674Y0039188D01*
X0264782Y0039254D01*
X0264892Y0039316D01*
X0265004Y0039374D01*
X0265117Y0039429D01*
X0265233Y0039480D01*
X0265350Y0039528D01*
X0265468Y0039572D01*
X0265588Y0039612D01*
X0265709Y0039648D01*
X0265831Y0039681D01*
X0265954Y0039710D01*
X0266078Y0039734D01*
X0266202Y0039755D01*
X0266327Y0039772D01*
X0266453Y0039785D01*
X0266579Y0039794D01*
X0266705Y0039799D01*
X0266832Y0039800D01*
X0266958Y0039797D01*
X0267084Y0039790D01*
X0267210Y0039779D01*
X0267335Y0039764D01*
X0267460Y0039745D01*
X0267584Y0039722D01*
X0267708Y0039696D01*
X0267830Y0039665D01*
X0267952Y0039631D01*
X0268072Y0039592D01*
X0268191Y0039550D01*
X0268309Y0039505D01*
X0268425Y0039455D01*
X0268540Y0039402D01*
X0268652Y0039345D01*
X0268763Y0039285D01*
X0268872Y0039221D01*
X0268979Y0039154D01*
X0269084Y0039084D01*
X0269187Y0039010D01*
X0269287Y0038933D01*
X0269385Y0038853D01*
X0269480Y0038770D01*
X0269572Y0038684D01*
X0269662Y0038595D01*
X0269749Y0038503D01*
X0269832Y0038409D01*
X0269913Y0038312D01*
X0269991Y0038212D01*
X0270066Y0038110D01*
X0270137Y0038006D01*
X0270205Y0037899D01*
X0270269Y0037791D01*
X0270330Y0037680D01*
X0270388Y0037568D01*
X0270442Y0037454D01*
X0270492Y0037338D01*
X0270539Y0037221D01*
X0270582Y0037102D01*
X0270621Y0036982D01*
X0270657Y0036861D01*
X0270688Y0036738D01*
X0270716Y0036615D01*
X0270740Y0036491D01*
X0270760Y0036366D01*
X0270776Y0036241D01*
X0270788Y0036115D01*
X0270796Y0035989D01*
X0270800Y0035863D01*
X0270800Y0035737D01*
X0270796Y0035611D01*
X0270788Y0035485D01*
X0270776Y0035359D01*
X0270760Y0035234D01*
X0270740Y0035109D01*
X0270716Y0034985D01*
X0270688Y0034862D01*
X0270657Y0034739D01*
X0270621Y0034618D01*
X0270582Y0034498D01*
X0270539Y0034379D01*
X0270492Y0034262D01*
X0270442Y0034146D01*
X0270388Y0034032D01*
X0270330Y0033920D01*
X0270269Y0033809D01*
X0270205Y0033701D01*
X0270137Y0033594D01*
X0270066Y0033490D01*
X0269991Y0033388D01*
X0269913Y0033288D01*
X0269832Y0033191D01*
X0269749Y0033097D01*
X0269662Y0033005D01*
X0269572Y0032916D01*
X0269480Y0032830D01*
X0269385Y0032747D01*
X0269287Y0032667D01*
X0269187Y0032590D01*
X0269084Y0032516D01*
X0268979Y0032446D01*
X0268872Y0032379D01*
X0268763Y0032315D01*
X0268652Y0032255D01*
X0268540Y0032198D01*
X0268425Y0032145D01*
X0268309Y0032095D01*
X0268191Y0032050D01*
X0268072Y0032008D01*
X0267952Y0031969D01*
X0267830Y0031935D01*
X0267708Y0031904D01*
X0267584Y0031878D01*
X0267460Y0031855D01*
X0267335Y0031836D01*
X0267210Y0031821D01*
X0267084Y0031810D01*
X0266958Y0031803D01*
X0266832Y0031800D01*
X0266705Y0031801D01*
X0266579Y0031806D01*
X0266453Y0031815D01*
X0266327Y0031828D01*
X0266202Y0031845D01*
X0266078Y0031866D01*
X0265954Y0031890D01*
X0265831Y0031919D01*
X0265709Y0031952D01*
X0265588Y0031988D01*
X0265468Y0032028D01*
X0265350Y0032072D01*
X0265233Y0032120D01*
X0265117Y0032171D01*
X0265004Y0032226D01*
X0264892Y0032284D01*
X0264782Y0032346D01*
X0264674Y0032412D01*
X0264568Y0032481D01*
X0264464Y0032553D01*
X0264363Y0032628D01*
X0264264Y0032707D01*
X0264168Y0032788D01*
X0264074Y0032873D01*
X0263983Y0032960D01*
X0263895Y0033051D01*
X0263809Y0033144D01*
X0263727Y0033240D01*
X0263648Y0033338D01*
X0263571Y0033439D01*
X0263498Y0033542D01*
X0263429Y0033647D01*
X0263363Y0033755D01*
X0263300Y0033864D01*
X0263240Y0033976D01*
X0263184Y0034089D01*
X0263132Y0034204D01*
X0263084Y0034320D01*
X0263039Y0034439D01*
X0262998Y0034558D01*
X0262960Y0034679D01*
X0262927Y0034800D01*
X0262897Y0034923D01*
X0262872Y0035047D01*
X0262850Y0035171D01*
X0262832Y0035296D01*
X0262818Y0035422D01*
X0262808Y0035548D01*
X0262802Y0035674D01*
X0262800Y0035800D01*
X0261300Y0035800D02*
X0261302Y0035948D01*
X0261308Y0036096D01*
X0261318Y0036244D01*
X0261332Y0036392D01*
X0261350Y0036539D01*
X0261372Y0036686D01*
X0261398Y0036832D01*
X0261427Y0036977D01*
X0261461Y0037122D01*
X0261499Y0037265D01*
X0261540Y0037408D01*
X0261585Y0037549D01*
X0261635Y0037689D01*
X0261687Y0037827D01*
X0261744Y0037965D01*
X0261804Y0038100D01*
X0261868Y0038234D01*
X0261935Y0038366D01*
X0262006Y0038496D01*
X0262081Y0038625D01*
X0262159Y0038751D01*
X0262240Y0038875D01*
X0262324Y0038997D01*
X0262412Y0039116D01*
X0262503Y0039233D01*
X0262597Y0039348D01*
X0262695Y0039460D01*
X0262795Y0039569D01*
X0262898Y0039676D01*
X0263004Y0039780D01*
X0263112Y0039881D01*
X0263224Y0039979D01*
X0263338Y0040074D01*
X0263454Y0040165D01*
X0263573Y0040254D01*
X0263694Y0040339D01*
X0263818Y0040421D01*
X0263944Y0040500D01*
X0264071Y0040575D01*
X0264201Y0040647D01*
X0264333Y0040716D01*
X0264466Y0040780D01*
X0264601Y0040841D01*
X0264738Y0040899D01*
X0264876Y0040953D01*
X0265016Y0041003D01*
X0265157Y0041049D01*
X0265299Y0041091D01*
X0265442Y0041130D01*
X0265586Y0041164D01*
X0265732Y0041195D01*
X0265877Y0041222D01*
X0266024Y0041245D01*
X0266171Y0041264D01*
X0266319Y0041279D01*
X0266466Y0041290D01*
X0266615Y0041297D01*
X0266763Y0041300D01*
X0266911Y0041299D01*
X0267059Y0041294D01*
X0267207Y0041285D01*
X0267355Y0041272D01*
X0267503Y0041255D01*
X0267649Y0041234D01*
X0267796Y0041209D01*
X0267941Y0041180D01*
X0268086Y0041148D01*
X0268229Y0041111D01*
X0268372Y0041071D01*
X0268514Y0041026D01*
X0268654Y0040978D01*
X0268793Y0040926D01*
X0268930Y0040871D01*
X0269066Y0040811D01*
X0269201Y0040748D01*
X0269333Y0040682D01*
X0269464Y0040612D01*
X0269593Y0040538D01*
X0269719Y0040461D01*
X0269844Y0040381D01*
X0269966Y0040297D01*
X0270087Y0040210D01*
X0270204Y0040120D01*
X0270320Y0040026D01*
X0270432Y0039930D01*
X0270542Y0039831D01*
X0270650Y0039728D01*
X0270754Y0039623D01*
X0270856Y0039515D01*
X0270954Y0039404D01*
X0271050Y0039291D01*
X0271143Y0039175D01*
X0271232Y0039057D01*
X0271318Y0038936D01*
X0271401Y0038813D01*
X0271481Y0038688D01*
X0271557Y0038561D01*
X0271630Y0038431D01*
X0271699Y0038300D01*
X0271764Y0038167D01*
X0271827Y0038033D01*
X0271885Y0037896D01*
X0271940Y0037758D01*
X0271990Y0037619D01*
X0272038Y0037478D01*
X0272081Y0037337D01*
X0272121Y0037194D01*
X0272156Y0037050D01*
X0272188Y0036905D01*
X0272216Y0036759D01*
X0272240Y0036613D01*
X0272260Y0036466D01*
X0272276Y0036318D01*
X0272288Y0036171D01*
X0272296Y0036022D01*
X0272300Y0035874D01*
X0272300Y0035726D01*
X0272296Y0035578D01*
X0272288Y0035429D01*
X0272276Y0035282D01*
X0272260Y0035134D01*
X0272240Y0034987D01*
X0272216Y0034841D01*
X0272188Y0034695D01*
X0272156Y0034550D01*
X0272121Y0034406D01*
X0272081Y0034263D01*
X0272038Y0034122D01*
X0271990Y0033981D01*
X0271940Y0033842D01*
X0271885Y0033704D01*
X0271827Y0033567D01*
X0271764Y0033433D01*
X0271699Y0033300D01*
X0271630Y0033169D01*
X0271557Y0033039D01*
X0271481Y0032912D01*
X0271401Y0032787D01*
X0271318Y0032664D01*
X0271232Y0032543D01*
X0271143Y0032425D01*
X0271050Y0032309D01*
X0270954Y0032196D01*
X0270856Y0032085D01*
X0270754Y0031977D01*
X0270650Y0031872D01*
X0270542Y0031769D01*
X0270432Y0031670D01*
X0270320Y0031574D01*
X0270204Y0031480D01*
X0270087Y0031390D01*
X0269966Y0031303D01*
X0269844Y0031219D01*
X0269719Y0031139D01*
X0269593Y0031062D01*
X0269464Y0030988D01*
X0269333Y0030918D01*
X0269201Y0030852D01*
X0269066Y0030789D01*
X0268930Y0030729D01*
X0268793Y0030674D01*
X0268654Y0030622D01*
X0268514Y0030574D01*
X0268372Y0030529D01*
X0268229Y0030489D01*
X0268086Y0030452D01*
X0267941Y0030420D01*
X0267796Y0030391D01*
X0267649Y0030366D01*
X0267503Y0030345D01*
X0267355Y0030328D01*
X0267207Y0030315D01*
X0267059Y0030306D01*
X0266911Y0030301D01*
X0266763Y0030300D01*
X0266615Y0030303D01*
X0266466Y0030310D01*
X0266319Y0030321D01*
X0266171Y0030336D01*
X0266024Y0030355D01*
X0265877Y0030378D01*
X0265732Y0030405D01*
X0265586Y0030436D01*
X0265442Y0030470D01*
X0265299Y0030509D01*
X0265157Y0030551D01*
X0265016Y0030597D01*
X0264876Y0030647D01*
X0264738Y0030701D01*
X0264601Y0030759D01*
X0264466Y0030820D01*
X0264333Y0030884D01*
X0264201Y0030953D01*
X0264071Y0031025D01*
X0263944Y0031100D01*
X0263818Y0031179D01*
X0263694Y0031261D01*
X0263573Y0031346D01*
X0263454Y0031435D01*
X0263338Y0031526D01*
X0263224Y0031621D01*
X0263112Y0031719D01*
X0263004Y0031820D01*
X0262898Y0031924D01*
X0262795Y0032031D01*
X0262695Y0032140D01*
X0262597Y0032252D01*
X0262503Y0032367D01*
X0262412Y0032484D01*
X0262324Y0032603D01*
X0262240Y0032725D01*
X0262159Y0032849D01*
X0262081Y0032975D01*
X0262006Y0033104D01*
X0261935Y0033234D01*
X0261868Y0033366D01*
X0261804Y0033500D01*
X0261744Y0033635D01*
X0261687Y0033773D01*
X0261635Y0033911D01*
X0261585Y0034051D01*
X0261540Y0034192D01*
X0261499Y0034335D01*
X0261461Y0034478D01*
X0261427Y0034623D01*
X0261398Y0034768D01*
X0261372Y0034914D01*
X0261350Y0035061D01*
X0261332Y0035208D01*
X0261318Y0035356D01*
X0261308Y0035504D01*
X0261302Y0035652D01*
X0261300Y0035800D01*
X0195300Y0064800D02*
X0195302Y0064926D01*
X0195308Y0065052D01*
X0195318Y0065178D01*
X0195332Y0065304D01*
X0195350Y0065429D01*
X0195372Y0065553D01*
X0195397Y0065677D01*
X0195427Y0065800D01*
X0195460Y0065921D01*
X0195498Y0066042D01*
X0195539Y0066161D01*
X0195584Y0066280D01*
X0195632Y0066396D01*
X0195684Y0066511D01*
X0195740Y0066624D01*
X0195800Y0066736D01*
X0195863Y0066845D01*
X0195929Y0066953D01*
X0195998Y0067058D01*
X0196071Y0067161D01*
X0196148Y0067262D01*
X0196227Y0067360D01*
X0196309Y0067456D01*
X0196395Y0067549D01*
X0196483Y0067640D01*
X0196574Y0067727D01*
X0196668Y0067812D01*
X0196764Y0067893D01*
X0196863Y0067972D01*
X0196964Y0068047D01*
X0197068Y0068119D01*
X0197174Y0068188D01*
X0197282Y0068254D01*
X0197392Y0068316D01*
X0197504Y0068374D01*
X0197617Y0068429D01*
X0197733Y0068480D01*
X0197850Y0068528D01*
X0197968Y0068572D01*
X0198088Y0068612D01*
X0198209Y0068648D01*
X0198331Y0068681D01*
X0198454Y0068710D01*
X0198578Y0068734D01*
X0198702Y0068755D01*
X0198827Y0068772D01*
X0198953Y0068785D01*
X0199079Y0068794D01*
X0199205Y0068799D01*
X0199332Y0068800D01*
X0199458Y0068797D01*
X0199584Y0068790D01*
X0199710Y0068779D01*
X0199835Y0068764D01*
X0199960Y0068745D01*
X0200084Y0068722D01*
X0200208Y0068696D01*
X0200330Y0068665D01*
X0200452Y0068631D01*
X0200572Y0068592D01*
X0200691Y0068550D01*
X0200809Y0068505D01*
X0200925Y0068455D01*
X0201040Y0068402D01*
X0201152Y0068345D01*
X0201263Y0068285D01*
X0201372Y0068221D01*
X0201479Y0068154D01*
X0201584Y0068084D01*
X0201687Y0068010D01*
X0201787Y0067933D01*
X0201885Y0067853D01*
X0201980Y0067770D01*
X0202072Y0067684D01*
X0202162Y0067595D01*
X0202249Y0067503D01*
X0202332Y0067409D01*
X0202413Y0067312D01*
X0202491Y0067212D01*
X0202566Y0067110D01*
X0202637Y0067006D01*
X0202705Y0066899D01*
X0202769Y0066791D01*
X0202830Y0066680D01*
X0202888Y0066568D01*
X0202942Y0066454D01*
X0202992Y0066338D01*
X0203039Y0066221D01*
X0203082Y0066102D01*
X0203121Y0065982D01*
X0203157Y0065861D01*
X0203188Y0065738D01*
X0203216Y0065615D01*
X0203240Y0065491D01*
X0203260Y0065366D01*
X0203276Y0065241D01*
X0203288Y0065115D01*
X0203296Y0064989D01*
X0203300Y0064863D01*
X0203300Y0064737D01*
X0203296Y0064611D01*
X0203288Y0064485D01*
X0203276Y0064359D01*
X0203260Y0064234D01*
X0203240Y0064109D01*
X0203216Y0063985D01*
X0203188Y0063862D01*
X0203157Y0063739D01*
X0203121Y0063618D01*
X0203082Y0063498D01*
X0203039Y0063379D01*
X0202992Y0063262D01*
X0202942Y0063146D01*
X0202888Y0063032D01*
X0202830Y0062920D01*
X0202769Y0062809D01*
X0202705Y0062701D01*
X0202637Y0062594D01*
X0202566Y0062490D01*
X0202491Y0062388D01*
X0202413Y0062288D01*
X0202332Y0062191D01*
X0202249Y0062097D01*
X0202162Y0062005D01*
X0202072Y0061916D01*
X0201980Y0061830D01*
X0201885Y0061747D01*
X0201787Y0061667D01*
X0201687Y0061590D01*
X0201584Y0061516D01*
X0201479Y0061446D01*
X0201372Y0061379D01*
X0201263Y0061315D01*
X0201152Y0061255D01*
X0201040Y0061198D01*
X0200925Y0061145D01*
X0200809Y0061095D01*
X0200691Y0061050D01*
X0200572Y0061008D01*
X0200452Y0060969D01*
X0200330Y0060935D01*
X0200208Y0060904D01*
X0200084Y0060878D01*
X0199960Y0060855D01*
X0199835Y0060836D01*
X0199710Y0060821D01*
X0199584Y0060810D01*
X0199458Y0060803D01*
X0199332Y0060800D01*
X0199205Y0060801D01*
X0199079Y0060806D01*
X0198953Y0060815D01*
X0198827Y0060828D01*
X0198702Y0060845D01*
X0198578Y0060866D01*
X0198454Y0060890D01*
X0198331Y0060919D01*
X0198209Y0060952D01*
X0198088Y0060988D01*
X0197968Y0061028D01*
X0197850Y0061072D01*
X0197733Y0061120D01*
X0197617Y0061171D01*
X0197504Y0061226D01*
X0197392Y0061284D01*
X0197282Y0061346D01*
X0197174Y0061412D01*
X0197068Y0061481D01*
X0196964Y0061553D01*
X0196863Y0061628D01*
X0196764Y0061707D01*
X0196668Y0061788D01*
X0196574Y0061873D01*
X0196483Y0061960D01*
X0196395Y0062051D01*
X0196309Y0062144D01*
X0196227Y0062240D01*
X0196148Y0062338D01*
X0196071Y0062439D01*
X0195998Y0062542D01*
X0195929Y0062647D01*
X0195863Y0062755D01*
X0195800Y0062864D01*
X0195740Y0062976D01*
X0195684Y0063089D01*
X0195632Y0063204D01*
X0195584Y0063320D01*
X0195539Y0063439D01*
X0195498Y0063558D01*
X0195460Y0063679D01*
X0195427Y0063800D01*
X0195397Y0063923D01*
X0195372Y0064047D01*
X0195350Y0064171D01*
X0195332Y0064296D01*
X0195318Y0064422D01*
X0195308Y0064548D01*
X0195302Y0064674D01*
X0195300Y0064800D01*
X0193800Y0064800D02*
X0193802Y0064948D01*
X0193808Y0065096D01*
X0193818Y0065244D01*
X0193832Y0065392D01*
X0193850Y0065539D01*
X0193872Y0065686D01*
X0193898Y0065832D01*
X0193927Y0065977D01*
X0193961Y0066122D01*
X0193999Y0066265D01*
X0194040Y0066408D01*
X0194085Y0066549D01*
X0194135Y0066689D01*
X0194187Y0066827D01*
X0194244Y0066965D01*
X0194304Y0067100D01*
X0194368Y0067234D01*
X0194435Y0067366D01*
X0194506Y0067496D01*
X0194581Y0067625D01*
X0194659Y0067751D01*
X0194740Y0067875D01*
X0194824Y0067997D01*
X0194912Y0068116D01*
X0195003Y0068233D01*
X0195097Y0068348D01*
X0195195Y0068460D01*
X0195295Y0068569D01*
X0195398Y0068676D01*
X0195504Y0068780D01*
X0195612Y0068881D01*
X0195724Y0068979D01*
X0195838Y0069074D01*
X0195954Y0069165D01*
X0196073Y0069254D01*
X0196194Y0069339D01*
X0196318Y0069421D01*
X0196444Y0069500D01*
X0196571Y0069575D01*
X0196701Y0069647D01*
X0196833Y0069716D01*
X0196966Y0069780D01*
X0197101Y0069841D01*
X0197238Y0069899D01*
X0197376Y0069953D01*
X0197516Y0070003D01*
X0197657Y0070049D01*
X0197799Y0070091D01*
X0197942Y0070130D01*
X0198086Y0070164D01*
X0198232Y0070195D01*
X0198377Y0070222D01*
X0198524Y0070245D01*
X0198671Y0070264D01*
X0198819Y0070279D01*
X0198966Y0070290D01*
X0199115Y0070297D01*
X0199263Y0070300D01*
X0199411Y0070299D01*
X0199559Y0070294D01*
X0199707Y0070285D01*
X0199855Y0070272D01*
X0200003Y0070255D01*
X0200149Y0070234D01*
X0200296Y0070209D01*
X0200441Y0070180D01*
X0200586Y0070148D01*
X0200729Y0070111D01*
X0200872Y0070071D01*
X0201014Y0070026D01*
X0201154Y0069978D01*
X0201293Y0069926D01*
X0201430Y0069871D01*
X0201566Y0069811D01*
X0201701Y0069748D01*
X0201833Y0069682D01*
X0201964Y0069612D01*
X0202093Y0069538D01*
X0202219Y0069461D01*
X0202344Y0069381D01*
X0202466Y0069297D01*
X0202587Y0069210D01*
X0202704Y0069120D01*
X0202820Y0069026D01*
X0202932Y0068930D01*
X0203042Y0068831D01*
X0203150Y0068728D01*
X0203254Y0068623D01*
X0203356Y0068515D01*
X0203454Y0068404D01*
X0203550Y0068291D01*
X0203643Y0068175D01*
X0203732Y0068057D01*
X0203818Y0067936D01*
X0203901Y0067813D01*
X0203981Y0067688D01*
X0204057Y0067561D01*
X0204130Y0067431D01*
X0204199Y0067300D01*
X0204264Y0067167D01*
X0204327Y0067033D01*
X0204385Y0066896D01*
X0204440Y0066758D01*
X0204490Y0066619D01*
X0204538Y0066478D01*
X0204581Y0066337D01*
X0204621Y0066194D01*
X0204656Y0066050D01*
X0204688Y0065905D01*
X0204716Y0065759D01*
X0204740Y0065613D01*
X0204760Y0065466D01*
X0204776Y0065318D01*
X0204788Y0065171D01*
X0204796Y0065022D01*
X0204800Y0064874D01*
X0204800Y0064726D01*
X0204796Y0064578D01*
X0204788Y0064429D01*
X0204776Y0064282D01*
X0204760Y0064134D01*
X0204740Y0063987D01*
X0204716Y0063841D01*
X0204688Y0063695D01*
X0204656Y0063550D01*
X0204621Y0063406D01*
X0204581Y0063263D01*
X0204538Y0063122D01*
X0204490Y0062981D01*
X0204440Y0062842D01*
X0204385Y0062704D01*
X0204327Y0062567D01*
X0204264Y0062433D01*
X0204199Y0062300D01*
X0204130Y0062169D01*
X0204057Y0062039D01*
X0203981Y0061912D01*
X0203901Y0061787D01*
X0203818Y0061664D01*
X0203732Y0061543D01*
X0203643Y0061425D01*
X0203550Y0061309D01*
X0203454Y0061196D01*
X0203356Y0061085D01*
X0203254Y0060977D01*
X0203150Y0060872D01*
X0203042Y0060769D01*
X0202932Y0060670D01*
X0202820Y0060574D01*
X0202704Y0060480D01*
X0202587Y0060390D01*
X0202466Y0060303D01*
X0202344Y0060219D01*
X0202219Y0060139D01*
X0202093Y0060062D01*
X0201964Y0059988D01*
X0201833Y0059918D01*
X0201701Y0059852D01*
X0201566Y0059789D01*
X0201430Y0059729D01*
X0201293Y0059674D01*
X0201154Y0059622D01*
X0201014Y0059574D01*
X0200872Y0059529D01*
X0200729Y0059489D01*
X0200586Y0059452D01*
X0200441Y0059420D01*
X0200296Y0059391D01*
X0200149Y0059366D01*
X0200003Y0059345D01*
X0199855Y0059328D01*
X0199707Y0059315D01*
X0199559Y0059306D01*
X0199411Y0059301D01*
X0199263Y0059300D01*
X0199115Y0059303D01*
X0198966Y0059310D01*
X0198819Y0059321D01*
X0198671Y0059336D01*
X0198524Y0059355D01*
X0198377Y0059378D01*
X0198232Y0059405D01*
X0198086Y0059436D01*
X0197942Y0059470D01*
X0197799Y0059509D01*
X0197657Y0059551D01*
X0197516Y0059597D01*
X0197376Y0059647D01*
X0197238Y0059701D01*
X0197101Y0059759D01*
X0196966Y0059820D01*
X0196833Y0059884D01*
X0196701Y0059953D01*
X0196571Y0060025D01*
X0196444Y0060100D01*
X0196318Y0060179D01*
X0196194Y0060261D01*
X0196073Y0060346D01*
X0195954Y0060435D01*
X0195838Y0060526D01*
X0195724Y0060621D01*
X0195612Y0060719D01*
X0195504Y0060820D01*
X0195398Y0060924D01*
X0195295Y0061031D01*
X0195195Y0061140D01*
X0195097Y0061252D01*
X0195003Y0061367D01*
X0194912Y0061484D01*
X0194824Y0061603D01*
X0194740Y0061725D01*
X0194659Y0061849D01*
X0194581Y0061975D01*
X0194506Y0062104D01*
X0194435Y0062234D01*
X0194368Y0062366D01*
X0194304Y0062500D01*
X0194244Y0062635D01*
X0194187Y0062773D01*
X0194135Y0062911D01*
X0194085Y0063051D01*
X0194040Y0063192D01*
X0193999Y0063335D01*
X0193961Y0063478D01*
X0193927Y0063623D01*
X0193898Y0063768D01*
X0193872Y0063914D01*
X0193850Y0064061D01*
X0193832Y0064208D01*
X0193818Y0064356D01*
X0193808Y0064504D01*
X0193802Y0064652D01*
X0193800Y0064800D01*
X0127800Y0035800D02*
X0127802Y0035926D01*
X0127808Y0036052D01*
X0127818Y0036178D01*
X0127832Y0036304D01*
X0127850Y0036429D01*
X0127872Y0036553D01*
X0127897Y0036677D01*
X0127927Y0036800D01*
X0127960Y0036921D01*
X0127998Y0037042D01*
X0128039Y0037161D01*
X0128084Y0037280D01*
X0128132Y0037396D01*
X0128184Y0037511D01*
X0128240Y0037624D01*
X0128300Y0037736D01*
X0128363Y0037845D01*
X0128429Y0037953D01*
X0128498Y0038058D01*
X0128571Y0038161D01*
X0128648Y0038262D01*
X0128727Y0038360D01*
X0128809Y0038456D01*
X0128895Y0038549D01*
X0128983Y0038640D01*
X0129074Y0038727D01*
X0129168Y0038812D01*
X0129264Y0038893D01*
X0129363Y0038972D01*
X0129464Y0039047D01*
X0129568Y0039119D01*
X0129674Y0039188D01*
X0129782Y0039254D01*
X0129892Y0039316D01*
X0130004Y0039374D01*
X0130117Y0039429D01*
X0130233Y0039480D01*
X0130350Y0039528D01*
X0130468Y0039572D01*
X0130588Y0039612D01*
X0130709Y0039648D01*
X0130831Y0039681D01*
X0130954Y0039710D01*
X0131078Y0039734D01*
X0131202Y0039755D01*
X0131327Y0039772D01*
X0131453Y0039785D01*
X0131579Y0039794D01*
X0131705Y0039799D01*
X0131832Y0039800D01*
X0131958Y0039797D01*
X0132084Y0039790D01*
X0132210Y0039779D01*
X0132335Y0039764D01*
X0132460Y0039745D01*
X0132584Y0039722D01*
X0132708Y0039696D01*
X0132830Y0039665D01*
X0132952Y0039631D01*
X0133072Y0039592D01*
X0133191Y0039550D01*
X0133309Y0039505D01*
X0133425Y0039455D01*
X0133540Y0039402D01*
X0133652Y0039345D01*
X0133763Y0039285D01*
X0133872Y0039221D01*
X0133979Y0039154D01*
X0134084Y0039084D01*
X0134187Y0039010D01*
X0134287Y0038933D01*
X0134385Y0038853D01*
X0134480Y0038770D01*
X0134572Y0038684D01*
X0134662Y0038595D01*
X0134749Y0038503D01*
X0134832Y0038409D01*
X0134913Y0038312D01*
X0134991Y0038212D01*
X0135066Y0038110D01*
X0135137Y0038006D01*
X0135205Y0037899D01*
X0135269Y0037791D01*
X0135330Y0037680D01*
X0135388Y0037568D01*
X0135442Y0037454D01*
X0135492Y0037338D01*
X0135539Y0037221D01*
X0135582Y0037102D01*
X0135621Y0036982D01*
X0135657Y0036861D01*
X0135688Y0036738D01*
X0135716Y0036615D01*
X0135740Y0036491D01*
X0135760Y0036366D01*
X0135776Y0036241D01*
X0135788Y0036115D01*
X0135796Y0035989D01*
X0135800Y0035863D01*
X0135800Y0035737D01*
X0135796Y0035611D01*
X0135788Y0035485D01*
X0135776Y0035359D01*
X0135760Y0035234D01*
X0135740Y0035109D01*
X0135716Y0034985D01*
X0135688Y0034862D01*
X0135657Y0034739D01*
X0135621Y0034618D01*
X0135582Y0034498D01*
X0135539Y0034379D01*
X0135492Y0034262D01*
X0135442Y0034146D01*
X0135388Y0034032D01*
X0135330Y0033920D01*
X0135269Y0033809D01*
X0135205Y0033701D01*
X0135137Y0033594D01*
X0135066Y0033490D01*
X0134991Y0033388D01*
X0134913Y0033288D01*
X0134832Y0033191D01*
X0134749Y0033097D01*
X0134662Y0033005D01*
X0134572Y0032916D01*
X0134480Y0032830D01*
X0134385Y0032747D01*
X0134287Y0032667D01*
X0134187Y0032590D01*
X0134084Y0032516D01*
X0133979Y0032446D01*
X0133872Y0032379D01*
X0133763Y0032315D01*
X0133652Y0032255D01*
X0133540Y0032198D01*
X0133425Y0032145D01*
X0133309Y0032095D01*
X0133191Y0032050D01*
X0133072Y0032008D01*
X0132952Y0031969D01*
X0132830Y0031935D01*
X0132708Y0031904D01*
X0132584Y0031878D01*
X0132460Y0031855D01*
X0132335Y0031836D01*
X0132210Y0031821D01*
X0132084Y0031810D01*
X0131958Y0031803D01*
X0131832Y0031800D01*
X0131705Y0031801D01*
X0131579Y0031806D01*
X0131453Y0031815D01*
X0131327Y0031828D01*
X0131202Y0031845D01*
X0131078Y0031866D01*
X0130954Y0031890D01*
X0130831Y0031919D01*
X0130709Y0031952D01*
X0130588Y0031988D01*
X0130468Y0032028D01*
X0130350Y0032072D01*
X0130233Y0032120D01*
X0130117Y0032171D01*
X0130004Y0032226D01*
X0129892Y0032284D01*
X0129782Y0032346D01*
X0129674Y0032412D01*
X0129568Y0032481D01*
X0129464Y0032553D01*
X0129363Y0032628D01*
X0129264Y0032707D01*
X0129168Y0032788D01*
X0129074Y0032873D01*
X0128983Y0032960D01*
X0128895Y0033051D01*
X0128809Y0033144D01*
X0128727Y0033240D01*
X0128648Y0033338D01*
X0128571Y0033439D01*
X0128498Y0033542D01*
X0128429Y0033647D01*
X0128363Y0033755D01*
X0128300Y0033864D01*
X0128240Y0033976D01*
X0128184Y0034089D01*
X0128132Y0034204D01*
X0128084Y0034320D01*
X0128039Y0034439D01*
X0127998Y0034558D01*
X0127960Y0034679D01*
X0127927Y0034800D01*
X0127897Y0034923D01*
X0127872Y0035047D01*
X0127850Y0035171D01*
X0127832Y0035296D01*
X0127818Y0035422D01*
X0127808Y0035548D01*
X0127802Y0035674D01*
X0127800Y0035800D01*
X0126300Y0035800D02*
X0126302Y0035948D01*
X0126308Y0036096D01*
X0126318Y0036244D01*
X0126332Y0036392D01*
X0126350Y0036539D01*
X0126372Y0036686D01*
X0126398Y0036832D01*
X0126427Y0036977D01*
X0126461Y0037122D01*
X0126499Y0037265D01*
X0126540Y0037408D01*
X0126585Y0037549D01*
X0126635Y0037689D01*
X0126687Y0037827D01*
X0126744Y0037965D01*
X0126804Y0038100D01*
X0126868Y0038234D01*
X0126935Y0038366D01*
X0127006Y0038496D01*
X0127081Y0038625D01*
X0127159Y0038751D01*
X0127240Y0038875D01*
X0127324Y0038997D01*
X0127412Y0039116D01*
X0127503Y0039233D01*
X0127597Y0039348D01*
X0127695Y0039460D01*
X0127795Y0039569D01*
X0127898Y0039676D01*
X0128004Y0039780D01*
X0128112Y0039881D01*
X0128224Y0039979D01*
X0128338Y0040074D01*
X0128454Y0040165D01*
X0128573Y0040254D01*
X0128694Y0040339D01*
X0128818Y0040421D01*
X0128944Y0040500D01*
X0129071Y0040575D01*
X0129201Y0040647D01*
X0129333Y0040716D01*
X0129466Y0040780D01*
X0129601Y0040841D01*
X0129738Y0040899D01*
X0129876Y0040953D01*
X0130016Y0041003D01*
X0130157Y0041049D01*
X0130299Y0041091D01*
X0130442Y0041130D01*
X0130586Y0041164D01*
X0130732Y0041195D01*
X0130877Y0041222D01*
X0131024Y0041245D01*
X0131171Y0041264D01*
X0131319Y0041279D01*
X0131466Y0041290D01*
X0131615Y0041297D01*
X0131763Y0041300D01*
X0131911Y0041299D01*
X0132059Y0041294D01*
X0132207Y0041285D01*
X0132355Y0041272D01*
X0132503Y0041255D01*
X0132649Y0041234D01*
X0132796Y0041209D01*
X0132941Y0041180D01*
X0133086Y0041148D01*
X0133229Y0041111D01*
X0133372Y0041071D01*
X0133514Y0041026D01*
X0133654Y0040978D01*
X0133793Y0040926D01*
X0133930Y0040871D01*
X0134066Y0040811D01*
X0134201Y0040748D01*
X0134333Y0040682D01*
X0134464Y0040612D01*
X0134593Y0040538D01*
X0134719Y0040461D01*
X0134844Y0040381D01*
X0134966Y0040297D01*
X0135087Y0040210D01*
X0135204Y0040120D01*
X0135320Y0040026D01*
X0135432Y0039930D01*
X0135542Y0039831D01*
X0135650Y0039728D01*
X0135754Y0039623D01*
X0135856Y0039515D01*
X0135954Y0039404D01*
X0136050Y0039291D01*
X0136143Y0039175D01*
X0136232Y0039057D01*
X0136318Y0038936D01*
X0136401Y0038813D01*
X0136481Y0038688D01*
X0136557Y0038561D01*
X0136630Y0038431D01*
X0136699Y0038300D01*
X0136764Y0038167D01*
X0136827Y0038033D01*
X0136885Y0037896D01*
X0136940Y0037758D01*
X0136990Y0037619D01*
X0137038Y0037478D01*
X0137081Y0037337D01*
X0137121Y0037194D01*
X0137156Y0037050D01*
X0137188Y0036905D01*
X0137216Y0036759D01*
X0137240Y0036613D01*
X0137260Y0036466D01*
X0137276Y0036318D01*
X0137288Y0036171D01*
X0137296Y0036022D01*
X0137300Y0035874D01*
X0137300Y0035726D01*
X0137296Y0035578D01*
X0137288Y0035429D01*
X0137276Y0035282D01*
X0137260Y0035134D01*
X0137240Y0034987D01*
X0137216Y0034841D01*
X0137188Y0034695D01*
X0137156Y0034550D01*
X0137121Y0034406D01*
X0137081Y0034263D01*
X0137038Y0034122D01*
X0136990Y0033981D01*
X0136940Y0033842D01*
X0136885Y0033704D01*
X0136827Y0033567D01*
X0136764Y0033433D01*
X0136699Y0033300D01*
X0136630Y0033169D01*
X0136557Y0033039D01*
X0136481Y0032912D01*
X0136401Y0032787D01*
X0136318Y0032664D01*
X0136232Y0032543D01*
X0136143Y0032425D01*
X0136050Y0032309D01*
X0135954Y0032196D01*
X0135856Y0032085D01*
X0135754Y0031977D01*
X0135650Y0031872D01*
X0135542Y0031769D01*
X0135432Y0031670D01*
X0135320Y0031574D01*
X0135204Y0031480D01*
X0135087Y0031390D01*
X0134966Y0031303D01*
X0134844Y0031219D01*
X0134719Y0031139D01*
X0134593Y0031062D01*
X0134464Y0030988D01*
X0134333Y0030918D01*
X0134201Y0030852D01*
X0134066Y0030789D01*
X0133930Y0030729D01*
X0133793Y0030674D01*
X0133654Y0030622D01*
X0133514Y0030574D01*
X0133372Y0030529D01*
X0133229Y0030489D01*
X0133086Y0030452D01*
X0132941Y0030420D01*
X0132796Y0030391D01*
X0132649Y0030366D01*
X0132503Y0030345D01*
X0132355Y0030328D01*
X0132207Y0030315D01*
X0132059Y0030306D01*
X0131911Y0030301D01*
X0131763Y0030300D01*
X0131615Y0030303D01*
X0131466Y0030310D01*
X0131319Y0030321D01*
X0131171Y0030336D01*
X0131024Y0030355D01*
X0130877Y0030378D01*
X0130732Y0030405D01*
X0130586Y0030436D01*
X0130442Y0030470D01*
X0130299Y0030509D01*
X0130157Y0030551D01*
X0130016Y0030597D01*
X0129876Y0030647D01*
X0129738Y0030701D01*
X0129601Y0030759D01*
X0129466Y0030820D01*
X0129333Y0030884D01*
X0129201Y0030953D01*
X0129071Y0031025D01*
X0128944Y0031100D01*
X0128818Y0031179D01*
X0128694Y0031261D01*
X0128573Y0031346D01*
X0128454Y0031435D01*
X0128338Y0031526D01*
X0128224Y0031621D01*
X0128112Y0031719D01*
X0128004Y0031820D01*
X0127898Y0031924D01*
X0127795Y0032031D01*
X0127695Y0032140D01*
X0127597Y0032252D01*
X0127503Y0032367D01*
X0127412Y0032484D01*
X0127324Y0032603D01*
X0127240Y0032725D01*
X0127159Y0032849D01*
X0127081Y0032975D01*
X0127006Y0033104D01*
X0126935Y0033234D01*
X0126868Y0033366D01*
X0126804Y0033500D01*
X0126744Y0033635D01*
X0126687Y0033773D01*
X0126635Y0033911D01*
X0126585Y0034051D01*
X0126540Y0034192D01*
X0126499Y0034335D01*
X0126461Y0034478D01*
X0126427Y0034623D01*
X0126398Y0034768D01*
X0126372Y0034914D01*
X0126350Y0035061D01*
X0126332Y0035208D01*
X0126318Y0035356D01*
X0126308Y0035504D01*
X0126302Y0035652D01*
X0126300Y0035800D01*
D15*
X0141947Y0039348D02*
X0144549Y0039348D01*
X0145850Y0040649D01*
X0144549Y0041950D01*
X0141947Y0041950D01*
X0141947Y0043215D02*
X0141947Y0045167D01*
X0142597Y0045818D01*
X0143898Y0045818D01*
X0144549Y0045167D01*
X0144549Y0043215D01*
X0145850Y0043215D02*
X0141947Y0043215D01*
X0144549Y0044516D02*
X0145850Y0045818D01*
X0145850Y0047083D02*
X0143248Y0049685D01*
X0142597Y0049685D01*
X0141947Y0049034D01*
X0141947Y0047733D01*
X0142597Y0047083D01*
X0145850Y0047083D02*
X0145850Y0049685D01*
X0209447Y0068348D02*
X0212049Y0068348D01*
X0213350Y0069649D01*
X0212049Y0070950D01*
X0209447Y0070950D01*
X0209447Y0072215D02*
X0209447Y0074167D01*
X0210097Y0074818D01*
X0211398Y0074818D01*
X0212049Y0074167D01*
X0212049Y0072215D01*
X0213350Y0072215D02*
X0209447Y0072215D01*
X0212049Y0073516D02*
X0213350Y0074818D01*
X0212699Y0076083D02*
X0213350Y0076733D01*
X0213350Y0078034D01*
X0212699Y0078685D01*
X0212049Y0078685D01*
X0211398Y0078034D01*
X0211398Y0077384D01*
X0211398Y0078034D02*
X0210748Y0078685D01*
X0210097Y0078685D01*
X0209447Y0078034D01*
X0209447Y0076733D01*
X0210097Y0076083D01*
X0278898Y0049685D02*
X0278898Y0047083D01*
X0276947Y0049034D01*
X0280850Y0049034D01*
X0280850Y0045818D02*
X0279549Y0044516D01*
X0279549Y0045167D02*
X0279549Y0043215D01*
X0279549Y0041950D02*
X0276947Y0041950D01*
X0276947Y0043215D02*
X0276947Y0045167D01*
X0277597Y0045818D01*
X0278898Y0045818D01*
X0279549Y0045167D01*
X0280850Y0043215D02*
X0276947Y0043215D01*
X0279549Y0041950D02*
X0280850Y0040649D01*
X0279549Y0039348D01*
X0276947Y0039348D01*
X0344447Y0068348D02*
X0347049Y0068348D01*
X0348350Y0069649D01*
X0347049Y0070950D01*
X0344447Y0070950D01*
X0344447Y0072215D02*
X0344447Y0074167D01*
X0345097Y0074818D01*
X0346398Y0074818D01*
X0347049Y0074167D01*
X0347049Y0072215D01*
X0348350Y0072215D02*
X0344447Y0072215D01*
X0347049Y0073516D02*
X0348350Y0074818D01*
X0347699Y0076083D02*
X0348350Y0076733D01*
X0348350Y0078034D01*
X0347699Y0078685D01*
X0346398Y0078685D01*
X0345748Y0078034D01*
X0345748Y0077384D01*
X0346398Y0076083D01*
X0344447Y0076083D01*
X0344447Y0078685D01*
X0411947Y0049685D02*
X0412597Y0048384D01*
X0413898Y0047083D01*
X0413898Y0049034D01*
X0414549Y0049685D01*
X0415199Y0049685D01*
X0415850Y0049034D01*
X0415850Y0047733D01*
X0415199Y0047083D01*
X0413898Y0047083D01*
X0413898Y0045818D02*
X0412597Y0045818D01*
X0411947Y0045167D01*
X0411947Y0043215D01*
X0415850Y0043215D01*
X0414549Y0043215D02*
X0414549Y0045167D01*
X0413898Y0045818D01*
X0414549Y0044516D02*
X0415850Y0045818D01*
X0414549Y0041950D02*
X0411947Y0041950D01*
X0414549Y0041950D02*
X0415850Y0040649D01*
X0414549Y0039348D01*
X0411947Y0039348D01*
M02*
