G75*
%MOIN*%
%OFA0B0*%
%FSLAX24Y24*%
%IPPOS*%
%LPD*%
%AMOC8*
5,1,8,0,0,1.08239X$1,22.5*
%
%ADD10C,0.0000*%
%ADD11C,0.0160*%
%ADD12C,0.1660*%
%ADD13C,0.3195*%
%ADD14C,0.2762*%
D10*
X002680Y001850D02*
X002680Y009724D01*
X053271Y009724D01*
X053271Y001850D01*
X002680Y001850D01*
D11*
X002860Y002030D02*
X002860Y009544D01*
X053091Y009544D01*
X053091Y002030D01*
X002860Y002030D01*
X002860Y002167D02*
X053091Y002167D01*
X053091Y002326D02*
X002860Y002326D01*
X002860Y002484D02*
X053091Y002484D01*
X053091Y002643D02*
X002860Y002643D01*
X002860Y002801D02*
X053091Y002801D01*
X053091Y002960D02*
X002860Y002960D01*
X002860Y003118D02*
X053091Y003118D01*
X053091Y003277D02*
X002860Y003277D01*
X002860Y003435D02*
X053091Y003435D01*
X053091Y003594D02*
X002860Y003594D01*
X002860Y003752D02*
X053091Y003752D01*
X053091Y003911D02*
X002860Y003911D01*
X002860Y004069D02*
X053091Y004069D01*
X053091Y004228D02*
X002860Y004228D01*
X002860Y004386D02*
X053091Y004386D01*
X053091Y004545D02*
X002860Y004545D01*
X002860Y004703D02*
X053091Y004703D01*
X053091Y004862D02*
X002860Y004862D01*
X002860Y005020D02*
X053091Y005020D01*
X053091Y005179D02*
X002860Y005179D01*
X002860Y005337D02*
X053091Y005337D01*
X053091Y005496D02*
X002860Y005496D01*
X002860Y005654D02*
X053091Y005654D01*
X053091Y005813D02*
X052191Y005813D01*
X052164Y005801D02*
X052521Y005949D01*
X052794Y006222D01*
X052941Y006578D01*
X052941Y006964D01*
X052794Y007321D01*
X052521Y007594D01*
X052164Y007741D01*
X051778Y007741D01*
X051422Y007594D01*
X051149Y007321D01*
X051001Y006964D01*
X051001Y006578D01*
X051149Y006222D01*
X051422Y005949D01*
X051778Y005801D01*
X052164Y005801D01*
X051751Y005813D02*
X002860Y005813D01*
X002860Y005971D02*
X051400Y005971D01*
X051241Y006130D02*
X002860Y006130D01*
X002860Y006288D02*
X051122Y006288D01*
X051056Y006447D02*
X002860Y006447D01*
X002860Y006605D02*
X051001Y006605D01*
X051001Y006764D02*
X002860Y006764D01*
X002860Y006922D02*
X051001Y006922D01*
X051050Y007081D02*
X002860Y007081D01*
X002860Y007239D02*
X051115Y007239D01*
X051226Y007398D02*
X002860Y007398D01*
X002860Y007556D02*
X051384Y007556D01*
X051714Y007715D02*
X002860Y007715D01*
X002860Y007873D02*
X053091Y007873D01*
X053091Y008032D02*
X002860Y008032D01*
X002860Y008190D02*
X053091Y008190D01*
X053091Y008349D02*
X002860Y008349D01*
X002860Y008507D02*
X053091Y008507D01*
X053091Y008666D02*
X002860Y008666D01*
X002860Y008824D02*
X053091Y008824D01*
X053091Y008983D02*
X002860Y008983D01*
X002860Y009141D02*
X053091Y009141D01*
X053091Y009300D02*
X002860Y009300D01*
X002860Y009458D02*
X053091Y009458D01*
X053091Y007715D02*
X052229Y007715D01*
X052558Y007556D02*
X053091Y007556D01*
X053091Y007398D02*
X052717Y007398D01*
X052827Y007239D02*
X053091Y007239D01*
X053091Y007081D02*
X052893Y007081D01*
X052941Y006922D02*
X053091Y006922D01*
X053091Y006764D02*
X052941Y006764D01*
X052941Y006605D02*
X053091Y006605D01*
X053091Y006447D02*
X052887Y006447D01*
X052821Y006288D02*
X053091Y006288D01*
X053091Y006130D02*
X052701Y006130D01*
X052543Y005971D02*
X053091Y005971D01*
D12*
X051971Y006771D03*
X003861Y006771D03*
D13*
X020650Y004352D03*
X027400Y007254D03*
X040912Y007256D03*
X047650Y004347D03*
X034155Y004353D03*
D14*
X010690Y006737D03*
M02*
