G75*
%MOIN*%
%OFA0B0*%
%FSLAX25Y25*%
%IPPOS*%
%LPD*%
%AMOC8*
5,1,8,0,0,1.08239X$1,22.5*
%
%ADD10C,0.06496*%
%ADD11OC8,0.06000*%
%ADD12OC8,0.04800*%
%ADD13C,0.05000*%
%ADD14R,0.06600X0.06600*%
%ADD15OC8,0.06600*%
%ADD16R,0.12268X0.12268*%
%ADD17C,0.01600*%
%ADD18C,0.02500*%
%ADD19C,0.01000*%
D10*
X0012115Y0059300D03*
X0045580Y0059300D03*
X0057391Y0059300D03*
D11*
X0069300Y0071800D03*
X0079300Y0071800D03*
X0089300Y0071800D03*
X0099300Y0071800D03*
X0109300Y0071800D03*
X0119300Y0071800D03*
X0129300Y0071800D03*
X0139300Y0071800D03*
X0139300Y0081800D03*
X0129300Y0081800D03*
X0119300Y0081800D03*
X0109300Y0081800D03*
X0099300Y0081800D03*
X0089300Y0081800D03*
X0079300Y0081800D03*
X0069300Y0081800D03*
X0159300Y0029300D03*
X0169300Y0029300D03*
X0179300Y0029300D03*
X0189300Y0029300D03*
X0199300Y0029300D03*
X0209300Y0029300D03*
X0219300Y0029300D03*
X0229300Y0029300D03*
X0229300Y0019300D03*
X0219300Y0019300D03*
X0209300Y0019300D03*
X0199300Y0019300D03*
X0189300Y0019300D03*
X0179300Y0019300D03*
X0169300Y0019300D03*
X0159300Y0019300D03*
D12*
X0011800Y0016800D03*
X0041800Y0016800D03*
X0054300Y0019300D03*
X0041800Y0026800D03*
X0011800Y0026800D03*
X0011800Y0036800D03*
X0041800Y0036800D03*
X0054300Y0049300D03*
X0151800Y0064300D03*
X0161800Y0064300D03*
X0161800Y0084300D03*
X0151800Y0084300D03*
X0249300Y0081800D03*
X0279300Y0081800D03*
X0279300Y0071800D03*
X0249300Y0071800D03*
X0319300Y0034300D03*
X0349300Y0034300D03*
X0349300Y0024300D03*
X0319300Y0024300D03*
X0041800Y0081800D03*
X0011800Y0081800D03*
D13*
X0064300Y0051800D02*
X0064300Y0046800D01*
X0074300Y0046800D02*
X0074300Y0051800D01*
X0084300Y0051800D02*
X0084300Y0046800D01*
X0094300Y0046800D02*
X0094300Y0051800D01*
X0094300Y0021800D02*
X0094300Y0016800D01*
X0084300Y0016800D02*
X0084300Y0021800D01*
X0074300Y0021800D02*
X0074300Y0016800D01*
X0064300Y0016800D02*
X0064300Y0021800D01*
D14*
X0104241Y0045643D03*
X0171741Y0074643D03*
X0239241Y0045643D03*
X0306741Y0074643D03*
X0374241Y0045643D03*
D15*
X0374241Y0035800D03*
X0374241Y0025957D03*
X0306741Y0054957D03*
X0306741Y0064800D03*
X0239241Y0035800D03*
X0239241Y0025957D03*
X0171741Y0054957D03*
X0171741Y0064800D03*
X0104241Y0035800D03*
X0104241Y0025957D03*
D16*
X0131800Y0018083D03*
X0199300Y0047083D03*
X0131800Y0053517D03*
X0199300Y0082517D03*
X0266800Y0053517D03*
X0334300Y0047083D03*
X0401800Y0053517D03*
X0334300Y0082517D03*
X0266800Y0018083D03*
X0401800Y0018083D03*
D17*
X0229300Y0019300D02*
X0229300Y0029300D01*
X0209300Y0029300D02*
X0209300Y0019300D01*
X0161800Y0064300D02*
X0156800Y0059300D01*
X0149300Y0059300D01*
X0141800Y0066800D01*
X0124300Y0066800D01*
X0119300Y0071800D01*
X0119300Y0081800D01*
X0139300Y0081800D02*
X0139300Y0071800D01*
X0151800Y0071800D01*
X0154800Y0071800D01*
X0165300Y0082300D01*
X0182550Y0082300D01*
X0190550Y0074300D01*
X0229300Y0074300D01*
X0209300Y0070550D02*
X0189300Y0070550D01*
X0180050Y0079800D01*
X0167300Y0079800D01*
X0161800Y0074300D01*
X0161800Y0064300D01*
D18*
X0151800Y0071800D03*
X0116800Y0064300D03*
X0156800Y0049300D03*
X0184300Y0044300D03*
X0179300Y0041800D03*
X0174300Y0039300D03*
X0164300Y0034300D03*
X0189300Y0046800D03*
X0209300Y0070550D03*
X0229300Y0074300D03*
X0146800Y0081800D03*
X0054300Y0035800D03*
X0031800Y0031800D03*
X0146800Y0019300D03*
X0251800Y0019300D03*
D19*
X0259300Y0026800D01*
X0309300Y0026800D01*
X0316800Y0019300D01*
X0367583Y0019300D01*
X0374241Y0025957D01*
X0374241Y0035800D02*
X0362741Y0024300D01*
X0349300Y0024300D01*
X0339300Y0024300D02*
X0349300Y0034300D01*
X0324300Y0029300D02*
X0319300Y0024300D01*
X0339300Y0024300D01*
X0324300Y0029300D02*
X0324300Y0069300D01*
X0311800Y0081800D01*
X0279300Y0081800D01*
X0269300Y0071800D01*
X0249300Y0071800D01*
X0246800Y0071800D01*
X0239300Y0064300D01*
X0179300Y0064300D01*
X0174800Y0059800D01*
X0169800Y0059800D01*
X0166800Y0056800D01*
X0146800Y0056800D01*
X0139300Y0064300D01*
X0116800Y0064300D01*
X0114300Y0061800D02*
X0109300Y0066800D01*
X0109300Y0071800D01*
X0109300Y0081800D01*
X0104300Y0076800D02*
X0099300Y0081800D01*
X0094300Y0086800D02*
X0089300Y0081800D01*
X0084300Y0076800D02*
X0079300Y0081800D01*
X0074300Y0076800D02*
X0069300Y0081800D01*
X0074300Y0076800D02*
X0074300Y0069300D01*
X0084300Y0059300D01*
X0101800Y0059300D01*
X0111800Y0049300D01*
X0111800Y0035550D01*
X0115550Y0031800D01*
X0156800Y0031800D01*
X0159300Y0029300D01*
X0169300Y0029300D02*
X0169300Y0036800D01*
X0228398Y0036800D01*
X0239241Y0025957D01*
X0239241Y0035800D02*
X0242741Y0039300D01*
X0314300Y0039300D01*
X0319300Y0034300D01*
X0287457Y0054957D02*
X0276800Y0044300D01*
X0256800Y0044300D01*
X0239300Y0061800D01*
X0186800Y0061800D01*
X0174300Y0049300D01*
X0156800Y0049300D01*
X0154300Y0046800D02*
X0189300Y0046800D01*
X0184300Y0044300D02*
X0125550Y0044300D01*
X0124300Y0045550D01*
X0124300Y0049300D01*
X0104300Y0069300D01*
X0104300Y0076800D01*
X0099300Y0071800D02*
X0121800Y0049300D01*
X0121800Y0043050D01*
X0123050Y0041800D01*
X0179300Y0041800D01*
X0174300Y0039300D02*
X0120550Y0039300D01*
X0119300Y0040550D01*
X0119300Y0049300D01*
X0101800Y0066800D01*
X0091800Y0066800D01*
X0089300Y0069300D01*
X0089300Y0071800D01*
X0084300Y0069300D02*
X0089300Y0064300D01*
X0101800Y0064300D01*
X0116800Y0049300D01*
X0116800Y0038050D01*
X0118050Y0036800D01*
X0169300Y0036800D01*
X0164300Y0034300D02*
X0164300Y0024300D01*
X0169300Y0019300D01*
X0174300Y0016800D02*
X0174300Y0024300D01*
X0179300Y0029300D01*
X0199300Y0029300D02*
X0199300Y0019300D01*
X0174300Y0016800D02*
X0171800Y0014300D01*
X0151800Y0014300D01*
X0146800Y0019300D01*
X0140143Y0025957D01*
X0104241Y0025957D01*
X0109300Y0034300D02*
X0114300Y0029300D01*
X0141800Y0029300D01*
X0151800Y0019300D01*
X0159300Y0019300D01*
X0164300Y0034300D02*
X0116800Y0034300D01*
X0114300Y0036800D01*
X0114300Y0049300D01*
X0101800Y0061800D01*
X0086800Y0061800D01*
X0079300Y0069300D01*
X0079300Y0071800D01*
X0084300Y0069300D02*
X0084300Y0076800D01*
X0069300Y0071800D02*
X0069300Y0069300D01*
X0081800Y0056800D01*
X0101800Y0056800D01*
X0109300Y0049300D01*
X0109300Y0034300D01*
X0104241Y0035800D02*
X0054300Y0035800D01*
X0074300Y0031800D02*
X0031800Y0031800D01*
X0016800Y0031800D02*
X0011800Y0036800D01*
X0015550Y0040550D01*
X0088050Y0040550D01*
X0094300Y0046800D01*
X0094300Y0049300D01*
X0084300Y0049300D02*
X0078050Y0043050D01*
X0060550Y0043050D01*
X0054300Y0049300D01*
X0012115Y0059300D02*
X0011800Y0059615D01*
X0011800Y0081800D01*
X0094300Y0086800D02*
X0141800Y0086800D01*
X0146800Y0081800D01*
X0171741Y0064800D02*
X0173741Y0066800D01*
X0239300Y0066800D01*
X0249300Y0076800D01*
X0249300Y0081800D01*
X0279300Y0071800D02*
X0299741Y0071800D01*
X0306741Y0064800D01*
X0306741Y0054957D02*
X0287457Y0054957D01*
X0154300Y0046800D02*
X0139300Y0061800D01*
X0114300Y0061800D01*
X0084300Y0021800D02*
X0074300Y0031800D01*
X0071800Y0026800D02*
X0041800Y0026800D01*
X0041800Y0016800D01*
X0016800Y0021800D02*
X0016800Y0031800D01*
X0016800Y0021800D02*
X0011800Y0016800D01*
X0071800Y0026800D02*
X0074300Y0024300D01*
X0074300Y0019300D01*
X0084300Y0019300D02*
X0084300Y0021800D01*
M02*
