%
M48
M72
T01C0.0130
T02C0.0320
T03C0.0400
T04C0.0433
T05C0.0827
T06C0.1260
%
T01
X3180Y3180
X5430Y3580
X14680Y1930
X16430Y3430
X17430Y3930
X17930Y4180
X18430Y4430
X18930Y4680
X15680Y4930
X11680Y6430
X15180Y7180
X14680Y8180
X20930Y7055
X22930Y7430
X25180Y1930
T02
X1180Y1680
X4180Y1680
X5430Y1930
X6430Y1930
X7430Y1930
X8430Y1930
X9430Y1930
X4180Y2680
X1180Y2680
X1180Y3680
X4180Y3680
X5430Y4930
X6430Y4930
X7430Y4930
X8430Y4930
X9430Y4930
X15180Y6430
X16180Y6430
X16180Y8430
X15180Y8430
X24930Y8180
X27930Y8180
X27930Y7180
X24930Y7180
X31930Y3430
X34930Y3430
X34930Y2430
X31930Y2430
X4180Y8180
X1180Y8180
T03
X6930Y8180
X7930Y8180
X8930Y8180
X9930Y8180
X10930Y8180
X11930Y8180
X12930Y8180
X13930Y8180
X13930Y7180
X12930Y7180
X11930Y7180
X10930Y7180
X9930Y7180
X8930Y7180
X7930Y7180
X6930Y7180
X15930Y2930
X16930Y2930
X17930Y2930
X18930Y2930
X19930Y2930
X20930Y2930
X21930Y2930
X22930Y2930
X22930Y1930
X21930Y1930
X20930Y1930
X19930Y1930
X18930Y1930
X17930Y1930
X16930Y1930
X15930Y1930
T04
X10424Y2596
X10424Y3580
X10424Y4564
X5739Y5930
X4558Y5930
X1211Y5930
X17174Y5496
X17174Y6480
X17174Y7464
X23924Y4564
X23924Y3580
X23924Y2596
X30674Y5496
X30674Y6480
X30674Y7464
X37424Y4564
X37424Y3580
X37424Y2596
T05
X40180Y1808
X33430Y4708
X26680Y5352
X19930Y4708
X13180Y5352
X19930Y8252
X33430Y8252
X40180Y5352
X26680Y1808
X13180Y1808
T06
X38930Y7430
M30
